<svg width="351" height="132" viewBox="0 0 351 132" fill="none" xmlns="http://www.w3.org/2000/svg">
<g filter="url(#filter0_d_21_7287)">
<path d="M42.5781 47.9639H43.5781V46.9639H42.5781V47.9639ZM42.5781 89V90H43.5781V89H42.5781ZM42.5781 77.5869H43.5781V76.5869H42.5781V77.5869ZM20.1768 74.9248L20.8839 74.2177L20.8801 74.214L20.1768 74.9248ZM20.1201 62.0107L19.413 61.3036L19.4092 61.3074L20.1201 62.0107ZM42.5781 59.3486V60.3486H43.5781V59.3486H42.5781ZM42.5781 46.9639H26.6338V48.9639H42.5781V46.9639ZM26.6338 46.9639C20.6868 46.9639 15.5893 49.0697 11.3984 53.2607L12.8126 54.6749C16.6268 50.8606 21.2149 48.9639 26.6338 48.9639V46.9639ZM11.3984 53.2607C7.20809 57.4509 5.10156 62.5387 5.10156 68.4678H7.10156C7.10156 63.0687 8.99764 58.4898 12.8126 54.6749L11.3984 53.2607ZM5.10156 68.4678C5.10156 74.4147 7.20739 79.5122 11.3984 83.7032L12.8126 82.289C8.99834 78.4748 7.10156 73.8867 7.10156 68.4678H5.10156ZM11.3984 83.7032C15.5893 87.8942 20.6868 90 26.6338 90V88C21.2149 88 16.6268 86.1032 12.8126 82.289L11.3984 83.7032ZM26.6338 90H42.5781V88H26.6338V90ZM43.5781 89V77.5869H41.5781V89H43.5781ZM42.5781 76.5869H26.6338V78.5869H42.5781V76.5869ZM26.6338 76.5869C24.3667 76.5869 22.4694 75.8032 20.8839 74.2177L19.4697 75.6319C21.4336 77.5959 23.841 78.5869 26.6338 78.5869V76.5869ZM20.8801 74.214C19.2769 72.6276 18.4863 70.7315 18.4863 68.4678H16.4863C16.4863 71.264 17.4894 73.6725 19.4734 75.6356L20.8801 74.214ZM18.4863 68.4678C18.4863 66.1972 19.2631 64.2988 20.831 62.7141L19.4092 61.3074C17.4654 63.2722 16.4863 65.6784 16.4863 68.4678H18.4863ZM20.8272 62.7178C22.4096 61.1354 24.3244 60.3486 26.6338 60.3486V58.3486C23.8077 58.3486 21.3801 59.3366 19.413 61.3036L20.8272 62.7178ZM26.6338 60.3486H42.5781V58.3486H26.6338V60.3486ZM43.5781 59.3486V47.9639H41.5781V59.3486H43.5781ZM58.0693 74.9248L58.7765 74.2177L58.7727 74.214L58.0693 74.9248ZM58.0127 62.0107L57.3056 61.3036L57.3018 61.3074L58.0127 62.0107ZM74.1553 62.0107L74.8662 61.3074L74.8624 61.3036L74.1553 62.0107ZM74.0986 74.9248L73.3953 74.214L73.3915 74.2177L74.0986 74.9248ZM64.5264 76.5869C62.2592 76.5869 60.362 75.8032 58.7764 74.2177L57.3622 75.6319C59.3262 77.5959 61.7336 78.5869 64.5264 78.5869V76.5869ZM58.7727 74.214C57.1695 72.6276 56.3789 70.7315 56.3789 68.4678H54.3789C54.3789 71.264 55.382 73.6725 57.366 75.6356L58.7727 74.214ZM56.3789 68.4678C56.3789 66.1972 57.1557 64.2988 58.7236 62.7141L57.3018 61.3074C55.358 63.2722 54.3789 65.6784 54.3789 68.4678H56.3789ZM58.7198 62.7178C60.3022 61.1354 62.217 60.3486 64.5264 60.3486V58.3486C61.7003 58.3486 59.2727 59.3366 57.3056 61.3036L58.7198 62.7178ZM64.5264 60.3486H67.6416V58.3486H64.5264V60.3486ZM67.6416 60.3486C69.9509 60.3486 71.8658 61.1354 73.4482 62.7178L74.8624 61.3036C72.8953 59.3366 70.4677 58.3486 67.6416 58.3486V60.3486ZM73.4444 62.7141C75.0123 64.2988 75.7891 66.1972 75.7891 68.4678H77.7891C77.7891 65.6784 76.81 63.2722 74.8661 61.3074L73.4444 62.7141ZM75.7891 68.4678C75.7891 70.7315 74.9985 72.6276 73.3953 74.214L74.802 75.6356C76.786 73.6725 77.7891 71.264 77.7891 68.4678H75.7891ZM73.3915 74.2177C71.806 75.8032 69.9087 76.5869 67.6416 76.5869V78.5869C70.4344 78.5869 72.8418 77.5959 74.8057 75.6319L73.3915 74.2177ZM67.6416 76.5869H64.5264V78.5869H67.6416V76.5869ZM64.5264 46.9639C58.5794 46.9639 53.4819 49.0697 49.2909 53.2607L50.7052 54.6749C54.5194 50.8606 59.1075 48.9639 64.5264 48.9639V46.9639ZM49.2909 53.2607C45.1007 57.4509 42.9941 62.5387 42.9941 68.4678H44.9941C44.9941 63.0687 46.8902 58.4898 50.7052 54.6749L49.2909 53.2607ZM42.9941 68.4678C42.9941 74.4147 45.1 79.5122 49.2909 83.7032L50.7052 82.289C46.8909 78.4748 44.9941 73.8867 44.9941 68.4678H42.9941ZM49.2909 83.7032C53.4819 87.8942 58.5794 90 64.5264 90V88C59.1075 88 54.5194 86.1032 50.7052 82.289L49.2909 83.7032ZM64.5264 90H67.6416V88H64.5264V90ZM67.6416 90C73.5886 90 78.6861 87.8942 82.877 83.7032L81.4628 82.289C77.6486 86.1032 73.0605 88 67.6416 88V90ZM82.877 83.7032C87.068 79.5122 89.1738 74.4147 89.1738 68.4678H87.1738C87.1738 73.8867 85.277 78.4748 81.4628 82.289L82.877 83.7032ZM89.1738 68.4678C89.1738 62.5387 87.0673 57.4509 82.877 53.2607L81.4628 54.6749C85.2777 58.4898 87.1738 63.0687 87.1738 68.4678H89.1738ZM82.877 53.2607C78.6861 49.0697 73.5886 46.9639 67.6416 46.9639V48.9639C73.0605 48.9639 77.6486 50.8606 81.4628 54.6749L82.877 53.2607ZM67.6416 46.9639H64.5264V48.9639H67.6416V46.9639ZM116.154 69.2891L115.34 69.8697L117.154 72.4136V69.2891H116.154ZM100.946 47.9639L101.76 47.3832L101.461 46.9639H100.946V47.9639ZM89.5898 47.9639V46.9639H88.5898V47.9639H89.5898ZM89.5898 89H88.5898V90H89.5898V89ZM101.003 89V90H102.003V89H101.003ZM101.003 67.6465L101.818 67.0678L100.003 64.5091V67.6465H101.003ZM116.154 89L115.339 89.5787L115.638 90H116.154V89ZM127.567 89V90H128.567V89H127.567ZM127.567 47.9639H128.567V46.9639H127.567V47.9639ZM116.154 47.9639V46.9639H115.154V47.9639H116.154ZM116.968 68.7084L101.76 47.3832L100.132 48.5445L115.34 69.8697L116.968 68.7084ZM100.946 46.9639H89.5898V48.9639H100.946V46.9639ZM88.5898 47.9639V89H90.5898V47.9639H88.5898ZM89.5898 90H101.003V88H89.5898V90ZM102.003 89V67.6465H100.003V89H102.003ZM100.187 68.2252L115.339 89.5787L116.97 88.4213L101.818 67.0678L100.187 68.2252ZM116.154 90H127.567V88H116.154V90ZM128.567 89V47.9639H126.567V89H128.567ZM127.567 46.9639H116.154V48.9639H127.567V46.9639ZM115.154 47.9639V69.2891H117.154V47.9639H115.154ZM129.012 47.9639V46.9639H128.012V47.9639H129.012ZM129.012 59.3486H128.012V60.3486H129.012V59.3486ZM139.547 59.3486H140.547V58.3486H139.547V59.3486ZM139.547 89H138.547V90H139.547V89ZM150.96 89V90H151.96V89H150.96ZM150.96 59.3486V58.3486H149.96V59.3486H150.96ZM161.495 59.3486V60.3486H162.495V59.3486H161.495ZM161.495 47.9639H162.495V46.9639H161.495V47.9639ZM128.012 47.9639V59.3486H130.012V47.9639H128.012ZM129.012 60.3486H139.547V58.3486H129.012V60.3486ZM138.547 59.3486V89H140.547V59.3486H138.547ZM139.547 90H150.96V88H139.547V90ZM151.96 89V59.3486H149.96V89H151.96ZM150.96 60.3486H161.495V58.3486H150.96V60.3486ZM162.495 59.3486V47.9639H160.495V59.3486H162.495ZM161.495 46.9639H129.012V48.9639H161.495V46.9639ZM172.285 74.2451L171.35 73.8912L170.837 75.2451H172.285V74.2451ZM176.165 63.9932L177.1 63.6392L176.165 61.1679L175.23 63.6392L176.165 63.9932ZM180.045 74.2451V75.2451H181.493L180.98 73.8912L180.045 74.2451ZM169.283 47.9639V46.9639H168.604L168.353 47.5956L169.283 47.9639ZM153.027 89L152.098 88.6317L151.556 90H153.027V89ZM166.706 89V90H167.397L167.642 89.3533L166.706 89ZM168.235 84.9502V83.9502H167.544L167.3 84.5969L168.235 84.9502ZM184.066 84.9502L185 84.5912L184.753 83.9502H184.066V84.9502ZM185.624 89L184.691 89.359L184.937 90H185.624V89ZM198.736 89V90H200.189L199.67 88.6429L198.736 89ZM183.047 47.9639L183.981 47.6067L183.735 46.9639H183.047V47.9639ZM173.22 74.5991L177.1 64.3471L175.23 63.6392L171.35 73.8912L173.22 74.5991ZM175.23 64.3471L179.11 74.5991L180.98 73.8912L177.1 63.6392L175.23 64.3471ZM180.045 73.2451H172.285V75.2451H180.045V73.2451ZM168.353 47.5956L152.098 88.6317L153.957 89.3683L170.213 48.3322L168.353 47.5956ZM153.027 90H166.706V88H153.027V90ZM167.642 89.3533L169.171 85.3035L167.3 84.5969L165.771 88.6467L167.642 89.3533ZM168.235 85.9502H184.066V83.9502H168.235V85.9502ZM183.133 85.3092L184.691 89.359L186.557 88.641L185 84.5912L183.133 85.3092ZM185.624 90H198.736V88H185.624V90ZM199.67 88.6429L183.981 47.6067L182.113 48.321L197.802 89.3571L199.67 88.6429ZM183.047 46.9639H169.283V48.9639H183.047V46.9639ZM234.703 59.3486H235.703V58.3486H234.703V59.3486ZM234.703 89H233.703V90H234.703V89ZM246.116 89V90H247.116V89H246.116ZM246.116 59.3486V58.3486H245.116V59.3486H246.116ZM256.651 59.3486V60.3486H257.651V59.3486H256.651ZM256.651 47.9639H257.651V46.9639H256.651V47.9639ZM231.531 89V90H232.531V89H231.531ZM231.531 77.5869H232.531V76.5869H231.531V77.5869ZM209.13 74.9248L209.837 74.2177L209.833 74.214L209.13 74.9248ZM209.073 62.0107L208.366 61.3036L208.362 61.3074L209.073 62.0107ZM233.703 59.3486V89H235.703V59.3486H233.703ZM234.703 90H246.116V88H234.703V90ZM247.116 89V59.3486H245.116V89H247.116ZM246.116 60.3486H256.651V58.3486H246.116V60.3486ZM257.651 59.3486V47.9639H255.651V59.3486H257.651ZM256.651 46.9639H215.587V48.9639H256.651V46.9639ZM215.587 46.9639C209.64 46.9639 204.542 49.0697 200.351 53.2607L201.766 54.6749C205.58 50.8606 210.168 48.9639 215.587 48.9639V46.9639ZM200.351 53.2607C196.161 57.4509 194.055 62.5387 194.055 68.4678H196.055C196.055 63.0687 197.951 58.4898 201.766 54.6749L200.351 53.2607ZM194.055 68.4678C194.055 74.4147 196.161 79.5122 200.351 83.7032L201.766 82.289C197.951 78.4748 196.055 73.8867 196.055 68.4678H194.055ZM200.351 83.7032C204.542 87.8942 209.64 90 215.587 90V88C210.168 88 205.58 86.1032 201.766 82.289L200.351 83.7032ZM215.587 90H231.531V88H215.587V90ZM232.531 89V77.5869H230.531V89H232.531ZM231.531 76.5869H215.587V78.5869H231.531V76.5869ZM215.587 76.5869C213.32 76.5869 211.423 75.8032 209.837 74.2177L208.423 75.6319C210.387 77.5959 212.794 78.5869 215.587 78.5869V76.5869ZM209.833 74.214C208.23 72.6276 207.439 70.7315 207.439 68.4678H205.439C205.439 71.264 206.443 73.6725 208.427 75.6356L209.833 74.214ZM207.439 68.4678C207.439 66.1972 208.216 64.2988 209.784 62.7141L208.362 61.3074C206.419 63.2722 205.439 65.6784 205.439 68.4678H207.439ZM209.78 62.7178C211.363 61.1354 213.278 60.3486 215.587 60.3486V58.3486C212.761 58.3486 210.333 59.3366 208.366 61.3036L209.78 62.7178ZM215.587 60.3486H234.703V58.3486H215.587V60.3486ZM290.891 66.5137L290.003 66.9733L290.961 68.825L291.805 66.9185L290.891 66.5137ZM281.29 47.9639L282.178 47.5042L281.898 46.9639H281.29V47.9639ZM268.461 47.9639V46.9639H267.461V47.9639H268.461ZM268.461 89H267.461V90H268.461V89ZM279.874 89V90H280.874V89H279.874ZM279.874 70.9883L280.725 70.4629L278.874 67.4654V70.9883H279.874ZM290.891 88.8301L290.04 89.3555L290.89 90.7317L291.741 89.3564L290.891 88.8301ZM301.936 70.9883H302.936V67.473L301.085 70.4619L301.936 70.9883ZM301.936 89H300.936V90H301.936V89ZM313.349 89V90H314.349V89H313.349ZM313.349 47.9639H314.349V46.9639H313.349V47.9639ZM299.104 47.9639V46.9639H298.453L298.189 47.559L299.104 47.9639ZM291.779 66.054L282.178 47.5042L280.402 48.4235L290.003 66.9733L291.779 66.054ZM281.29 46.9639H268.461V48.9639H281.29V46.9639ZM267.461 47.9639V89H269.461V47.9639H267.461ZM268.461 90H279.874V88H268.461V90ZM280.874 89V70.9883H278.874V89H280.874ZM279.023 71.5137L290.04 89.3555L291.741 88.3047L280.725 70.4629L279.023 71.5137ZM291.741 89.3564L302.786 71.5146L301.085 70.4619L290.04 88.3037L291.741 89.3564ZM300.936 70.9883V89H302.936V70.9883H300.936ZM301.936 90H313.349V88H301.936V90ZM314.349 89V47.9639H312.349V89H314.349ZM313.349 46.9639H299.104V48.9639H313.349V46.9639ZM298.189 47.559L289.976 66.1088L291.805 66.9185L300.018 48.3687L298.189 47.559ZM314.793 47.9639V46.9639H313.793V47.9639H314.793ZM314.793 89H313.793V90H314.793V89ZM344.529 89V90H345.529V89H344.529ZM344.529 77.5869H345.529V76.5869H344.529V77.5869ZM326.206 77.5869H325.206V78.5869H326.206V77.5869ZM326.206 74.1885V73.1885H325.206V74.1885H326.206ZM344.529 74.1885V75.1885H345.529V74.1885H344.529ZM344.529 62.7754H345.529V61.7754H344.529V62.7754ZM326.206 62.7754H325.206V63.7754H326.206V62.7754ZM326.206 59.3486V58.3486H325.206V59.3486H326.206ZM344.529 59.3486V60.3486H345.529V59.3486H344.529ZM344.529 47.9639H345.529V46.9639H344.529V47.9639ZM313.793 47.9639V89H315.793V47.9639H313.793ZM314.793 90H344.529V88H314.793V90ZM345.529 89V77.5869H343.529V89H345.529ZM344.529 76.5869H326.206V78.5869H344.529V76.5869ZM327.206 77.5869V74.1885H325.206V77.5869H327.206ZM326.206 75.1885H344.529V73.1885H326.206V75.1885ZM345.529 74.1885V62.7754H343.529V74.1885H345.529ZM344.529 61.7754H326.206V63.7754H344.529V61.7754ZM327.206 62.7754V59.3486H325.206V62.7754H327.206ZM326.206 60.3486H344.529V58.3486H326.206V60.3486ZM345.529 59.3486V47.9639H343.529V59.3486H345.529ZM344.529 46.9639H314.793V48.9639H344.529V46.9639Z" fill="#CEB7FF"/>
</g>
<g filter="url(#filter1_d_21_7287)">
<path d="M344.5 4.5V19.5H5.5V4.5H344.5Z" stroke="#CEB7FF" shape-rendering="crispEdges"/>
</g>
<g filter="url(#filter2_d_21_7287)">
<path d="M344.5 112.5V127.5H5.5V112.5H344.5Z" stroke="#CEB7FF" shape-rendering="crispEdges"/>
</g>
<defs>
<filter id="filter0_d_21_7287" x="0.101562" y="41.9639" width="350.428" height="53.7678" filterUnits="userSpaceOnUse" color-interpolation-filters="sRGB">
<feFlood flood-opacity="0" result="BackgroundImageFix"/>
<feColorMatrix in="SourceAlpha" type="matrix" values="0 0 0 0 0 0 0 0 0 0 0 0 0 0 0 0 0 0 127 0" result="hardAlpha"/>
<feOffset/>
<feGaussianBlur stdDeviation="2.5"/>
<feComposite in2="hardAlpha" operator="out"/>
<feColorMatrix type="matrix" values="0 0 0 0 0.701961 0 0 0 0 0.466667 0 0 0 0 1 0 0 0 1 0"/>
<feBlend mode="normal" in2="BackgroundImageFix" result="effect1_dropShadow_21_7287"/>
<feBlend mode="normal" in="SourceGraphic" in2="effect1_dropShadow_21_7287" result="shape"/>
</filter>
<filter id="filter1_d_21_7287" x="1" y="0" width="348" height="24" filterUnits="userSpaceOnUse" color-interpolation-filters="sRGB">
<feFlood flood-opacity="0" result="BackgroundImageFix"/>
<feColorMatrix in="SourceAlpha" type="matrix" values="0 0 0 0 0 0 0 0 0 0 0 0 0 0 0 0 0 0 127 0" result="hardAlpha"/>
<feOffset/>
<feGaussianBlur stdDeviation="2"/>
<feComposite in2="hardAlpha" operator="out"/>
<feColorMatrix type="matrix" values="0 0 0 0 0.807843 0 0 0 0 0.717647 0 0 0 0 1 0 0 0 1 0"/>
<feBlend mode="normal" in2="BackgroundImageFix" result="effect1_dropShadow_21_7287"/>
<feBlend mode="normal" in="SourceGraphic" in2="effect1_dropShadow_21_7287" result="shape"/>
</filter>
<filter id="filter2_d_21_7287" x="1" y="108" width="348" height="24" filterUnits="userSpaceOnUse" color-interpolation-filters="sRGB">
<feFlood flood-opacity="0" result="BackgroundImageFix"/>
<feColorMatrix in="SourceAlpha" type="matrix" values="0 0 0 0 0 0 0 0 0 0 0 0 0 0 0 0 0 0 127 0" result="hardAlpha"/>
<feOffset/>
<feGaussianBlur stdDeviation="2"/>
<feComposite in2="hardAlpha" operator="out"/>
<feColorMatrix type="matrix" values="0 0 0 0 0.807843 0 0 0 0 0.717647 0 0 0 0 1 0 0 0 1 0"/>
<feBlend mode="normal" in2="BackgroundImageFix" result="effect1_dropShadow_21_7287"/>
<feBlend mode="normal" in="SourceGraphic" in2="effect1_dropShadow_21_7287" result="shape"/>
</filter>
</defs>
</svg>
