<svg width="825" height="429" viewBox="0 0 825 429" fill="none" xmlns="http://www.w3.org/2000/svg">
<path d="M35.558 7.4H46.958V11.2H39.738V18.23H45.476V22.03H39.738V30.2H46.958V34H35.558V7.4ZM49.3627 7.4H55.3287L57.9887 26.438H58.0647L60.7247 7.4H66.6907V34H62.7387V13.86H62.6627L59.6227 34H56.1267L53.0867 13.86H53.0107V34H49.3627V7.4ZM73.04 7.4H78.702L83.034 34H78.854L78.094 28.718V28.794H73.344L72.584 34H68.708L73.04 7.4ZM77.6 25.184L75.738 12.036H75.662L73.838 25.184H77.6ZM85.0619 7.4H89.2419V34H85.0619V7.4ZM92.3725 7.4H96.5525V30.2H103.43V34H92.3725V7.4ZM111.521 15.494H115.549V19.522H111.521V15.494ZM111.521 29.972H115.549V34H111.521V29.972Z" fill="white"/>
<path d="M13.992 136.38C11.9653 136.38 10.4327 135.81 9.394 134.67C8.35533 133.505 7.836 131.845 7.836 129.692V128.172H11.788V129.996C11.788 131.719 12.51 132.58 13.954 132.58C14.6633 132.58 15.1953 132.377 15.55 131.972C15.93 131.541 16.12 130.857 16.12 129.92C16.12 128.805 15.8667 127.83 15.36 126.994C14.8533 126.133 13.916 125.107 12.548 123.916C10.8253 122.396 9.622 121.028 8.938 119.812C8.254 118.571 7.912 117.177 7.912 115.632C7.912 113.529 8.444 111.908 9.508 110.768C10.572 109.603 12.1173 109.02 14.144 109.02C16.1453 109.02 17.6527 109.603 18.666 110.768C19.7047 111.908 20.224 113.555 20.224 115.708V116.81H16.272V115.442C16.272 114.53 16.0947 113.871 15.74 113.466C15.3853 113.035 14.866 112.82 14.182 112.82C12.7887 112.82 12.092 113.669 12.092 115.366C12.092 116.329 12.3453 117.228 12.852 118.064C13.384 118.9 14.334 119.913 15.702 121.104C17.45 122.624 18.6533 124.005 19.312 125.246C19.9707 126.487 20.3 127.944 20.3 129.616C20.3 131.795 19.7553 133.467 18.666 134.632C17.602 135.797 16.044 136.38 13.992 136.38ZM28.7767 136.38C26.75 136.38 25.2047 135.81 24.1407 134.67C23.0767 133.505 22.5447 131.845 22.5447 129.692V109.4H26.7247V129.996C26.7247 130.908 26.902 131.567 27.2567 131.972C27.6367 132.377 28.1687 132.58 28.8527 132.58C29.5367 132.58 30.056 132.377 30.4107 131.972C30.7907 131.567 30.9807 130.908 30.9807 129.996V109.4H35.0087V129.692C35.0087 131.845 34.4767 133.505 33.4127 134.67C32.3487 135.81 30.8033 136.38 28.7767 136.38ZM37.9857 109.4H44.2937C46.4471 109.4 48.0177 109.907 49.0057 110.92C49.9937 111.908 50.4877 113.441 50.4877 115.518V116.582C50.4877 117.95 50.2597 119.065 49.8037 119.926C49.3731 120.787 48.7017 121.408 47.7897 121.788V121.864C49.8671 122.573 50.9057 124.423 50.9057 127.412V129.692C50.9057 131.744 50.3611 133.315 49.2717 134.404C48.2077 135.468 46.6371 136 44.5597 136H37.9857V109.4ZM43.7997 120.23C44.6357 120.23 45.2564 120.015 45.6617 119.584C46.0924 119.153 46.3077 118.431 46.3077 117.418V115.936C46.3077 114.973 46.1304 114.277 45.7757 113.846C45.4464 113.415 44.9144 113.2 44.1797 113.2H42.1657V120.23H43.7997ZM44.5597 132.2C45.2944 132.2 45.8391 132.01 46.1937 131.63C46.5484 131.225 46.7257 130.541 46.7257 129.578V127.26C46.7257 126.044 46.5104 125.208 46.0797 124.752C45.6744 124.271 44.9904 124.03 44.0277 124.03H42.1657V132.2H44.5597ZM54.337 136.152C53.577 136.152 52.931 136.101 52.399 136V132.2C52.8043 132.301 53.2603 132.352 53.767 132.352C54.603 132.352 55.2237 132.149 55.629 131.744C56.0343 131.313 56.237 130.667 56.237 129.806V109.4H60.417V129.692C60.417 131.871 59.9103 133.492 58.897 134.556C57.909 135.62 56.389 136.152 54.337 136.152ZM63.4057 109.4H74.8057V113.2H67.5857V120.23H73.3237V124.03H67.5857V132.2H74.8057V136H63.4057V109.4ZM83.1003 136.38C81.099 136.38 79.5663 135.81 78.5023 134.67C77.4637 133.53 76.9443 131.921 76.9443 129.844V115.556C76.9443 113.479 77.4637 111.87 78.5023 110.73C79.5663 109.59 81.099 109.02 83.1003 109.02C85.1017 109.02 86.6217 109.59 87.6603 110.73C88.7243 111.87 89.2563 113.479 89.2563 115.556V118.368H85.3043V115.29C85.3043 113.643 84.6077 112.82 83.2143 112.82C81.821 112.82 81.1243 113.643 81.1243 115.29V130.148C81.1243 131.769 81.821 132.58 83.2143 132.58C84.6077 132.58 85.3043 131.769 85.3043 130.148V126.082H89.2563V129.844C89.2563 131.921 88.7243 133.53 87.6603 134.67C86.6217 135.81 85.1017 136.38 83.1003 136.38ZM95.0252 113.2H90.6552V109.4H103.575V113.2H99.2052V136H95.0252V113.2ZM111.685 117.494H115.713V121.522H111.685V117.494ZM111.685 131.972H115.713V136H111.685V131.972Z" fill="white"/>
<path d="M7.448 238.38C5.44667 238.38 3.914 237.81 2.85 236.67C1.81133 235.53 1.292 233.921 1.292 231.844V217.556C1.292 215.479 1.81133 213.87 2.85 212.73C3.914 211.59 5.44667 211.02 7.448 211.02C9.44933 211.02 10.9693 211.59 12.008 212.73C13.072 213.87 13.604 215.479 13.604 217.556V220.368H9.652V217.29C9.652 215.643 8.95533 214.82 7.562 214.82C6.16867 214.82 5.472 215.643 5.472 217.29V232.148C5.472 233.769 6.16867 234.58 7.562 234.58C8.95533 234.58 9.652 233.769 9.652 232.148V228.082H13.604V231.844C13.604 233.921 13.072 235.53 12.008 236.67C10.9693 237.81 9.44933 238.38 7.448 238.38ZM22.2211 238.38C20.1691 238.38 18.5984 237.797 17.5091 236.632C16.4198 235.467 15.8751 233.82 15.8751 231.692V217.708C15.8751 215.58 16.4198 213.933 17.5091 212.768C18.5984 211.603 20.1691 211.02 22.2211 211.02C24.2731 211.02 25.8438 211.603 26.9331 212.768C28.0224 213.933 28.5671 215.58 28.5671 217.708V231.692C28.5671 233.82 28.0224 235.467 26.9331 236.632C25.8438 237.797 24.2731 238.38 22.2211 238.38ZM22.2211 234.58C23.6651 234.58 24.3871 233.706 24.3871 231.958V217.442C24.3871 215.694 23.6651 214.82 22.2211 214.82C20.7771 214.82 20.0551 215.694 20.0551 217.442V231.958C20.0551 233.706 20.7771 234.58 22.2211 234.58ZM31.3939 211.4H36.6379L40.7039 227.322H40.7799V211.4H44.5039V238H40.2099L35.1939 218.582H35.1179V238H31.3939V211.4ZM50.8787 215.2H46.5087V211.4H59.4287V215.2H55.0587V238H50.8787V215.2ZM61.4525 211.4H72.8525V215.2H65.6325V222.23H71.3705V226.03H65.6325V234.2H72.8525V238H61.4525V211.4ZM75.2572 211.4H80.5012L84.5672 227.322H84.6432V211.4H88.3672V238H84.0732L79.0572 218.582H78.9812V238H75.2572V211.4ZM94.742 215.2H90.372V211.4H103.292V215.2H98.922V238H94.742V215.2ZM111.402 219.494H115.43V223.522H111.402V219.494ZM111.402 233.972H115.43V238H111.402V233.972Z" fill="white"/>
<rect opacity="0.3" x="149" width="676" height="51" fill="#CEB7FF"/>
<path opacity="0.2" d="M169.675 34.1C169.175 34.1 168.75 34.0667 168.4 34V31.5C168.667 31.5667 168.967 31.6 169.3 31.6C169.85 31.6 170.258 31.4667 170.525 31.2C170.792 30.9167 170.925 30.4917 170.925 29.925V16.5H173.675V29.85C173.675 31.2833 173.342 32.35 172.675 33.05C172.025 33.75 171.025 34.1 169.675 34.1ZM177.766 16.5H181.491L184.341 34H181.591L181.091 30.525V30.575H177.966L177.466 34H174.916L177.766 16.5ZM180.766 28.2L179.541 19.55H179.491L178.291 28.2H180.766ZM187.053 26.55L183.728 16.5H186.653L188.528 22.925H188.578L190.453 16.5H193.128L189.803 26.55V34H187.053V26.55ZM194.367 16.5H201.867V19H197.117V23.625H200.892V26.125H197.117V31.5H201.867V34H194.367V16.5ZM203.449 16.5H206.899L209.574 26.975H209.624V16.5H212.074V34H209.249L205.949 21.225H205.899V34H203.449V16.5ZM214.118 16.5H218.318C219.684 16.5 220.709 16.8667 221.393 17.6C222.076 18.3333 222.418 19.4083 222.418 20.825V29.675C222.418 31.0917 222.076 32.1667 221.393 32.9C220.709 33.6333 219.684 34 218.318 34H214.118V16.5ZM218.268 31.5C218.718 31.5 219.059 31.3667 219.293 31.1C219.543 30.8333 219.668 30.4 219.668 29.8V20.7C219.668 20.1 219.543 19.6667 219.293 19.4C219.059 19.1333 218.718 19 218.268 19H216.868V31.5H218.268ZM224.274 16.5H228.349C229.766 16.5 230.799 16.8333 231.449 17.5C232.099 18.15 232.424 19.1583 232.424 20.525V21.6C232.424 23.4167 231.824 24.5667 230.624 25.05V25.1C231.291 25.3 231.757 25.7083 232.024 26.325C232.307 26.9417 232.449 27.7667 232.449 28.8V31.875C232.449 32.375 232.466 32.7833 232.499 33.1C232.532 33.4 232.616 33.7 232.749 34H229.949C229.849 33.7167 229.782 33.45 229.749 33.2C229.716 32.95 229.699 32.5 229.699 31.85V28.65C229.699 27.85 229.566 27.2917 229.299 26.975C229.049 26.6583 228.607 26.5 227.974 26.5H227.024V34H224.274V16.5ZM228.024 24C228.574 24 228.982 23.8583 229.249 23.575C229.532 23.2917 229.674 22.8167 229.674 22.15V20.8C229.674 20.1667 229.557 19.7083 229.324 19.425C229.107 19.1417 228.757 19 228.274 19H227.024V24H228.024ZM236.482 16.5H240.207L243.057 34H240.307L239.807 30.525V30.575H236.682L236.182 34H233.632L236.482 16.5ZM239.482 28.2L238.257 19.55H238.207L237.007 28.2H239.482ZM246.638 16.5H250.363L253.213 34H250.463L249.963 30.525V30.575H246.838L246.338 34H243.788L246.638 16.5ZM249.638 28.2L248.413 19.55H248.363L247.163 28.2H249.638ZM253.556 16.5H256.206L257.431 29.95H257.481L258.781 16.5H261.781L263.081 29.95H263.131L264.356 16.5H266.731L264.956 34H261.531L260.281 22.2H260.231L258.981 34H255.331L253.556 16.5ZM269.905 16.5H273.63L276.48 34H273.73L273.23 30.525V30.575H270.105L269.605 34H267.055L269.905 16.5ZM272.905 28.2L271.68 19.55H271.63L270.43 28.2H272.905ZM281.316 34.25C279.982 34.25 278.974 33.875 278.291 33.125C277.607 32.3583 277.266 31.2667 277.266 29.85V28.85H279.866V30.05C279.866 31.1833 280.341 31.75 281.291 31.75C281.757 31.75 282.107 31.6167 282.341 31.35C282.591 31.0667 282.716 30.6167 282.716 30C282.716 29.2667 282.549 28.625 282.216 28.075C281.882 27.5083 281.266 26.8333 280.366 26.05C279.232 25.05 278.441 24.15 277.991 23.35C277.541 22.5333 277.316 21.6167 277.316 20.6C277.316 19.2167 277.666 18.15 278.366 17.4C279.066 16.6333 280.082 16.25 281.416 16.25C282.732 16.25 283.724 16.6333 284.391 17.4C285.074 18.15 285.416 19.2333 285.416 20.65V21.375H282.816V20.475C282.816 19.875 282.699 19.4417 282.466 19.175C282.232 18.8917 281.891 18.75 281.441 18.75C280.524 18.75 280.066 19.3083 280.066 20.425C280.066 21.0583 280.232 21.65 280.566 22.2C280.916 22.75 281.541 23.4167 282.441 24.2C283.591 25.2 284.382 26.1083 284.816 26.925C285.249 27.7417 285.466 28.7 285.466 29.8C285.466 31.2333 285.107 32.3333 284.391 33.1C283.691 33.8667 282.666 34.25 281.316 34.25ZM289.193 19H286.318V16.5H294.818V19H291.943V34H289.193V19ZM296.149 16.5H298.899V23.625H301.849V16.5H304.599V34H301.849V26.125H298.899V34H296.149V16.5ZM306.647 16.5H309.397V34H306.647V16.5ZM315.432 34.25C314.082 34.25 313.048 33.8667 312.332 33.1C311.615 32.3333 311.257 31.25 311.257 29.85V20.65C311.257 19.25 311.615 18.1667 312.332 17.4C313.048 16.6333 314.082 16.25 315.432 16.25C316.782 16.25 317.815 16.6333 318.532 17.4C319.248 18.1667 319.607 19.25 319.607 20.65V29.85C319.607 31.25 319.248 32.3333 318.532 33.1C317.815 33.8667 316.782 34.25 315.432 34.25ZM315.432 31.75C316.382 31.75 316.857 31.175 316.857 30.025V20.475C316.857 19.325 316.382 18.75 315.432 18.75C314.482 18.75 314.007 19.325 314.007 20.475V30.025C314.007 31.175 314.482 31.75 315.432 31.75ZM325.516 34.25C324.166 34.25 323.133 33.8667 322.416 33.1C321.7 32.3333 321.341 31.25 321.341 29.85V20.8C321.341 17.7667 322.741 16.25 325.541 16.25C326.875 16.25 327.891 16.6333 328.591 17.4C329.291 18.15 329.641 19.2333 329.641 20.65V20.975H327.041V20.475C327.041 19.325 326.566 18.75 325.616 18.75C325.1 18.75 324.716 18.9083 324.466 19.225C324.216 19.5417 324.091 20.1 324.091 20.9V24.25H324.141C324.625 23.2333 325.458 22.725 326.641 22.725C327.641 22.725 328.4 23.0667 328.916 23.75C329.433 24.4333 329.691 25.425 329.691 26.725V29.85C329.691 31.25 329.333 32.3333 328.616 33.1C327.9 33.8667 326.866 34.25 325.516 34.25ZM325.516 31.75C326.466 31.75 326.941 31.1833 326.941 30.05V26.95C326.941 25.8 326.466 25.225 325.516 25.225C324.566 25.225 324.091 25.8 324.091 26.95V30.05C324.091 31.1833 324.566 31.75 325.516 31.75ZM339.101 35.5C336.385 35.5 334.368 34.725 333.051 33.175C331.735 31.6083 331.076 29.4667 331.076 26.75C331.076 24.6333 331.418 22.725 332.101 21.025C332.801 19.325 333.843 17.9833 335.226 17C336.626 16 338.318 15.5 340.301 15.5C342.768 15.5 344.543 16.1667 345.626 17.5C346.71 18.8333 347.251 20.6167 347.251 22.85C347.251 24.7167 346.993 26.2333 346.476 27.4C345.96 28.5667 345.326 29.4083 344.576 29.925C343.843 30.425 343.11 30.675 342.376 30.675C341.026 30.675 340.301 30.125 340.201 29.025H340.151C339.901 29.5417 339.585 29.925 339.201 30.175C338.818 30.4083 338.351 30.525 337.801 30.525C337.051 30.525 336.468 30.2667 336.051 29.75C335.651 29.2167 335.451 28.475 335.451 27.525C335.451 27.325 335.468 27.0417 335.501 26.675L335.776 24.15C336.06 21.6833 337.06 20.45 338.776 20.45C339.81 20.45 340.493 20.9583 340.826 21.975H340.876L341.101 20.55H343.426L342.701 27.525L342.676 27.925C342.676 28.2417 342.843 28.4 343.176 28.4C343.826 28.4 344.318 27.8333 344.651 26.7C345.001 25.55 345.176 24.2833 345.176 22.9C345.176 21.2667 344.768 19.9833 343.951 19.05C343.135 18.1 341.885 17.625 340.201 17.625C338.001 17.625 336.318 18.4417 335.151 20.075C334.001 21.7083 333.426 23.975 333.426 26.875C333.426 28.9417 333.91 30.55 334.876 31.7C335.86 32.8333 337.318 33.4 339.251 33.4C340.251 33.4 341.151 33.275 341.951 33.025C342.768 32.775 343.593 32.3333 344.426 31.7L344.226 34.1C343.443 34.6167 342.643 34.975 341.826 35.175C341.01 35.3917 340.101 35.5 339.101 35.5ZM339.001 28.2C339.818 28.2 340.285 27.675 340.401 26.625L340.651 24.25L340.676 23.95C340.676 23.5833 340.576 23.3083 340.376 23.125C340.176 22.9417 339.91 22.85 339.576 22.85C339.16 22.85 338.835 22.975 338.601 23.225C338.368 23.4583 338.218 23.8583 338.151 24.425L337.926 26.55L337.901 26.925C337.901 27.3583 337.993 27.6833 338.176 27.9C338.376 28.1 338.651 28.2 339.001 28.2ZM352.783 34.25C351.45 34.25 350.433 33.875 349.733 33.125C349.033 32.3583 348.683 31.2667 348.683 29.85V20.65C348.683 19.2333 349.033 18.15 349.733 17.4C350.433 16.6333 351.45 16.25 352.783 16.25C354.117 16.25 355.133 16.6333 355.833 17.4C356.533 18.15 356.883 19.2333 356.883 20.65V22.15H354.283V20.475C354.283 19.325 353.808 18.75 352.858 18.75C351.908 18.75 351.433 19.325 351.433 20.475V30.05C351.433 31.1833 351.908 31.75 352.858 31.75C353.808 31.75 354.283 31.1833 354.283 30.05V26.625H352.908V24.125H356.883V29.85C356.883 31.2667 356.533 32.3583 355.833 33.125C355.133 33.875 354.117 34.25 352.783 34.25ZM358.649 16.5H362.574L364.324 29.025H364.374L366.124 16.5H370.049V34H367.449V20.75H367.399L365.399 34H363.099L361.099 20.75H361.049V34H358.649V16.5ZM374.226 16.5H377.951L380.801 34H378.051L377.551 30.525V30.575H374.426L373.926 34H371.376L374.226 16.5ZM377.226 28.2L376.001 19.55H375.951L374.751 28.2H377.226ZM382.135 16.5H384.885V34H382.135V16.5ZM386.945 16.5H389.695V31.5H394.22V34H386.945V16.5ZM395.783 31.35H398.433V34H395.783V31.35ZM404.223 34.25C402.907 34.25 401.898 33.875 401.198 33.125C400.515 32.375 400.173 31.3167 400.173 29.95V20.55C400.173 19.1833 400.515 18.125 401.198 17.375C401.898 16.625 402.907 16.25 404.223 16.25C405.54 16.25 406.54 16.625 407.223 17.375C407.923 18.125 408.273 19.1833 408.273 20.55V22.4H405.673V20.375C405.673 19.2917 405.215 18.75 404.298 18.75C403.382 18.75 402.923 19.2917 402.923 20.375V30.15C402.923 31.2167 403.382 31.75 404.298 31.75C405.215 31.75 405.673 31.2167 405.673 30.15V27.475H408.273V29.95C408.273 31.3167 407.923 32.375 407.223 33.125C406.54 33.875 405.54 34.25 404.223 34.25ZM413.942 34.25C412.592 34.25 411.559 33.8667 410.842 33.1C410.126 32.3333 409.767 31.25 409.767 29.85V20.65C409.767 19.25 410.126 18.1667 410.842 17.4C411.559 16.6333 412.592 16.25 413.942 16.25C415.292 16.25 416.326 16.6333 417.042 17.4C417.759 18.1667 418.117 19.25 418.117 20.65V29.85C418.117 31.25 417.759 32.3333 417.042 33.1C416.326 33.8667 415.292 34.25 413.942 34.25ZM413.942 31.75C414.892 31.75 415.367 31.175 415.367 30.025V20.475C415.367 19.325 414.892 18.75 413.942 18.75C412.992 18.75 412.517 19.325 412.517 20.475V30.025C412.517 31.175 412.992 31.75 413.942 31.75ZM419.977 16.5H423.902L425.652 29.025H425.702L427.452 16.5H431.377V34H428.777V20.75H428.727L426.727 34H424.427L422.427 20.75H422.377V34H419.977V16.5Z" fill="white"/>
<rect opacity="0.3" x="149" y="102" width="676" height="51" fill="#CEB7FF"/>
<path opacity="0.2" d="M172.6 136.25C171.267 136.25 170.258 135.875 169.575 135.125C168.892 134.358 168.55 133.267 168.55 131.85V130.85H171.15V132.05C171.15 133.183 171.625 133.75 172.575 133.75C173.042 133.75 173.392 133.617 173.625 133.35C173.875 133.067 174 132.617 174 132C174 131.267 173.833 130.625 173.5 130.075C173.167 129.508 172.55 128.833 171.65 128.05C170.517 127.05 169.725 126.15 169.275 125.35C168.825 124.533 168.6 123.617 168.6 122.6C168.6 121.217 168.95 120.15 169.65 119.4C170.35 118.633 171.367 118.25 172.7 118.25C174.017 118.25 175.008 118.633 175.675 119.4C176.358 120.15 176.7 121.233 176.7 122.65V123.375H174.1V122.475C174.1 121.875 173.983 121.442 173.75 121.175C173.517 120.892 173.175 120.75 172.725 120.75C171.808 120.75 171.35 121.308 171.35 122.425C171.35 123.058 171.517 123.65 171.85 124.2C172.2 124.75 172.825 125.417 173.725 126.2C174.875 127.2 175.667 128.108 176.1 128.925C176.533 129.742 176.75 130.7 176.75 131.8C176.75 133.233 176.392 134.333 175.675 135.1C174.975 135.867 173.95 136.25 172.6 136.25ZM182.302 136.25C180.952 136.25 179.918 135.867 179.202 135.1C178.485 134.333 178.127 133.25 178.127 131.85V122.65C178.127 121.25 178.485 120.167 179.202 119.4C179.918 118.633 180.952 118.25 182.302 118.25C183.652 118.25 184.685 118.633 185.402 119.4C186.118 120.167 186.477 121.25 186.477 122.65V131.85C186.477 133.25 186.118 134.333 185.402 135.1C184.685 135.867 183.652 136.25 182.302 136.25ZM182.302 133.75C183.252 133.75 183.727 133.175 183.727 132.025V122.475C183.727 121.325 183.252 120.75 182.302 120.75C181.352 120.75 180.877 121.325 180.877 122.475V132.025C180.877 133.175 181.352 133.75 182.302 133.75ZM188.337 118.5H192.262L194.012 131.025H194.062L195.812 118.5H199.737V136H197.137V122.75H197.087L195.087 136H192.787L190.787 122.75H190.737V136H188.337V118.5ZM201.789 118.5H209.289V121H204.539V125.625H208.314V128.125H204.539V133.5H209.289V136H201.789V118.5ZM213.021 121H210.146V118.5H218.646V121H215.771V136H213.021V121ZM219.977 118.5H222.727V125.625H225.677V118.5H228.427V136H225.677V128.125H222.727V136H219.977V118.5ZM230.475 118.5H233.225V136H230.475V118.5ZM235.285 118.5H238.735L241.41 128.975H241.46V118.5H243.91V136H241.085L237.785 123.225H237.735V136H235.285V118.5ZM249.854 136.25C248.52 136.25 247.504 135.875 246.804 135.125C246.104 134.358 245.754 133.267 245.754 131.85V122.65C245.754 121.233 246.104 120.15 246.804 119.4C247.504 118.633 248.52 118.25 249.854 118.25C251.187 118.25 252.204 118.633 252.904 119.4C253.604 120.15 253.954 121.233 253.954 122.65V124.15H251.354V122.475C251.354 121.325 250.879 120.75 249.929 120.75C248.979 120.75 248.504 121.325 248.504 122.475V132.05C248.504 133.183 248.979 133.75 249.929 133.75C250.879 133.75 251.354 133.183 251.354 132.05V128.625H249.979V126.125H253.954V131.85C253.954 133.267 253.604 134.358 252.904 135.125C252.204 135.875 251.187 136.25 249.854 136.25ZM263.298 136.25C261.965 136.25 260.957 135.875 260.273 135.125C259.59 134.358 259.248 133.267 259.248 131.85V130.85H261.848V132.05C261.848 133.183 262.323 133.75 263.273 133.75C263.74 133.75 264.09 133.617 264.323 133.35C264.573 133.067 264.698 132.617 264.698 132C264.698 131.267 264.532 130.625 264.198 130.075C263.865 129.508 263.248 128.833 262.348 128.05C261.215 127.05 260.423 126.15 259.973 125.35C259.523 124.533 259.298 123.617 259.298 122.6C259.298 121.217 259.648 120.15 260.348 119.4C261.048 118.633 262.065 118.25 263.398 118.25C264.715 118.25 265.707 118.633 266.373 119.4C267.057 120.15 267.398 121.233 267.398 122.65V123.375H264.798V122.475C264.798 121.875 264.682 121.442 264.448 121.175C264.215 120.892 263.873 120.75 263.423 120.75C262.507 120.75 262.048 121.308 262.048 122.425C262.048 123.058 262.215 123.65 262.548 124.2C262.898 124.75 263.523 125.417 264.423 126.2C265.573 127.2 266.365 128.108 266.798 128.925C267.232 129.742 267.448 130.7 267.448 131.8C267.448 133.233 267.09 134.333 266.373 135.1C265.673 135.867 264.648 136.25 263.298 136.25ZM273 136.25C271.65 136.25 270.617 135.867 269.9 135.1C269.183 134.333 268.825 133.25 268.825 131.85V122.65C268.825 121.25 269.183 120.167 269.9 119.4C270.617 118.633 271.65 118.25 273 118.25C274.35 118.25 275.383 118.633 276.1 119.4C276.817 120.167 277.175 121.25 277.175 122.65V131.85C277.175 133.25 276.817 134.333 276.1 135.1C275.383 135.867 274.35 136.25 273 136.25ZM273 133.75C273.95 133.75 274.425 133.175 274.425 132.025V122.475C274.425 121.325 273.95 120.75 273 120.75C272.05 120.75 271.575 121.325 271.575 122.475V132.025C271.575 133.175 272.05 133.75 273 133.75ZM279.035 118.5H282.96L284.71 131.025H284.76L286.51 118.5H290.435V136H287.835V122.75H287.785L285.785 136H283.485L281.485 122.75H281.435V136H279.035V118.5ZM292.487 118.5H299.987V121H295.237V125.625H299.012V128.125H295.237V133.5H299.987V136H292.487V118.5ZM303.719 121H300.844V118.5H309.344V121H306.469V136H303.719V121ZM310.675 118.5H313.425V125.625H316.375V118.5H319.125V136H316.375V128.125H313.425V136H310.675V118.5ZM321.173 118.5H323.923V136H321.173V118.5ZM325.983 118.5H329.433L332.108 128.975H332.158V118.5H334.608V136H331.783L328.483 123.225H328.433V136H325.983V118.5ZM340.552 136.25C339.219 136.25 338.202 135.875 337.502 135.125C336.802 134.358 336.452 133.267 336.452 131.85V122.65C336.452 121.233 336.802 120.15 337.502 119.4C338.202 118.633 339.219 118.25 340.552 118.25C341.885 118.25 342.902 118.633 343.602 119.4C344.302 120.15 344.652 121.233 344.652 122.65V124.15H342.052V122.475C342.052 121.325 341.577 120.75 340.627 120.75C339.677 120.75 339.202 121.325 339.202 122.475V132.05C339.202 133.183 339.677 133.75 340.627 133.75C341.577 133.75 342.052 133.183 342.052 132.05V128.625H340.677V126.125H344.652V131.85C344.652 133.267 344.302 134.358 343.602 135.125C342.902 135.875 341.885 136.25 340.552 136.25Z" fill="white"/>
<rect opacity="0.3" x="149" y="204" width="676" height="225" fill="#CEB7FF"/>
<path opacity="0.2" d="M172.6 242.779C171.267 242.779 170.258 242.404 169.575 241.654C168.892 240.888 168.55 239.796 168.55 238.379V237.379H171.15V238.579C171.15 239.713 171.625 240.279 172.575 240.279C173.042 240.279 173.392 240.146 173.625 239.879C173.875 239.596 174 239.146 174 238.529C174 237.796 173.833 237.154 173.5 236.604C173.167 236.038 172.55 235.363 171.65 234.579C170.517 233.579 169.725 232.679 169.275 231.879C168.825 231.063 168.6 230.146 168.6 229.129C168.6 227.746 168.95 226.679 169.65 225.929C170.35 225.163 171.367 224.779 172.7 224.779C174.017 224.779 175.008 225.163 175.675 225.929C176.358 226.679 176.7 227.763 176.7 229.179V229.904H174.1V229.004C174.1 228.404 173.983 227.971 173.75 227.704C173.517 227.421 173.175 227.279 172.725 227.279C171.808 227.279 171.35 227.838 171.35 228.954C171.35 229.588 171.517 230.179 171.85 230.729C172.2 231.279 172.825 231.946 173.725 232.729C174.875 233.729 175.667 234.638 176.1 235.454C176.533 236.271 176.75 237.229 176.75 238.329C176.75 239.763 176.392 240.863 175.675 241.629C174.975 242.396 173.95 242.779 172.6 242.779ZM182.302 242.779C180.952 242.779 179.918 242.396 179.202 241.629C178.485 240.863 178.127 239.779 178.127 238.379V229.179C178.127 227.779 178.485 226.696 179.202 225.929C179.918 225.163 180.952 224.779 182.302 224.779C183.652 224.779 184.685 225.163 185.402 225.929C186.118 226.696 186.477 227.779 186.477 229.179V238.379C186.477 239.779 186.118 240.863 185.402 241.629C184.685 242.396 183.652 242.779 182.302 242.779ZM182.302 240.279C183.252 240.279 183.727 239.704 183.727 238.554V229.004C183.727 227.854 183.252 227.279 182.302 227.279C181.352 227.279 180.877 227.854 180.877 229.004V238.554C180.877 239.704 181.352 240.279 182.302 240.279ZM188.337 225.029H192.262L194.012 237.554H194.062L195.812 225.029H199.737V242.529H197.137V229.279H197.087L195.087 242.529H192.787L190.787 229.279H190.737V242.529H188.337V225.029ZM201.789 225.029H209.289V227.529H204.539V232.154H208.314V234.654H204.539V240.029H209.289V242.529H201.789V225.029ZM213.021 227.529H210.146V225.029H218.646V227.529H215.771V242.529H213.021V227.529ZM219.977 225.029H222.727V232.154H225.677V225.029H228.427V242.529H225.677V234.654H222.727V242.529H219.977V225.029ZM230.475 225.029H233.225V242.529H230.475V225.029ZM235.285 225.029H238.735L241.41 235.504H241.46V225.029H243.91V242.529H241.085L237.785 229.754H237.735V242.529H235.285V225.029ZM249.854 242.779C248.52 242.779 247.504 242.404 246.804 241.654C246.104 240.888 245.754 239.796 245.754 238.379V229.179C245.754 227.763 246.104 226.679 246.804 225.929C247.504 225.163 248.52 224.779 249.854 224.779C251.187 224.779 252.204 225.163 252.904 225.929C253.604 226.679 253.954 227.763 253.954 229.179V230.679H251.354V229.004C251.354 227.854 250.879 227.279 249.929 227.279C248.979 227.279 248.504 227.854 248.504 229.004V238.579C248.504 239.713 248.979 240.279 249.929 240.279C250.879 240.279 251.354 239.713 251.354 238.579V235.154H249.979V232.654H253.954V238.379C253.954 239.796 253.604 240.888 252.904 241.654C252.204 242.404 251.187 242.779 249.854 242.779ZM263.298 242.779C261.965 242.779 260.957 242.404 260.273 241.654C259.59 240.888 259.248 239.796 259.248 238.379V237.379H261.848V238.579C261.848 239.713 262.323 240.279 263.273 240.279C263.74 240.279 264.09 240.146 264.323 239.879C264.573 239.596 264.698 239.146 264.698 238.529C264.698 237.796 264.532 237.154 264.198 236.604C263.865 236.038 263.248 235.363 262.348 234.579C261.215 233.579 260.423 232.679 259.973 231.879C259.523 231.063 259.298 230.146 259.298 229.129C259.298 227.746 259.648 226.679 260.348 225.929C261.048 225.163 262.065 224.779 263.398 224.779C264.715 224.779 265.707 225.163 266.373 225.929C267.057 226.679 267.398 227.763 267.398 229.179V229.904H264.798V229.004C264.798 228.404 264.682 227.971 264.448 227.704C264.215 227.421 263.873 227.279 263.423 227.279C262.507 227.279 262.048 227.838 262.048 228.954C262.048 229.588 262.215 230.179 262.548 230.729C262.898 231.279 263.523 231.946 264.423 232.729C265.573 233.729 266.365 234.638 266.798 235.454C267.232 236.271 267.448 237.229 267.448 238.329C267.448 239.763 267.09 240.863 266.373 241.629C265.673 242.396 264.648 242.779 263.298 242.779ZM273 242.779C271.65 242.779 270.617 242.396 269.9 241.629C269.183 240.863 268.825 239.779 268.825 238.379V229.179C268.825 227.779 269.183 226.696 269.9 225.929C270.617 225.163 271.65 224.779 273 224.779C274.35 224.779 275.383 225.163 276.1 225.929C276.817 226.696 277.175 227.779 277.175 229.179V238.379C277.175 239.779 276.817 240.863 276.1 241.629C275.383 242.396 274.35 242.779 273 242.779ZM273 240.279C273.95 240.279 274.425 239.704 274.425 238.554V229.004C274.425 227.854 273.95 227.279 273 227.279C272.05 227.279 271.575 227.854 271.575 229.004V238.554C271.575 239.704 272.05 240.279 273 240.279ZM279.035 225.029H282.96L284.71 237.554H284.76L286.51 225.029H290.435V242.529H287.835V229.279H287.785L285.785 242.529H283.485L281.485 229.279H281.435V242.529H279.035V225.029ZM292.487 225.029H299.987V227.529H295.237V232.154H299.012V234.654H295.237V240.029H299.987V242.529H292.487V225.029ZM303.719 227.529H300.844V225.029H309.344V227.529H306.469V242.529H303.719V227.529ZM310.675 225.029H313.425V232.154H316.375V225.029H319.125V242.529H316.375V234.654H313.425V242.529H310.675V225.029ZM321.173 225.029H323.923V242.529H321.173V225.029ZM325.983 225.029H329.433L332.108 235.504H332.158V225.029H334.608V242.529H331.783L328.483 229.754H328.433V242.529H325.983V225.029ZM340.552 242.779C339.219 242.779 338.202 242.404 337.502 241.654C336.802 240.888 336.452 239.796 336.452 238.379V229.179C336.452 227.763 336.802 226.679 337.502 225.929C338.202 225.163 339.219 224.779 340.552 224.779C341.885 224.779 342.902 225.163 343.602 225.929C344.302 226.679 344.652 227.763 344.652 229.179V230.679H342.052V229.004C342.052 227.854 341.577 227.279 340.627 227.279C339.677 227.279 339.202 227.854 339.202 229.004V238.579C339.202 239.713 339.677 240.279 340.627 240.279C341.577 240.279 342.052 239.713 342.052 238.579V235.154H340.677V232.654H344.652V238.379C344.652 239.796 344.302 240.888 343.602 241.654C342.902 242.404 341.885 242.779 340.552 242.779ZM353.996 242.779C352.663 242.779 351.655 242.404 350.971 241.654C350.288 240.888 349.946 239.796 349.946 238.379V237.379H352.546V238.579C352.546 239.713 353.021 240.279 353.971 240.279C354.438 240.279 354.788 240.146 355.021 239.879C355.271 239.596 355.396 239.146 355.396 238.529C355.396 237.796 355.23 237.154 354.896 236.604C354.563 236.038 353.946 235.363 353.046 234.579C351.913 233.579 351.121 232.679 350.671 231.879C350.221 231.063 349.996 230.146 349.996 229.129C349.996 227.746 350.346 226.679 351.046 225.929C351.746 225.163 352.763 224.779 354.096 224.779C355.413 224.779 356.405 225.163 357.071 225.929C357.755 226.679 358.096 227.763 358.096 229.179V229.904H355.496V229.004C355.496 228.404 355.38 227.971 355.146 227.704C354.913 227.421 354.571 227.279 354.121 227.279C353.205 227.279 352.746 227.838 352.746 228.954C352.746 229.588 352.913 230.179 353.246 230.729C353.596 231.279 354.221 231.946 355.121 232.729C356.271 233.729 357.063 234.638 357.496 235.454C357.93 236.271 358.146 237.229 358.146 238.329C358.146 239.763 357.788 240.863 357.071 241.629C356.371 242.396 355.346 242.779 353.996 242.779ZM363.698 242.779C362.348 242.779 361.315 242.396 360.598 241.629C359.882 240.863 359.523 239.779 359.523 238.379V229.179C359.523 227.779 359.882 226.696 360.598 225.929C361.315 225.163 362.348 224.779 363.698 224.779C365.048 224.779 366.082 225.163 366.798 225.929C367.515 226.696 367.873 227.779 367.873 229.179V238.379C367.873 239.779 367.515 240.863 366.798 241.629C366.082 242.396 365.048 242.779 363.698 242.779ZM363.698 240.279C364.648 240.279 365.123 239.704 365.123 238.554V229.004C365.123 227.854 364.648 227.279 363.698 227.279C362.748 227.279 362.273 227.854 362.273 229.004V238.554C362.273 239.704 362.748 240.279 363.698 240.279ZM369.733 225.029H373.658L375.408 237.554H375.458L377.208 225.029H381.133V242.529H378.533V229.279H378.483L376.483 242.529H374.183L372.183 229.279H372.133V242.529H369.733V225.029ZM383.185 225.029H390.685V227.529H385.935V232.154H389.71V234.654H385.935V240.029H390.685V242.529H383.185V225.029ZM394.417 227.529H391.542V225.029H400.042V227.529H397.167V242.529H394.417V227.529ZM401.374 225.029H404.124V232.154H407.074V225.029H409.824V242.529H407.074V234.654H404.124V242.529H401.374V225.029ZM411.872 225.029H414.622V242.529H411.872V225.029ZM416.681 225.029H420.131L422.806 235.504H422.856V225.029H425.306V242.529H422.481L419.181 229.754H419.131V242.529H416.681V225.029ZM431.25 242.779C429.917 242.779 428.9 242.404 428.2 241.654C427.5 240.888 427.15 239.796 427.15 238.379V229.179C427.15 227.763 427.5 226.679 428.2 225.929C428.9 225.163 429.917 224.779 431.25 224.779C432.584 224.779 433.6 225.163 434.3 225.929C435 226.679 435.35 227.763 435.35 229.179V230.679H432.75V229.004C432.75 227.854 432.275 227.279 431.325 227.279C430.375 227.279 429.9 227.854 429.9 229.004V238.579C429.9 239.713 430.375 240.279 431.325 240.279C432.275 240.279 432.75 239.713 432.75 238.579V235.154H431.375V232.654H435.35V238.379C435.35 239.796 435 240.888 434.3 241.654C433.6 242.404 432.584 242.779 431.25 242.779ZM444.695 242.779C443.361 242.779 442.353 242.404 441.67 241.654C440.986 240.888 440.645 239.796 440.645 238.379V237.379H443.245V238.579C443.245 239.713 443.72 240.279 444.67 240.279C445.136 240.279 445.486 240.146 445.72 239.879C445.97 239.596 446.095 239.146 446.095 238.529C446.095 237.796 445.928 237.154 445.595 236.604C445.261 236.038 444.645 235.363 443.745 234.579C442.611 233.579 441.82 232.679 441.37 231.879C440.92 231.063 440.695 230.146 440.695 229.129C440.695 227.746 441.045 226.679 441.745 225.929C442.445 225.163 443.461 224.779 444.795 224.779C446.111 224.779 447.103 225.163 447.77 225.929C448.453 226.679 448.795 227.763 448.795 229.179V229.904H446.195V229.004C446.195 228.404 446.078 227.971 445.845 227.704C445.611 227.421 445.27 227.279 444.82 227.279C443.903 227.279 443.445 227.838 443.445 228.954C443.445 229.588 443.611 230.179 443.945 230.729C444.295 231.279 444.92 231.946 445.82 232.729C446.97 233.729 447.761 234.638 448.195 235.454C448.628 236.271 448.845 237.229 448.845 238.329C448.845 239.763 448.486 240.863 447.77 241.629C447.07 242.396 446.045 242.779 444.695 242.779ZM454.396 242.779C453.046 242.779 452.013 242.396 451.296 241.629C450.58 240.863 450.221 239.779 450.221 238.379V229.179C450.221 227.779 450.58 226.696 451.296 225.929C452.013 225.163 453.046 224.779 454.396 224.779C455.746 224.779 456.78 225.163 457.496 225.929C458.213 226.696 458.571 227.779 458.571 229.179V238.379C458.571 239.779 458.213 240.863 457.496 241.629C456.78 242.396 455.746 242.779 454.396 242.779ZM454.396 240.279C455.346 240.279 455.821 239.704 455.821 238.554V229.004C455.821 227.854 455.346 227.279 454.396 227.279C453.446 227.279 452.971 227.854 452.971 229.004V238.554C452.971 239.704 453.446 240.279 454.396 240.279ZM460.431 225.029H464.356L466.106 237.554H466.156L467.906 225.029H471.831V242.529H469.231V229.279H469.181L467.181 242.529H464.881L462.881 229.279H462.831V242.529H460.431V225.029ZM473.883 225.029H481.383V227.529H476.633V232.154H480.408V234.654H476.633V240.029H481.383V242.529H473.883V225.029ZM485.115 227.529H482.24V225.029H490.74V227.529H487.865V242.529H485.115V227.529ZM492.072 225.029H494.822V232.154H497.772V225.029H500.522V242.529H497.772V234.654H494.822V242.529H492.072V225.029ZM502.57 225.029H505.32V242.529H502.57V225.029ZM507.379 225.029H510.829L513.504 235.504H513.554V225.029H516.004V242.529H513.179L509.879 229.754H509.829V242.529H507.379V225.029ZM521.948 242.779C520.615 242.779 519.598 242.404 518.898 241.654C518.198 240.888 517.848 239.796 517.848 238.379V229.179C517.848 227.763 518.198 226.679 518.898 225.929C519.598 225.163 520.615 224.779 521.948 224.779C523.282 224.779 524.298 225.163 524.998 225.929C525.698 226.679 526.048 227.763 526.048 229.179V230.679H523.448V229.004C523.448 227.854 522.973 227.279 522.023 227.279C521.073 227.279 520.598 227.854 520.598 229.004V238.579C520.598 239.713 521.073 240.279 522.023 240.279C522.973 240.279 523.448 239.713 523.448 238.579V235.154H522.073V232.654H526.048V238.379C526.048 239.796 525.698 240.888 524.998 241.654C524.298 242.404 523.282 242.779 521.948 242.779ZM535.393 242.779C534.06 242.779 533.051 242.404 532.368 241.654C531.685 240.888 531.343 239.796 531.343 238.379V237.379H533.943V238.579C533.943 239.713 534.418 240.279 535.368 240.279C535.835 240.279 536.185 240.146 536.418 239.879C536.668 239.596 536.793 239.146 536.793 238.529C536.793 237.796 536.626 237.154 536.293 236.604C535.96 236.038 535.343 235.363 534.443 234.579C533.31 233.579 532.518 232.679 532.068 231.879C531.618 231.063 531.393 230.146 531.393 229.129C531.393 227.746 531.743 226.679 532.443 225.929C533.143 225.163 534.16 224.779 535.493 224.779C536.81 224.779 537.801 225.163 538.468 225.929C539.151 226.679 539.493 227.763 539.493 229.179V229.904H536.893V229.004C536.893 228.404 536.776 227.971 536.543 227.704C536.31 227.421 535.968 227.279 535.518 227.279C534.601 227.279 534.143 227.838 534.143 228.954C534.143 229.588 534.31 230.179 534.643 230.729C534.993 231.279 535.618 231.946 536.518 232.729C537.668 233.729 538.46 234.638 538.893 235.454C539.326 236.271 539.543 237.229 539.543 238.329C539.543 239.763 539.185 240.863 538.468 241.629C537.768 242.396 536.743 242.779 535.393 242.779ZM545.095 242.779C543.745 242.779 542.711 242.396 541.995 241.629C541.278 240.863 540.92 239.779 540.92 238.379V229.179C540.92 227.779 541.278 226.696 541.995 225.929C542.711 225.163 543.745 224.779 545.095 224.779C546.445 224.779 547.478 225.163 548.195 225.929C548.911 226.696 549.27 227.779 549.27 229.179V238.379C549.27 239.779 548.911 240.863 548.195 241.629C547.478 242.396 546.445 242.779 545.095 242.779ZM545.095 240.279C546.045 240.279 546.52 239.704 546.52 238.554V229.004C546.52 227.854 546.045 227.279 545.095 227.279C544.145 227.279 543.67 227.854 543.67 229.004V238.554C543.67 239.704 544.145 240.279 545.095 240.279ZM551.129 225.029H555.054L556.804 237.554H556.854L558.604 225.029H562.529V242.529H559.929V229.279H559.879L557.879 242.529H555.579L553.579 229.279H553.529V242.529H551.129V225.029ZM564.582 225.029H572.082V227.529H567.332V232.154H571.107V234.654H567.332V240.029H572.082V242.529H564.582V225.029ZM575.814 227.529H572.939V225.029H581.439V227.529H578.564V242.529H575.814V227.529ZM582.77 225.029H585.52V232.154H588.47V225.029H591.22V242.529H588.47V234.654H585.52V242.529H582.77V225.029ZM593.268 225.029H596.018V242.529H593.268V225.029ZM598.078 225.029H601.528L604.203 235.504H604.253V225.029H606.703V242.529H603.878L600.578 229.754H600.528V242.529H598.078V225.029ZM612.647 242.779C611.313 242.779 610.297 242.404 609.597 241.654C608.897 240.888 608.547 239.796 608.547 238.379V229.179C608.547 227.763 608.897 226.679 609.597 225.929C610.297 225.163 611.313 224.779 612.647 224.779C613.98 224.779 614.997 225.163 615.697 225.929C616.397 226.679 616.747 227.763 616.747 229.179V230.679H614.147V229.004C614.147 227.854 613.672 227.279 612.722 227.279C611.772 227.279 611.297 227.854 611.297 229.004V238.579C611.297 239.713 611.772 240.279 612.722 240.279C613.672 240.279 614.147 239.713 614.147 238.579V235.154H612.772V232.654H616.747V238.379C616.747 239.796 616.397 240.888 615.697 241.654C614.997 242.404 613.98 242.779 612.647 242.779ZM626.091 242.779C624.758 242.779 623.75 242.404 623.066 241.654C622.383 240.888 622.041 239.796 622.041 238.379V237.379H624.641V238.579C624.641 239.713 625.116 240.279 626.066 240.279C626.533 240.279 626.883 240.146 627.116 239.879C627.366 239.596 627.491 239.146 627.491 238.529C627.491 237.796 627.325 237.154 626.991 236.604C626.658 236.038 626.041 235.363 625.141 234.579C624.008 233.579 623.216 232.679 622.766 231.879C622.316 231.063 622.091 230.146 622.091 229.129C622.091 227.746 622.441 226.679 623.141 225.929C623.841 225.163 624.858 224.779 626.191 224.779C627.508 224.779 628.5 225.163 629.166 225.929C629.85 226.679 630.191 227.763 630.191 229.179V229.904H627.591V229.004C627.591 228.404 627.475 227.971 627.241 227.704C627.008 227.421 626.666 227.279 626.216 227.279C625.3 227.279 624.841 227.838 624.841 228.954C624.841 229.588 625.008 230.179 625.341 230.729C625.691 231.279 626.316 231.946 627.216 232.729C628.366 233.729 629.158 234.638 629.591 235.454C630.025 236.271 630.241 237.229 630.241 238.329C630.241 239.763 629.883 240.863 629.166 241.629C628.466 242.396 627.441 242.779 626.091 242.779ZM635.793 242.779C634.443 242.779 633.41 242.396 632.693 241.629C631.976 240.863 631.618 239.779 631.618 238.379V229.179C631.618 227.779 631.976 226.696 632.693 225.929C633.41 225.163 634.443 224.779 635.793 224.779C637.143 224.779 638.176 225.163 638.893 225.929C639.61 226.696 639.968 227.779 639.968 229.179V238.379C639.968 239.779 639.61 240.863 638.893 241.629C638.176 242.396 637.143 242.779 635.793 242.779ZM635.793 240.279C636.743 240.279 637.218 239.704 637.218 238.554V229.004C637.218 227.854 636.743 227.279 635.793 227.279C634.843 227.279 634.368 227.854 634.368 229.004V238.554C634.368 239.704 634.843 240.279 635.793 240.279ZM641.828 225.029H645.753L647.503 237.554H647.553L649.303 225.029H653.228V242.529H650.628V229.279H650.578L648.578 242.529H646.278L644.278 229.279H644.228V242.529H641.828V225.029ZM655.28 225.029H662.78V227.529H658.03V232.154H661.805V234.654H658.03V240.029H662.78V242.529H655.28V225.029ZM666.512 227.529H663.637V225.029H672.137V227.529H669.262V242.529H666.512V227.529ZM673.468 225.029H676.218V232.154H679.168V225.029H681.918V242.529H679.168V234.654H676.218V242.529H673.468V225.029ZM683.966 225.029H686.716V242.529H683.966V225.029ZM688.776 225.029H692.226L694.901 235.504H694.951V225.029H697.401V242.529H694.576L691.276 229.754H691.226V242.529H688.776V225.029ZM703.345 242.779C702.012 242.779 700.995 242.404 700.295 241.654C699.595 240.888 699.245 239.796 699.245 238.379V229.179C699.245 227.763 699.595 226.679 700.295 225.929C700.995 225.163 702.012 224.779 703.345 224.779C704.678 224.779 705.695 225.163 706.395 225.929C707.095 226.679 707.445 227.763 707.445 229.179V230.679H704.845V229.004C704.845 227.854 704.37 227.279 703.42 227.279C702.47 227.279 701.995 227.854 701.995 229.004V238.579C701.995 239.713 702.47 240.279 703.42 240.279C704.37 240.279 704.845 239.713 704.845 238.579V235.154H703.47V232.654H707.445V238.379C707.445 239.796 707.095 240.888 706.395 241.654C705.695 242.404 704.678 242.779 703.345 242.779ZM716.789 242.779C715.456 242.779 714.448 242.404 713.764 241.654C713.081 240.888 712.739 239.796 712.739 238.379V237.379H715.339V238.579C715.339 239.713 715.814 240.279 716.764 240.279C717.231 240.279 717.581 240.146 717.814 239.879C718.064 239.596 718.189 239.146 718.189 238.529C718.189 237.796 718.023 237.154 717.689 236.604C717.356 236.038 716.739 235.363 715.839 234.579C714.706 233.579 713.914 232.679 713.464 231.879C713.014 231.063 712.789 230.146 712.789 229.129C712.789 227.746 713.139 226.679 713.839 225.929C714.539 225.163 715.556 224.779 716.889 224.779C718.206 224.779 719.198 225.163 719.864 225.929C720.548 226.679 720.889 227.763 720.889 229.179V229.904H718.289V229.004C718.289 228.404 718.173 227.971 717.939 227.704C717.706 227.421 717.364 227.279 716.914 227.279C715.998 227.279 715.539 227.838 715.539 228.954C715.539 229.588 715.706 230.179 716.039 230.729C716.389 231.279 717.014 231.946 717.914 232.729C719.064 233.729 719.856 234.638 720.289 235.454C720.723 236.271 720.939 237.229 720.939 238.329C720.939 239.763 720.581 240.863 719.864 241.629C719.164 242.396 718.139 242.779 716.789 242.779ZM726.491 242.779C725.141 242.779 724.108 242.396 723.391 241.629C722.675 240.863 722.316 239.779 722.316 238.379V229.179C722.316 227.779 722.675 226.696 723.391 225.929C724.108 225.163 725.141 224.779 726.491 224.779C727.841 224.779 728.875 225.163 729.591 225.929C730.308 226.696 730.666 227.779 730.666 229.179V238.379C730.666 239.779 730.308 240.863 729.591 241.629C728.875 242.396 727.841 242.779 726.491 242.779ZM726.491 240.279C727.441 240.279 727.916 239.704 727.916 238.554V229.004C727.916 227.854 727.441 227.279 726.491 227.279C725.541 227.279 725.066 227.854 725.066 229.004V238.554C725.066 239.704 725.541 240.279 726.491 240.279ZM732.526 225.029H736.451L738.201 237.554H738.251L740.001 225.029H743.926V242.529H741.326V229.279H741.276L739.276 242.529H736.976L734.976 229.279H734.926V242.529H732.526V225.029ZM745.978 225.029H753.478V227.529H748.728V232.154H752.503V234.654H748.728V240.029H753.478V242.529H745.978V225.029ZM757.21 227.529H754.335V225.029H762.835V227.529H759.96V242.529H757.21V227.529ZM764.167 225.029H766.917V232.154H769.867V225.029H772.617V242.529H769.867V234.654H766.917V242.529H764.167V225.029ZM774.665 225.029H777.415V242.529H774.665V225.029ZM779.474 225.029H782.924L785.599 235.504H785.649V225.029H788.099V242.529H785.274L781.974 229.754H781.924V242.529H779.474V225.029ZM794.043 242.779C792.71 242.779 791.693 242.404 790.993 241.654C790.293 240.888 789.943 239.796 789.943 238.379V229.179C789.943 227.763 790.293 226.679 790.993 225.929C791.693 225.163 792.71 224.779 794.043 224.779C795.376 224.779 796.393 225.163 797.093 225.929C797.793 226.679 798.143 227.763 798.143 229.179V230.679H795.543V229.004C795.543 227.854 795.068 227.279 794.118 227.279C793.168 227.279 792.693 227.854 792.693 229.004V238.579C792.693 239.713 793.168 240.279 794.118 240.279C795.068 240.279 795.543 239.713 795.543 238.579V235.154H794.168V232.654H798.143V238.379C798.143 239.796 797.793 240.888 797.093 241.654C796.393 242.404 795.376 242.779 794.043 242.779ZM172.6 272.779C171.267 272.779 170.258 272.404 169.575 271.654C168.892 270.888 168.55 269.796 168.55 268.379V267.379H171.15V268.579C171.15 269.713 171.625 270.279 172.575 270.279C173.042 270.279 173.392 270.146 173.625 269.879C173.875 269.596 174 269.146 174 268.529C174 267.796 173.833 267.154 173.5 266.604C173.167 266.038 172.55 265.363 171.65 264.579C170.517 263.579 169.725 262.679 169.275 261.879C168.825 261.063 168.6 260.146 168.6 259.129C168.6 257.746 168.95 256.679 169.65 255.929C170.35 255.163 171.367 254.779 172.7 254.779C174.017 254.779 175.008 255.163 175.675 255.929C176.358 256.679 176.7 257.763 176.7 259.179V259.904H174.1V259.004C174.1 258.404 173.983 257.971 173.75 257.704C173.517 257.421 173.175 257.279 172.725 257.279C171.808 257.279 171.35 257.838 171.35 258.954C171.35 259.588 171.517 260.179 171.85 260.729C172.2 261.279 172.825 261.946 173.725 262.729C174.875 263.729 175.667 264.638 176.1 265.454C176.533 266.271 176.75 267.229 176.75 268.329C176.75 269.763 176.392 270.863 175.675 271.629C174.975 272.396 173.95 272.779 172.6 272.779ZM182.302 272.779C180.952 272.779 179.918 272.396 179.202 271.629C178.485 270.863 178.127 269.779 178.127 268.379V259.179C178.127 257.779 178.485 256.696 179.202 255.929C179.918 255.163 180.952 254.779 182.302 254.779C183.652 254.779 184.685 255.163 185.402 255.929C186.118 256.696 186.477 257.779 186.477 259.179V268.379C186.477 269.779 186.118 270.863 185.402 271.629C184.685 272.396 183.652 272.779 182.302 272.779ZM182.302 270.279C183.252 270.279 183.727 269.704 183.727 268.554V259.004C183.727 257.854 183.252 257.279 182.302 257.279C181.352 257.279 180.877 257.854 180.877 259.004V268.554C180.877 269.704 181.352 270.279 182.302 270.279ZM188.337 255.029H192.262L194.012 267.554H194.062L195.812 255.029H199.737V272.529H197.137V259.279H197.087L195.087 272.529H192.787L190.787 259.279H190.737V272.529H188.337V255.029ZM201.789 255.029H209.289V257.529H204.539V262.154H208.314V264.654H204.539V270.029H209.289V272.529H201.789V255.029ZM213.021 257.529H210.146V255.029H218.646V257.529H215.771V272.529H213.021V257.529ZM219.977 255.029H222.727V262.154H225.677V255.029H228.427V272.529H225.677V264.654H222.727V272.529H219.977V255.029ZM230.475 255.029H233.225V272.529H230.475V255.029ZM235.285 255.029H238.735L241.41 265.504H241.46V255.029H243.91V272.529H241.085L237.785 259.754H237.735V272.529H235.285V255.029ZM249.854 272.779C248.52 272.779 247.504 272.404 246.804 271.654C246.104 270.888 245.754 269.796 245.754 268.379V259.179C245.754 257.763 246.104 256.679 246.804 255.929C247.504 255.163 248.52 254.779 249.854 254.779C251.187 254.779 252.204 255.163 252.904 255.929C253.604 256.679 253.954 257.763 253.954 259.179V260.679H251.354V259.004C251.354 257.854 250.879 257.279 249.929 257.279C248.979 257.279 248.504 257.854 248.504 259.004V268.579C248.504 269.713 248.979 270.279 249.929 270.279C250.879 270.279 251.354 269.713 251.354 268.579V265.154H249.979V262.654H253.954V268.379C253.954 269.796 253.604 270.888 252.904 271.654C252.204 272.404 251.187 272.779 249.854 272.779ZM259.294 272.779C257.961 272.779 256.953 272.404 256.269 271.654C255.586 270.888 255.244 269.796 255.244 268.379V267.379H257.844V268.579C257.844 269.713 258.319 270.279 259.269 270.279C259.736 270.279 260.086 270.146 260.319 269.879C260.569 269.596 260.694 269.146 260.694 268.529C260.694 267.796 260.528 267.154 260.194 266.604C259.861 266.038 259.244 265.363 258.344 264.579C257.211 263.579 256.419 262.679 255.969 261.879C255.519 261.063 255.294 260.146 255.294 259.129C255.294 257.746 255.644 256.679 256.344 255.929C257.044 255.163 258.061 254.779 259.394 254.779C260.711 254.779 261.703 255.163 262.369 255.929C263.053 256.679 263.394 257.763 263.394 259.179V259.904H260.794V259.004C260.794 258.404 260.678 257.971 260.444 257.704C260.211 257.421 259.869 257.279 259.419 257.279C258.503 257.279 258.044 257.838 258.044 258.954C258.044 259.588 258.211 260.179 258.544 260.729C258.894 261.279 259.519 261.946 260.419 262.729C261.569 263.729 262.361 264.638 262.794 265.454C263.228 266.271 263.444 267.229 263.444 268.329C263.444 269.763 263.086 270.863 262.369 271.629C261.669 272.396 260.644 272.779 259.294 272.779ZM268.996 272.779C267.646 272.779 266.613 272.396 265.896 271.629C265.179 270.863 264.821 269.779 264.821 268.379V259.179C264.821 257.779 265.179 256.696 265.896 255.929C266.613 255.163 267.646 254.779 268.996 254.779C270.346 254.779 271.379 255.163 272.096 255.929C272.813 256.696 273.171 257.779 273.171 259.179V268.379C273.171 269.779 272.813 270.863 272.096 271.629C271.379 272.396 270.346 272.779 268.996 272.779ZM268.996 270.279C269.946 270.279 270.421 269.704 270.421 268.554V259.004C270.421 257.854 269.946 257.279 268.996 257.279C268.046 257.279 267.571 257.854 267.571 259.004V268.554C267.571 269.704 268.046 270.279 268.996 270.279ZM275.031 255.029H278.956L280.706 267.554H280.756L282.506 255.029H286.431V272.529H283.831V259.279H283.781L281.781 272.529H279.481L277.481 259.279H277.431V272.529H275.031V255.029ZM288.483 255.029H295.983V257.529H291.233V262.154H295.008V264.654H291.233V270.029H295.983V272.529H288.483V255.029ZM299.715 257.529H296.84V255.029H305.34V257.529H302.465V272.529H299.715V257.529ZM306.671 255.029H309.421V262.154H312.371V255.029H315.121V272.529H312.371V264.654H309.421V272.529H306.671V255.029ZM317.17 255.029H319.92V272.529H317.17V255.029ZM321.979 255.029H325.429L328.104 265.504H328.154V255.029H330.604V272.529H327.779L324.479 259.754H324.429V272.529H321.979V255.029ZM336.548 272.779C335.215 272.779 334.198 272.404 333.498 271.654C332.798 270.888 332.448 269.796 332.448 268.379V259.179C332.448 257.763 332.798 256.679 333.498 255.929C334.198 255.163 335.215 254.779 336.548 254.779C337.881 254.779 338.898 255.163 339.598 255.929C340.298 256.679 340.648 257.763 340.648 259.179V260.679H338.048V259.004C338.048 257.854 337.573 257.279 336.623 257.279C335.673 257.279 335.198 257.854 335.198 259.004V268.579C335.198 269.713 335.673 270.279 336.623 270.279C337.573 270.279 338.048 269.713 338.048 268.579V265.154H336.673V262.654H340.648V268.379C340.648 269.796 340.298 270.888 339.598 271.654C338.898 272.404 337.881 272.779 336.548 272.779ZM349.993 272.779C348.659 272.779 347.651 272.404 346.968 271.654C346.284 270.888 345.943 269.796 345.943 268.379V267.379H348.543V268.579C348.543 269.713 349.018 270.279 349.968 270.279C350.434 270.279 350.784 270.146 351.018 269.879C351.268 269.596 351.393 269.146 351.393 268.529C351.393 267.796 351.226 267.154 350.893 266.604C350.559 266.038 349.943 265.363 349.043 264.579C347.909 263.579 347.118 262.679 346.668 261.879C346.218 261.063 345.993 260.146 345.993 259.129C345.993 257.746 346.343 256.679 347.043 255.929C347.743 255.163 348.759 254.779 350.093 254.779C351.409 254.779 352.401 255.163 353.068 255.929C353.751 256.679 354.093 257.763 354.093 259.179V259.904H351.493V259.004C351.493 258.404 351.376 257.971 351.143 257.704C350.909 257.421 350.568 257.279 350.118 257.279C349.201 257.279 348.743 257.838 348.743 258.954C348.743 259.588 348.909 260.179 349.243 260.729C349.593 261.279 350.218 261.946 351.118 262.729C352.268 263.729 353.059 264.638 353.493 265.454C353.926 266.271 354.143 267.229 354.143 268.329C354.143 269.763 353.784 270.863 353.068 271.629C352.368 272.396 351.343 272.779 349.993 272.779ZM359.694 272.779C358.344 272.779 357.311 272.396 356.594 271.629C355.878 270.863 355.519 269.779 355.519 268.379V259.179C355.519 257.779 355.878 256.696 356.594 255.929C357.311 255.163 358.344 254.779 359.694 254.779C361.044 254.779 362.078 255.163 362.794 255.929C363.511 256.696 363.869 257.779 363.869 259.179V268.379C363.869 269.779 363.511 270.863 362.794 271.629C362.078 272.396 361.044 272.779 359.694 272.779ZM359.694 270.279C360.644 270.279 361.119 269.704 361.119 268.554V259.004C361.119 257.854 360.644 257.279 359.694 257.279C358.744 257.279 358.269 257.854 358.269 259.004V268.554C358.269 269.704 358.744 270.279 359.694 270.279ZM365.729 255.029H369.654L371.404 267.554H371.454L373.204 255.029H377.129V272.529H374.529V259.279H374.479L372.479 272.529H370.179L368.179 259.279H368.129V272.529H365.729V255.029ZM379.181 255.029H386.681V257.529H381.931V262.154H385.706V264.654H381.931V270.029H386.681V272.529H379.181V255.029ZM390.413 257.529H387.538V255.029H396.038V257.529H393.163V272.529H390.413V257.529ZM397.37 255.029H400.12V262.154H403.07V255.029H405.82V272.529H403.07V264.654H400.12V272.529H397.37V255.029ZM407.868 255.029H410.618V272.529H407.868V255.029ZM412.677 255.029H416.127L418.802 265.504H418.852V255.029H421.302V272.529H418.477L415.177 259.754H415.127V272.529H412.677V255.029ZM427.246 272.779C425.913 272.779 424.896 272.404 424.196 271.654C423.496 270.888 423.146 269.796 423.146 268.379V259.179C423.146 257.763 423.496 256.679 424.196 255.929C424.896 255.163 425.913 254.779 427.246 254.779C428.58 254.779 429.596 255.163 430.296 255.929C430.996 256.679 431.346 257.763 431.346 259.179V260.679H428.746V259.004C428.746 257.854 428.271 257.279 427.321 257.279C426.371 257.279 425.896 257.854 425.896 259.004V268.579C425.896 269.713 426.371 270.279 427.321 270.279C428.271 270.279 428.746 269.713 428.746 268.579V265.154H427.371V262.654H431.346V268.379C431.346 269.796 430.996 270.888 430.296 271.654C429.596 272.404 428.58 272.779 427.246 272.779ZM436.687 272.779C435.354 272.779 434.345 272.404 433.662 271.654C432.979 270.888 432.637 269.796 432.637 268.379V267.379H435.237V268.579C435.237 269.713 435.712 270.279 436.662 270.279C437.129 270.279 437.479 270.146 437.712 269.879C437.962 269.596 438.087 269.146 438.087 268.529C438.087 267.796 437.92 267.154 437.587 266.604C437.254 266.038 436.637 265.363 435.737 264.579C434.604 263.579 433.812 262.679 433.362 261.879C432.912 261.063 432.687 260.146 432.687 259.129C432.687 257.746 433.037 256.679 433.737 255.929C434.437 255.163 435.454 254.779 436.787 254.779C438.104 254.779 439.095 255.163 439.762 255.929C440.445 256.679 440.787 257.763 440.787 259.179V259.904H438.187V259.004C438.187 258.404 438.07 257.971 437.837 257.704C437.604 257.421 437.262 257.279 436.812 257.279C435.895 257.279 435.437 257.838 435.437 258.954C435.437 259.588 435.604 260.179 435.937 260.729C436.287 261.279 436.912 261.946 437.812 262.729C438.962 263.729 439.754 264.638 440.187 265.454C440.62 266.271 440.837 267.229 440.837 268.329C440.837 269.763 440.479 270.863 439.762 271.629C439.062 272.396 438.037 272.779 436.687 272.779ZM446.389 272.779C445.039 272.779 444.005 272.396 443.289 271.629C442.572 270.863 442.214 269.779 442.214 268.379V259.179C442.214 257.779 442.572 256.696 443.289 255.929C444.005 255.163 445.039 254.779 446.389 254.779C447.739 254.779 448.772 255.163 449.489 255.929C450.205 256.696 450.564 257.779 450.564 259.179V268.379C450.564 269.779 450.205 270.863 449.489 271.629C448.772 272.396 447.739 272.779 446.389 272.779ZM446.389 270.279C447.339 270.279 447.814 269.704 447.814 268.554V259.004C447.814 257.854 447.339 257.279 446.389 257.279C445.439 257.279 444.964 257.854 444.964 259.004V268.554C444.964 269.704 445.439 270.279 446.389 270.279ZM452.423 255.029H456.348L458.098 267.554H458.148L459.898 255.029H463.823V272.529H461.223V259.279H461.173L459.173 272.529H456.873L454.873 259.279H454.823V272.529H452.423V255.029ZM465.876 255.029H473.376V257.529H468.626V262.154H472.401V264.654H468.626V270.029H473.376V272.529H465.876V255.029ZM477.108 257.529H474.233V255.029H482.733V257.529H479.858V272.529H477.108V257.529ZM484.064 255.029H486.814V262.154H489.764V255.029H492.514V272.529H489.764V264.654H486.814V272.529H484.064V255.029ZM494.562 255.029H497.312V272.529H494.562V255.029ZM499.372 255.029H502.822L505.497 265.504H505.547V255.029H507.997V272.529H505.172L501.872 259.754H501.822V272.529H499.372V255.029ZM513.941 272.779C512.607 272.779 511.591 272.404 510.891 271.654C510.191 270.888 509.841 269.796 509.841 268.379V259.179C509.841 257.763 510.191 256.679 510.891 255.929C511.591 255.163 512.607 254.779 513.941 254.779C515.274 254.779 516.291 255.163 516.991 255.929C517.691 256.679 518.041 257.763 518.041 259.179V260.679H515.441V259.004C515.441 257.854 514.966 257.279 514.016 257.279C513.066 257.279 512.591 257.854 512.591 259.004V268.579C512.591 269.713 513.066 270.279 514.016 270.279C514.966 270.279 515.441 269.713 515.441 268.579V265.154H514.066V262.654H518.041V268.379C518.041 269.796 517.691 270.888 516.991 271.654C516.291 272.404 515.274 272.779 513.941 272.779ZM527.385 272.779C526.052 272.779 525.043 272.404 524.36 271.654C523.677 270.888 523.335 269.796 523.335 268.379V267.379H525.935V268.579C525.935 269.713 526.41 270.279 527.36 270.279C527.827 270.279 528.177 270.146 528.41 269.879C528.66 269.596 528.785 269.146 528.785 268.529C528.785 267.796 528.618 267.154 528.285 266.604C527.952 266.038 527.335 265.363 526.435 264.579C525.302 263.579 524.51 262.679 524.06 261.879C523.61 261.063 523.385 260.146 523.385 259.129C523.385 257.746 523.735 256.679 524.435 255.929C525.135 255.163 526.152 254.779 527.485 254.779C528.802 254.779 529.793 255.163 530.46 255.929C531.143 256.679 531.485 257.763 531.485 259.179V259.904H528.885V259.004C528.885 258.404 528.768 257.971 528.535 257.704C528.302 257.421 527.96 257.279 527.51 257.279C526.593 257.279 526.135 257.838 526.135 258.954C526.135 259.588 526.302 260.179 526.635 260.729C526.985 261.279 527.61 261.946 528.51 262.729C529.66 263.729 530.452 264.638 530.885 265.454C531.318 266.271 531.535 267.229 531.535 268.329C531.535 269.763 531.177 270.863 530.46 271.629C529.76 272.396 528.735 272.779 527.385 272.779ZM537.087 272.779C535.737 272.779 534.704 272.396 533.987 271.629C533.27 270.863 532.912 269.779 532.912 268.379V259.179C532.912 257.779 533.27 256.696 533.987 255.929C534.704 255.163 535.737 254.779 537.087 254.779C538.437 254.779 539.47 255.163 540.187 255.929C540.904 256.696 541.262 257.779 541.262 259.179V268.379C541.262 269.779 540.904 270.863 540.187 271.629C539.47 272.396 538.437 272.779 537.087 272.779ZM537.087 270.279C538.037 270.279 538.512 269.704 538.512 268.554V259.004C538.512 257.854 538.037 257.279 537.087 257.279C536.137 257.279 535.662 257.854 535.662 259.004V268.554C535.662 269.704 536.137 270.279 537.087 270.279ZM543.122 255.029H547.047L548.797 267.554H548.847L550.597 255.029H554.522V272.529H551.922V259.279H551.872L549.872 272.529H547.572L545.572 259.279H545.522V272.529H543.122V255.029ZM556.574 255.029H564.074V257.529H559.324V262.154H563.099V264.654H559.324V270.029H564.074V272.529H556.574V255.029ZM567.806 257.529H564.931V255.029H573.431V257.529H570.556V272.529H567.806V257.529ZM574.762 255.029H577.512V262.154H580.462V255.029H583.212V272.529H580.462V264.654H577.512V272.529H574.762V255.029ZM585.26 255.029H588.01V272.529H585.26V255.029ZM590.07 255.029H593.52L596.195 265.504H596.245V255.029H598.695V272.529H595.87L592.57 259.754H592.52V272.529H590.07V255.029ZM604.639 272.779C603.306 272.779 602.289 272.404 601.589 271.654C600.889 270.888 600.539 269.796 600.539 268.379V259.179C600.539 257.763 600.889 256.679 601.589 255.929C602.289 255.163 603.306 254.779 604.639 254.779C605.972 254.779 606.989 255.163 607.689 255.929C608.389 256.679 608.739 257.763 608.739 259.179V260.679H606.139V259.004C606.139 257.854 605.664 257.279 604.714 257.279C603.764 257.279 603.289 257.854 603.289 259.004V268.579C603.289 269.713 603.764 270.279 604.714 270.279C605.664 270.279 606.139 269.713 606.139 268.579V265.154H604.764V262.654H608.739V268.379C608.739 269.796 608.389 270.888 607.689 271.654C606.989 272.404 605.972 272.779 604.639 272.779Z" fill="white"/>
</svg>
