<svg width="234" height="53" viewBox="0 0 234 53" fill="none" xmlns="http://www.w3.org/2000/svg">
<g filter="url(#filter0_d_9_293)">
<path d="M6.253 6.4V5.4H5.253V6.4H6.253ZM12.633 6.4H13.633V5.4H12.633V6.4ZM12.633 47V48H13.633V47H12.633ZM6.253 47H5.253V48H6.253V47ZM6.253 6.4V7.4H12.633V6.4V5.4H6.253V6.4ZM12.633 6.4H11.633V47H12.633H13.633V6.4H12.633ZM12.633 47V46H6.253V47V48H12.633V47ZM6.253 47H7.253V6.4H6.253H5.253V47H6.253ZM37.4303 6.4V5.4H36.5799L36.4433 6.23926L37.4303 6.4ZM46.0723 6.4L47.0593 6.23926L46.9226 5.4H46.0723V6.4ZM52.6843 47V48H53.8603L53.6713 46.8393L52.6843 47ZM46.3043 47L45.3145 47.1424L45.4379 48H46.3043V47ZM45.1443 38.938L46.1341 38.7956L44.1443 38.938H45.1443ZM45.1443 39.054V40.054H46.1443V39.054H45.1443ZM37.8943 39.054V38.054H37.0297L36.9048 38.9095L37.8943 39.054ZM36.7343 47V48H37.5989L37.7238 47.1445L36.7343 47ZM30.8183 47L29.8313 46.8393L29.6422 48H30.8183V47ZM44.3903 33.544V34.544H45.5419L45.3804 33.4038L44.3903 33.544ZM41.5483 13.476L42.5384 13.3358L42.4166 12.476H41.5483V13.476ZM41.4323 13.476V12.476H40.5614L40.4418 13.3386L41.4323 13.476ZM38.6483 33.544L37.6578 33.4066L37.5 34.544H38.6483V33.544ZM37.4303 6.4V7.4H46.0723V6.4V5.4H37.4303V6.4ZM46.0723 6.4L45.0853 6.56074L51.6973 47.1607L52.6843 47L53.6713 46.8393L47.0593 6.23926L46.0723 6.4ZM52.6843 47V46H46.3043V47V48H52.6843V47ZM46.3043 47L47.2941 46.8576L46.1341 38.7956L45.1443 38.938L44.1545 39.0804L45.3145 47.1424L46.3043 47ZM45.1443 38.938H44.1443V39.054H45.1443H46.1443V38.938H45.1443ZM45.1443 39.054V38.054H37.8943V39.054V40.054H45.1443V39.054ZM37.8943 39.054L36.9048 38.9095L35.7448 46.8555L36.7343 47L37.7238 47.1445L38.8838 39.1985L37.8943 39.054ZM36.7343 47V46H30.8183V47V48H36.7343V47ZM30.8183 47L31.8053 47.1607L38.4173 6.56074L37.4303 6.4L36.4433 6.23926L29.8313 46.8393L30.8183 47ZM44.3903 33.544L45.3804 33.4038L42.5384 13.3358L41.5483 13.476L40.5581 13.6162L43.4001 33.6842L44.3903 33.544ZM41.5483 13.476V12.476H41.4323V13.476V14.476H41.5483V13.476ZM41.4323 13.476L40.4418 13.3386L37.6578 33.4066L38.6483 33.544L39.6388 33.6814L42.4228 13.6134L41.4323 13.476ZM38.6483 33.544V34.544H44.3903V33.544V32.544H38.6483V33.544ZM58.6796 6.4V5.4H57.6796V6.4H58.6796ZM67.7856 6.4L68.7759 6.26162L68.6556 5.4H67.7856V6.4ZM71.8456 35.458L70.8552 35.5964L70.9756 36.458H71.8456V35.458ZM71.9616 35.458V36.458H72.8316L72.9519 35.5964L71.9616 35.458ZM76.0216 6.4V5.4H75.1516L75.0312 6.26162L76.0216 6.4ZM85.1276 6.4H86.1276V5.4H85.1276V6.4ZM85.1276 47V48H86.1276V47H85.1276ZM79.0956 47H78.0956V48H79.0956V47ZM79.0956 16.26H80.0956V15.26H79.0956V16.26ZM78.9796 16.26V15.26H78.1192L77.9908 16.1107L78.9796 16.26ZM74.3396 47V48H75.1999L75.3284 47.1493L74.3396 47ZM69.0036 47L68.0148 47.1493L68.1432 48H69.0036V47ZM64.3636 16.26L65.3524 16.1107L65.2239 15.26H64.3636V16.26ZM64.2476 16.26V15.26H63.2476V16.26H64.2476ZM64.2476 47V48H65.2476V47H64.2476ZM58.6796 47H57.6796V48H58.6796V47ZM58.6796 6.4V7.4H67.7856V6.4V5.4H58.6796V6.4ZM67.7856 6.4L66.7952 6.53837L70.8552 35.5964L71.8456 35.458L72.8359 35.3196L68.7759 6.26162L67.7856 6.4ZM71.8456 35.458V36.458H71.9616V35.458V34.458H71.8456V35.458ZM71.9616 35.458L72.9519 35.5964L77.0119 6.53837L76.0216 6.4L75.0312 6.26162L70.9712 35.3196L71.9616 35.458ZM76.0216 6.4V7.4H85.1276V6.4V5.4H76.0216V6.4ZM85.1276 6.4H84.1276V47H85.1276H86.1276V6.4H85.1276ZM85.1276 47V46H79.0956V47V48H85.1276V47ZM79.0956 47H80.0956V16.26H79.0956H78.0956V47H79.0956ZM79.0956 16.26V15.26H78.9796V16.26V17.26H79.0956V16.26ZM78.9796 16.26L77.9908 16.1107L73.3508 46.8507L74.3396 47L75.3284 47.1493L79.9684 16.4093L78.9796 16.26ZM74.3396 47V46H69.0036V47V48H74.3396V47ZM69.0036 47L69.9924 46.8507L65.3524 16.1107L64.3636 16.26L63.3748 16.4093L68.0148 47.1493L69.0036 47ZM64.3636 16.26V15.26H64.2476V16.26V17.26H64.3636V16.26ZM64.2476 16.26H63.2476V47H64.2476H65.2476V16.26H64.2476ZM64.2476 47V46H58.6796V47V48H64.2476V47ZM58.6796 47H59.6796V6.4H58.6796H57.6796V47H58.6796ZM104.978 6.4V5.4H103.978V6.4H104.978ZM121.856 8.952L121.124 9.63372L121.124 9.63372L121.856 8.952ZM121.856 44.448L121.124 43.7663L121.856 44.448ZM104.978 47H103.978V48H104.978V47ZM116.984 40.272L116.254 39.5881L116.242 39.6006L116.231 39.6135L116.984 40.272ZM116.984 13.128L116.231 13.7865L116.242 13.7994L116.254 13.8119L116.984 13.128ZM111.358 12.2V11.2H110.358V12.2H111.358ZM111.358 41.2H110.358V42.2H111.358V41.2ZM104.978 6.4V7.4H114.722V6.4V5.4H104.978V6.4ZM114.722 6.4V7.4C117.719 7.4 119.789 8.20094 121.124 9.63372L121.856 8.952L122.587 8.27027C120.752 6.30039 118.065 5.4 114.722 5.4V6.4ZM121.856 8.952L121.124 9.63372C122.477 11.0855 123.234 13.2957 123.234 16.434H124.234H125.234C125.234 12.999 124.405 10.2212 122.587 8.27027L121.856 8.952ZM124.234 16.434H123.234V36.966H124.234H125.234V16.434H124.234ZM124.234 36.966H123.234C123.234 40.1043 122.477 42.3145 121.124 43.7663L121.856 44.448L122.587 45.1297C124.405 43.1788 125.234 40.401 125.234 36.966H124.234ZM121.856 44.448L121.124 43.7663C119.789 45.1991 117.719 46 114.722 46V47V48C118.065 48 120.752 47.0996 122.587 45.1297L121.856 44.448ZM114.722 47V46H104.978V47V48H114.722V47ZM104.978 47H105.978V6.4H104.978H103.978V47H104.978ZM114.606 41.2V42.2C115.854 42.2 116.956 41.822 117.736 40.9305L116.984 40.272L116.231 39.6135C115.928 39.9593 115.445 40.2 114.606 40.2V41.2ZM116.984 40.272L117.713 40.9559C118.549 40.0641 118.854 38.7484 118.854 37.256H117.854H116.854C116.854 38.5476 116.578 39.2426 116.254 39.5881L116.984 40.272ZM117.854 37.256H118.854V16.144H117.854H116.854V37.256H117.854ZM117.854 16.144H118.854C118.854 14.6516 118.549 13.3359 117.713 12.4441L116.984 13.128L116.254 13.8119C116.578 14.1574 116.854 14.8524 116.854 16.144H117.854ZM116.984 13.128L117.736 12.4695C116.956 11.578 115.854 11.2 114.606 11.2V12.2V13.2C115.445 13.2 115.928 13.4407 116.231 13.7865L116.984 13.128ZM114.606 12.2V11.2H111.358V12.2V13.2H114.606V12.2ZM111.358 12.2H110.358V41.2H111.358H112.358V12.2H111.358ZM111.358 41.2V42.2H114.606V41.2V40.2H111.358V41.2ZM131.44 6.4V5.4H130.44V6.4H131.44ZM148.84 6.4H149.84V5.4H148.84V6.4ZM148.84 12.2V13.2H149.84V12.2H148.84ZM137.82 12.2V11.2H136.82V12.2H137.82ZM137.82 22.93H136.82V23.93H137.82V22.93ZM146.578 22.93H147.578V21.93H146.578V22.93ZM146.578 28.73V29.73H147.578V28.73H146.578ZM137.82 28.73V27.73H136.82V28.73H137.82ZM137.82 41.2H136.82V42.2H137.82V41.2ZM148.84 41.2H149.84V40.2H148.84V41.2ZM148.84 47V48H149.84V47H148.84ZM131.44 47H130.44V48H131.44V47ZM131.44 6.4V7.4H148.84V6.4V5.4H131.44V6.4ZM148.84 6.4H147.84V12.2H148.84H149.84V6.4H148.84ZM148.84 12.2V11.2H137.82V12.2V13.2H148.84V12.2ZM137.82 12.2H136.82V22.93H137.82H138.82V12.2H137.82ZM137.82 22.93V23.93H146.578V22.93V21.93H137.82V22.93ZM146.578 22.93H145.578V28.73H146.578H147.578V22.93H146.578ZM146.578 28.73V27.73H137.82V28.73V29.73H146.578V28.73ZM137.82 28.73H136.82V41.2H137.82H138.82V28.73H137.82ZM137.82 41.2V42.2H148.84V41.2V40.2H137.82V41.2ZM148.84 41.2H147.84V47H148.84H149.84V41.2H148.84ZM148.84 47V46H131.44V47V48H148.84V47ZM131.44 47H132.44V6.4H131.44H130.44V47H131.44ZM155.41 6.4V5.4H154.41V6.4H155.41ZM172.056 8.72L171.34 9.41815L171.349 9.42711L172.056 8.72ZM170.142 26.236L169.769 25.3084L169.142 25.5607V26.236H170.142ZM170.142 26.352H169.142V27.096L169.855 27.3098L170.142 26.352ZM173.39 29.194L172.473 29.5909L172.477 29.6013L172.482 29.6115L173.39 29.194ZM174.492 44.912L173.498 45.0167L173.499 45.0224L174.492 44.912ZM175.072 47V48H176.611L175.986 46.5939L175.072 47ZM168.576 47L167.633 47.3328L167.869 48H168.576V47ZM167.068 30.702L166.284 31.3216L166.293 31.334L166.304 31.3461L167.068 30.702ZM161.79 29.6V28.6H160.79V29.6H161.79ZM161.79 47V48H162.79V47H161.79ZM155.41 47H154.41V48H155.41V47ZM166.952 22.814L166.245 22.1069L166.235 22.1176L166.224 22.1286L166.952 22.814ZM167.126 13.186L166.332 13.7934L166.343 13.8078L166.354 13.8217L167.126 13.186ZM161.79 12.2V11.2H160.79V12.2H161.79ZM161.79 23.8H160.79V24.8H161.79V23.8ZM155.41 6.4V7.4H164.864V6.4V5.4H155.41V6.4ZM164.864 6.4V7.4C168.02 7.4 170.099 8.14519 171.34 9.4181L172.056 8.72L172.772 8.0219C170.998 6.20147 168.282 5.4 164.864 5.4V6.4ZM172.056 8.72L171.349 9.42711C172.595 10.6732 173.318 12.7045 173.318 15.738H174.318H175.318C175.318 12.4301 174.533 9.78284 172.764 8.01289L172.056 8.72ZM174.318 15.738H173.318V18.232H174.318H175.318V15.738H174.318ZM174.318 18.232H173.318C173.318 20.2391 172.986 21.7858 172.388 22.9314C171.802 24.0549 170.939 24.837 169.769 25.3084L170.142 26.236L170.516 27.1636C172.13 26.5137 173.355 25.4011 174.161 23.8566C174.955 22.3342 175.318 20.4396 175.318 18.232H174.318ZM170.142 26.236H169.142V26.352H170.142H171.142V26.236H170.142ZM170.142 26.352L169.855 27.3098C171.131 27.6925 171.976 28.4421 172.473 29.5909L173.39 29.194L174.308 28.7971C173.568 27.0846 172.247 25.9395 170.43 25.3942L170.142 26.352ZM173.39 29.194L172.482 29.6115C173.056 30.8609 173.376 32.6146 173.376 34.936H174.376H175.376C175.376 32.4627 175.04 30.3885 174.299 28.7765L173.39 29.194ZM174.376 34.936H173.376V42.07H174.376H175.376V34.936H174.376ZM174.376 42.07H173.376C173.376 43.2477 173.415 44.2335 173.498 45.0167L174.492 44.912L175.487 44.8073C175.415 44.1212 175.376 43.2123 175.376 42.07H174.376ZM174.492 44.912L173.499 45.0224C173.588 45.8291 173.811 46.6245 174.159 47.4061L175.072 47L175.986 46.5939C175.715 45.9835 175.551 45.3869 175.486 44.8016L174.492 44.912ZM175.072 47V46H168.576V47V48H175.072V47ZM168.576 47L169.519 46.6672C169.306 46.0629 169.17 45.512 169.104 45.0118L168.112 45.144L167.121 45.2762C167.209 45.936 167.383 46.6224 167.633 47.3328L168.576 47ZM168.112 45.144L169.104 45.0118C169.036 44.5059 168.996 43.5235 168.996 42.012H167.996H166.996C166.996 43.5165 167.034 44.6221 167.121 45.2762L168.112 45.144ZM167.996 42.012H168.996V34.588H167.996H166.996V42.012H167.996ZM167.996 34.588H168.996C168.996 32.6858 168.693 31.0781 167.833 30.0579L167.068 30.702L166.304 31.3461C166.682 31.7952 166.996 32.7782 166.996 34.588H167.996ZM167.068 30.702L167.853 30.0824C166.996 28.997 165.594 28.6 163.994 28.6V29.6V30.6C165.333 30.6 165.98 30.9377 166.284 31.3216L167.068 30.702ZM163.994 29.6V28.6H161.79V29.6V30.6H163.994V29.6ZM161.79 29.6H160.79V47H161.79H162.79V29.6H161.79ZM161.79 47V46H155.41V47V48H161.79V47ZM155.41 47H156.41V6.4H155.41H154.41V47H155.41ZM164.11 23.8V24.8C165.546 24.8 166.806 24.4289 167.681 23.4994L166.952 22.814L166.224 22.1286C165.862 22.5138 165.227 22.8 164.11 22.8V23.8ZM166.952 22.814L167.66 23.5211C168.596 22.5845 168.938 21.1533 168.938 19.508H167.938H166.938C166.938 20.956 166.623 21.7289 166.245 22.1069L166.952 22.814ZM167.938 19.508H168.938V16.376H167.938H166.938V19.508H167.938ZM167.938 16.376H168.938C168.938 14.8273 168.661 13.4768 167.898 12.5503L167.126 13.186L166.354 13.8217C166.674 14.2098 166.938 14.9861 166.938 16.376H167.938ZM167.126 13.186L167.921 12.5785C167.167 11.5926 166.004 11.2 164.69 11.2V12.2V13.2C165.619 13.2 166.081 13.4647 166.332 13.7934L167.126 13.186ZM164.69 12.2V11.2H161.79V12.2V13.2H164.69V12.2ZM161.79 12.2H160.79V23.8H161.79H162.79V12.2H161.79ZM161.79 23.8V24.8H164.11V23.8V22.8H161.79V23.8ZM181.703 6.4V5.4H180.703V6.4H181.703ZM199.103 6.4H200.103V5.4H199.103V6.4ZM199.103 12.2V13.2H200.103V12.2H199.103ZM188.083 12.2V11.2H187.083V12.2H188.083ZM188.083 22.93H187.083V23.93H188.083V22.93ZM196.841 22.93H197.841V21.93H196.841V22.93ZM196.841 28.73V29.73H197.841V28.73H196.841ZM188.083 28.73V27.73H187.083V28.73H188.083ZM188.083 41.2H187.083V42.2H188.083V41.2ZM199.103 41.2H200.103V40.2H199.103V41.2ZM199.103 47V48H200.103V47H199.103ZM181.703 47H180.703V48H181.703V47ZM181.703 6.4V7.4H199.103V6.4V5.4H181.703V6.4ZM199.103 6.4H198.103V12.2H199.103H200.103V6.4H199.103ZM199.103 12.2V11.2H188.083V12.2V13.2H199.103V12.2ZM188.083 12.2H187.083V22.93H188.083H189.083V12.2H188.083ZM188.083 22.93V23.93H196.841V22.93V21.93H188.083V22.93ZM196.841 22.93H195.841V28.73H196.841H197.841V22.93H196.841ZM196.841 28.73V27.73H188.083V28.73V29.73H196.841V28.73ZM188.083 28.73H187.083V41.2H188.083H189.083V28.73H188.083ZM188.083 41.2V42.2H199.103V41.2V40.2H188.083V41.2ZM199.103 41.2H198.103V47H199.103H200.103V41.2H199.103ZM199.103 47V46H181.703V47V48H199.103V47ZM181.703 47H182.703V6.4H181.703H180.703V47H181.703ZM205.673 6.4V5.4H204.673V6.4H205.673ZM212.053 6.4H213.053V5.4H212.053V6.4ZM212.053 23.51H211.053L212.957 23.9387L212.053 23.51ZM220.173 6.4V5.4H219.541L219.27 5.97125L220.173 6.4ZM226.553 6.4L227.444 6.85413L228.185 5.4H226.553V6.4ZM218.955 21.306L218.064 20.8519L217.882 21.2093L217.998 21.5935L218.955 21.306ZM226.669 47V48H228.014L227.627 46.7125L226.669 47ZM219.999 47L219.041 47.2857L219.254 48H219.999V47ZM214.605 28.904L215.564 28.6183L214.837 26.1796L213.709 28.4608L214.605 28.904ZM212.053 34.066L211.157 33.6228L211.053 33.8323V34.066H212.053ZM212.053 47V48H213.053V47H212.053ZM205.673 47H204.673V48H205.673V47ZM205.673 6.4V7.4H212.053V6.4V5.4H205.673V6.4ZM212.053 6.4H211.053V23.51H212.053H213.053V6.4H212.053ZM212.053 23.51L212.957 23.9387L221.077 6.82874L220.173 6.4L219.27 5.97125L211.15 23.0813L212.053 23.51ZM220.173 6.4V7.4H226.553V6.4V5.4H220.173V6.4ZM226.553 6.4L225.662 5.94586L218.064 20.8519L218.955 21.306L219.846 21.7601L227.444 6.85413L226.553 6.4ZM218.955 21.306L217.998 21.5935L225.712 47.2875L226.669 47L227.627 46.7125L219.913 21.0185L218.955 21.306ZM226.669 47V46H219.999V47V48H226.669V47ZM219.999 47L220.958 46.7143L215.564 28.6183L214.605 28.904L213.647 29.1897L219.041 47.2857L219.999 47ZM214.605 28.904L213.709 28.4608L211.157 33.6228L212.053 34.066L212.95 34.5092L215.502 29.3472L214.605 28.904ZM212.053 34.066H211.053V47H212.053H213.053V34.066H212.053ZM212.053 47V46H205.673V47V48H212.053V47ZM205.673 47H206.673V6.4H205.673H204.673V47H205.673Z" fill="#CEB7FF"/>
</g>
<defs>
<filter id="filter0_d_9_293" x="0.252998" y="0.399994" width="232.932" height="52.6" filterUnits="userSpaceOnUse" color-interpolation-filters="sRGB">
<feFlood flood-opacity="0" result="BackgroundImageFix"/>
<feColorMatrix in="SourceAlpha" type="matrix" values="0 0 0 0 0 0 0 0 0 0 0 0 0 0 0 0 0 0 127 0" result="hardAlpha"/>
<feOffset/>
<feGaussianBlur stdDeviation="2.5"/>
<feComposite in2="hardAlpha" operator="out"/>
<feColorMatrix type="matrix" values="0 0 0 0 0.701961 0 0 0 0 0.466667 0 0 0 0 1 0 0 0 1 0"/>
<feBlend mode="normal" in2="BackgroundImageFix" result="effect1_dropShadow_9_293"/>
<feBlend mode="normal" in="SourceGraphic" in2="effect1_dropShadow_9_293" result="shape"/>
</filter>
</defs>
</svg>
