<svg width="462" height="53" viewBox="0 0 462 53" fill="none" xmlns="http://www.w3.org/2000/svg">
<g filter="url(#filter0_d_21_4049)">
<path d="M4.96584 5.3H14.8478C18.1825 5.3 20.6835 6.19466 22.3508 7.984C24.0182 9.77333 24.8518 12.3963 24.8518 15.853V20.062C24.8518 23.5187 24.0182 26.1417 22.3508 27.931C20.6835 29.7203 18.1825 30.615 14.8478 30.615H11.6758V48H4.96584V5.3ZM14.8478 24.515C15.9458 24.515 16.7592 24.21 17.2878 23.6C17.8572 22.99 18.1418 21.953 18.1418 20.489V15.426C18.1418 13.962 17.8572 12.925 17.2878 12.315C16.7592 11.705 15.9458 11.4 14.8478 11.4H11.6758V24.515H14.8478ZM28.4961 5.3H38.4391C41.8958 5.3 44.4171 6.11333 46.0031 7.74C47.5891 9.326 48.3821 11.7863 48.3821 15.121V17.744C48.3821 22.1767 46.9181 24.9827 43.9901 26.162V26.284C45.6168 26.772 46.7555 27.7683 47.4061 29.273C48.0975 30.7777 48.4431 32.7907 48.4431 35.312V42.815C48.4431 44.035 48.4838 45.0313 48.5651 45.804C48.6465 46.536 48.8498 47.268 49.1751 48H42.3431C42.0991 47.3087 41.9365 46.658 41.8551 46.048C41.7738 45.438 41.7331 44.34 41.7331 42.754V34.946C41.7331 32.994 41.4078 31.6317 40.7571 30.859C40.1471 30.0863 39.0695 29.7 37.5241 29.7H35.2061V48H28.4961V5.3ZM37.6461 23.6C38.9881 23.6 39.9845 23.2543 40.6351 22.563C41.3265 21.8717 41.6721 20.7127 41.6721 19.086V15.792C41.6721 14.2467 41.3875 13.1283 40.8181 12.437C40.2895 11.7457 39.4355 11.4 38.2561 11.4H35.2061V23.6H37.6461ZM62.7977 48.61C59.5037 48.61 56.9823 47.6747 55.2337 45.804C53.485 43.9333 52.6107 41.29 52.6107 37.874V15.426C52.6107 12.01 53.485 9.36666 55.2337 7.496C56.9823 5.62533 59.5037 4.69 62.7977 4.69C66.0917 4.69 68.613 5.62533 70.3617 7.496C72.1103 9.36666 72.9847 12.01 72.9847 15.426V37.874C72.9847 41.29 72.1103 43.9333 70.3617 45.804C68.613 47.6747 66.0917 48.61 62.7977 48.61ZM62.7977 42.51C65.1157 42.51 66.2747 41.107 66.2747 38.301V14.999C66.2747 12.193 65.1157 10.79 62.7977 10.79C60.4797 10.79 59.3207 12.193 59.3207 14.999V38.301C59.3207 41.107 60.4797 42.51 62.7977 42.51ZM78.8702 48.244C77.6502 48.244 76.6132 48.1627 75.7592 48V41.9C76.4099 42.0627 77.1419 42.144 77.9552 42.144C79.2972 42.144 80.2935 41.8187 80.9442 41.168C81.5949 40.4767 81.9202 39.4397 81.9202 38.057V5.3H88.6302V37.874C88.6302 41.3713 87.8169 43.974 86.1902 45.682C84.6042 47.39 82.1642 48.244 78.8702 48.244ZM93.4278 5.3H111.728V11.4H100.138V22.685H109.349V28.785H100.138V41.9H111.728V48H93.4278V5.3ZM125.043 48.61C121.83 48.61 119.37 47.695 117.662 45.865C115.995 44.035 115.161 41.4527 115.161 38.118V15.182C115.161 11.8473 115.995 9.265 117.662 7.435C119.37 5.605 121.83 4.69 125.043 4.69C128.256 4.69 130.696 5.605 132.363 7.435C134.071 9.265 134.925 11.8473 134.925 15.182V19.696H128.581V14.755C128.581 12.1117 127.463 10.79 125.226 10.79C122.989 10.79 121.871 12.1117 121.871 14.755V38.606C121.871 41.2087 122.989 42.51 125.226 42.51C127.463 42.51 128.581 41.2087 128.581 38.606V32.079H134.925V38.118C134.925 41.4527 134.071 44.035 132.363 45.865C130.696 47.695 128.256 48.61 125.043 48.61ZM144.185 11.4H137.17V5.3H157.91V11.4H150.895V48H144.185V11.4ZM161.037 43.364C161.037 40.314 161.525 37.7113 162.501 35.556C163.477 33.36 165.226 30.9403 167.747 28.297C170.228 25.6537 171.936 23.3967 172.871 21.526C173.847 19.6553 174.335 17.7033 174.335 15.67C174.335 13.84 174.03 12.5793 173.42 11.888C172.851 11.156 171.997 10.79 170.858 10.79C168.54 10.79 167.381 12.193 167.381 14.999V19.574H161.037V15.426C161.037 11.9693 161.891 9.326 163.599 7.496C165.307 5.62533 167.788 4.69 171.041 4.69C174.295 4.69 176.775 5.62533 178.483 7.496C180.191 9.326 181.045 11.9693 181.045 15.426C181.045 18.0287 180.415 20.5703 179.154 23.051C177.934 25.5317 175.799 28.3783 172.749 31.591C170.757 33.7057 169.415 35.434 168.723 36.776C168.032 38.0773 167.686 39.4803 167.686 40.985V41.9H180.435V48H161.037V43.364ZM195.353 18.293H201.819V24.759H195.353V18.293ZM195.353 41.534H201.819V48H195.353V41.534ZM216.619 5.3H234.919V11.4H223.329V22.685H232.54V28.785H223.329V41.9H234.919V48H216.619V5.3ZM237.803 23.6H251.223V29.7H237.803V23.6ZM264.676 48.61C261.463 48.61 259.003 47.695 257.295 45.865C255.627 44.035 254.794 41.4527 254.794 38.118V15.182C254.794 11.8473 255.627 9.265 257.295 7.435C259.003 5.605 261.463 4.69 264.676 4.69C267.888 4.69 270.328 5.605 271.996 7.435C273.704 9.265 274.558 11.8473 274.558 15.182V19.696H268.214V14.755C268.214 12.1117 267.095 10.79 264.859 10.79C262.622 10.79 261.504 12.1117 261.504 14.755V38.606C261.504 41.2087 262.622 42.51 264.859 42.51C267.095 42.51 268.214 41.2087 268.214 38.606V32.079H274.558V38.118C274.558 41.4527 273.704 44.035 271.996 45.865C270.328 47.695 267.888 48.61 264.676 48.61ZM288.39 48.61C285.096 48.61 282.575 47.6747 280.826 45.804C279.078 43.9333 278.203 41.29 278.203 37.874V15.426C278.203 12.01 279.078 9.36666 280.826 7.496C282.575 5.62533 285.096 4.69 288.39 4.69C291.684 4.69 294.206 5.62533 295.954 7.496C297.703 9.36666 298.577 12.01 298.577 15.426V37.874C298.577 41.29 297.703 43.9333 295.954 45.804C294.206 47.6747 291.684 48.61 288.39 48.61ZM288.39 42.51C290.708 42.51 291.867 41.107 291.867 38.301V14.999C291.867 12.193 290.708 10.79 288.39 10.79C286.072 10.79 284.913 12.193 284.913 14.999V38.301C284.913 41.107 286.072 42.51 288.39 42.51ZM303.115 5.3H312.692L316.962 35.861H317.084L321.354 5.3H330.931V48H324.587V15.67H324.465L319.585 48H313.973L309.093 15.67H308.971V48H303.115V5.3ZM335.939 5.3H345.516L349.786 35.861H349.908L354.178 5.3H363.755V48H357.411V15.67H357.289L352.409 48H346.797L341.917 15.67H341.795V48H335.939V5.3ZM368.762 5.3H387.062V11.4H375.472V22.685H384.683V28.785H375.472V41.9H387.062V48H368.762V5.3ZM390.922 5.3H400.865C404.322 5.3 406.843 6.11333 408.429 7.74C410.015 9.326 410.808 11.7863 410.808 15.121V17.744C410.808 22.1767 409.344 24.9827 406.416 26.162V26.284C408.043 26.772 409.181 27.7683 409.832 29.273C410.523 30.7777 410.869 32.7907 410.869 35.312V42.815C410.869 44.035 410.91 45.0313 410.991 45.804C411.072 46.536 411.276 47.268 411.601 48H404.769C404.525 47.3087 404.362 46.658 404.281 46.048C404.2 45.438 404.159 44.34 404.159 42.754V34.946C404.159 32.994 403.834 31.6317 403.183 30.859C402.573 30.0863 401.495 29.7 399.95 29.7H397.632V48H390.922V5.3ZM400.072 23.6C401.414 23.6 402.41 23.2543 403.061 22.563C403.752 21.8717 404.098 20.7127 404.098 19.086V15.792C404.098 14.2467 403.813 13.1283 403.244 12.437C402.715 11.7457 401.861 11.4 400.682 11.4H397.632V23.6H400.072ZM424.979 48.61C421.767 48.61 419.306 47.695 417.598 45.865C415.931 44.035 415.097 41.4527 415.097 38.118V15.182C415.097 11.8473 415.931 9.265 417.598 7.435C419.306 5.605 421.767 4.69 424.979 4.69C428.192 4.69 430.632 5.605 432.299 7.435C434.007 9.265 434.861 11.8473 434.861 15.182V19.696H428.517V14.755C428.517 12.1117 427.399 10.79 425.162 10.79C422.926 10.79 421.807 12.1117 421.807 14.755V38.606C421.807 41.2087 422.926 42.51 425.162 42.51C427.399 42.51 428.517 41.2087 428.517 38.606V32.079H434.861V38.118C434.861 41.4527 434.007 44.035 432.299 45.865C430.632 47.695 428.192 48.61 424.979 48.61ZM438.876 5.3H457.176V11.4H445.586V22.685H454.797V28.785H445.586V41.9H457.176V48H438.876V5.3Z" fill="white"/>
</g>
<defs>
<filter id="filter0_d_21_4049" x="0.96582" y="0.689941" width="460.21" height="51.9202" filterUnits="userSpaceOnUse" color-interpolation-filters="sRGB">
<feFlood flood-opacity="0" result="BackgroundImageFix"/>
<feColorMatrix in="SourceAlpha" type="matrix" values="0 0 0 0 0 0 0 0 0 0 0 0 0 0 0 0 0 0 127 0" result="hardAlpha"/>
<feOffset/>
<feGaussianBlur stdDeviation="2"/>
<feComposite in2="hardAlpha" operator="out"/>
<feColorMatrix type="matrix" values="0 0 0 0 0.701961 0 0 0 0 0.466667 0 0 0 0 1 0 0 0 1 0"/>
<feBlend mode="normal" in2="BackgroundImageFix" result="effect1_dropShadow_21_4049"/>
<feBlend mode="normal" in="SourceGraphic" in2="effect1_dropShadow_21_4049" result="shape"/>
</filter>
</defs>
</svg>
