<svg width="559" height="53" viewBox="0 0 559 53" fill="none" xmlns="http://www.w3.org/2000/svg">
<g filter="url(#filter0_d_21_4045)">
<path d="M4.85647 5.3H14.7385C18.0731 5.3 20.5741 6.19466 22.2415 7.984C23.9088 9.77333 24.7425 12.3963 24.7425 15.853V20.062C24.7425 23.5187 23.9088 26.1417 22.2415 27.931C20.5741 29.7203 18.0731 30.615 14.7385 30.615H11.5665V48H4.85647V5.3ZM14.7385 24.515C15.8365 24.515 16.6498 24.21 17.1785 23.6C17.7478 22.99 18.0325 21.953 18.0325 20.489V15.426C18.0325 13.962 17.7478 12.925 17.1785 12.315C16.6498 11.705 15.8365 11.4 14.7385 11.4H11.5665V24.515H14.7385ZM28.3867 5.3H38.3297C41.7864 5.3 44.3077 6.11333 45.8937 7.74C47.4797 9.326 48.2727 11.7863 48.2727 15.121V17.744C48.2727 22.1767 46.8087 24.9827 43.8807 26.162V26.284C45.5074 26.772 46.6461 27.7683 47.2967 29.273C47.9881 30.7777 48.3337 32.7907 48.3337 35.312V42.815C48.3337 44.035 48.3744 45.0313 48.4557 45.804C48.5371 46.536 48.7404 47.268 49.0657 48H42.2337C41.9897 47.3087 41.8271 46.658 41.7457 46.048C41.6644 45.438 41.6237 44.34 41.6237 42.754V34.946C41.6237 32.994 41.2984 31.6317 40.6477 30.859C40.0377 30.0863 38.9601 29.7 37.4147 29.7H35.0967V48H28.3867V5.3ZM37.5367 23.6C38.8787 23.6 39.8751 23.2543 40.5257 22.563C41.2171 21.8717 41.5627 20.7127 41.5627 19.086V15.792C41.5627 14.2467 41.2781 13.1283 40.7087 12.437C40.1801 11.7457 39.3261 11.4 38.1467 11.4H35.0967V23.6H37.5367ZM62.6883 48.61C59.3943 48.61 56.8729 47.6747 55.1243 45.804C53.3756 43.9333 52.5013 41.29 52.5013 37.874V15.426C52.5013 12.01 53.3756 9.36666 55.1243 7.496C56.8729 5.62533 59.3943 4.69 62.6883 4.69C65.9823 4.69 68.5036 5.62533 70.2523 7.496C72.0009 9.36666 72.8753 12.01 72.8753 15.426V37.874C72.8753 41.29 72.0009 43.9333 70.2523 45.804C68.5036 47.6747 65.9823 48.61 62.6883 48.61ZM62.6883 42.51C65.0063 42.51 66.1653 41.107 66.1653 38.301V14.999C66.1653 12.193 65.0063 10.79 62.6883 10.79C60.3703 10.79 59.2113 12.193 59.2113 14.999V38.301C59.2113 41.107 60.3703 42.51 62.6883 42.51ZM78.7608 48.244C77.5408 48.244 76.5038 48.1627 75.6498 48V41.9C76.3005 42.0627 77.0325 42.144 77.8458 42.144C79.1878 42.144 80.1842 41.8187 80.8348 41.168C81.4855 40.4767 81.8108 39.4397 81.8108 38.057V5.3H88.5208V37.874C88.5208 41.3713 87.7075 43.974 86.0808 45.682C84.4948 47.39 82.0548 48.244 78.7608 48.244ZM93.3184 5.3H111.618V11.4H100.028V22.685H109.239V28.785H100.028V41.9H111.618V48H93.3184V5.3ZM124.934 48.61C121.721 48.61 119.261 47.695 117.553 45.865C115.885 44.035 115.052 41.4527 115.052 38.118V15.182C115.052 11.8473 115.885 9.265 117.553 7.435C119.261 5.605 121.721 4.69 124.934 4.69C128.146 4.69 130.586 5.605 132.254 7.435C133.962 9.265 134.816 11.8473 134.816 15.182V19.696H128.472V14.755C128.472 12.1117 127.353 10.79 125.117 10.79C122.88 10.79 121.762 12.1117 121.762 14.755V38.606C121.762 41.2087 122.88 42.51 125.117 42.51C127.353 42.51 128.472 41.2087 128.472 38.606V32.079H134.816V38.118C134.816 41.4527 133.962 44.035 132.254 45.865C130.586 47.695 128.146 48.61 124.934 48.61ZM144.076 11.4H137.061V5.3H157.801V11.4H150.786V48H144.076V11.4ZM170.871 48.61C167.617 48.61 165.137 47.695 163.429 45.865C161.721 43.9943 160.867 41.3307 160.867 37.874V34.519H167.211V38.362C167.211 41.1273 168.37 42.51 170.688 42.51C173.006 42.51 174.165 41.1273 174.165 38.362V28.785C174.165 25.979 173.006 24.576 170.688 24.576C168.37 24.576 167.211 25.979 167.211 28.785V29.151H160.867L162.087 5.3H179.777V11.4H168.065L167.516 21.587H167.638C168.898 19.513 170.83 18.476 173.433 18.476C175.873 18.476 177.723 19.3097 178.984 20.977C180.244 22.6443 180.875 25.064 180.875 28.236V37.874C180.875 41.3307 180.021 43.9943 178.313 45.865C176.605 47.695 174.124 48.61 170.871 48.61ZM195.243 18.293H201.709V24.759H195.243V18.293ZM195.243 41.534H201.709V48H195.243V41.534ZM216.51 5.3H223.22V41.9H234.261V48H216.51V5.3ZM237.479 5.3H244.189V48H237.479V5.3ZM257.937 48.61C254.684 48.61 252.223 47.695 250.556 45.865C248.889 43.9943 248.055 41.3307 248.055 37.874V35.434H254.399V38.362C254.399 41.1273 255.558 42.51 257.876 42.51C259.015 42.51 259.869 42.1847 260.438 41.534C261.048 40.8427 261.353 39.7447 261.353 38.24C261.353 36.4507 260.946 34.885 260.133 33.543C259.32 32.1603 257.815 30.5133 255.619 28.602C252.854 26.162 250.922 23.966 249.824 22.014C248.726 20.0213 248.177 17.7847 248.177 15.304C248.177 11.9287 249.031 9.326 250.739 7.496C252.447 5.62533 254.928 4.69 258.181 4.69C261.394 4.69 263.813 5.62533 265.44 7.496C267.107 9.326 267.941 11.9693 267.941 15.426V17.195H261.597V14.999C261.597 13.535 261.312 12.4777 260.743 11.827C260.174 11.1357 259.34 10.79 258.242 10.79C256.005 10.79 254.887 12.1523 254.887 14.877C254.887 16.4223 255.294 17.866 256.107 19.208C256.961 20.55 258.486 22.1767 260.682 24.088C263.488 26.528 265.42 28.7443 266.477 30.737C267.534 32.7297 268.063 35.068 268.063 37.752C268.063 41.2493 267.189 43.9333 265.44 45.804C263.732 47.6747 261.231 48.61 257.937 48.61ZM277.156 11.4H270.141V5.3H290.881V11.4H283.866V48H277.156V11.4ZM296.515 5.3H305.604L312.558 48H305.848L304.628 39.521V39.643H297.003L295.783 48H289.561L296.515 5.3ZM303.835 33.848L300.846 12.742H300.724L297.796 33.848H303.835ZM325.583 5.3H335.831C339.166 5.3 341.667 6.19466 343.334 7.984C345.001 9.77333 345.835 12.3963 345.835 15.853V37.447C345.835 40.9037 345.001 43.5267 343.334 45.316C341.667 47.1053 339.166 48 335.831 48H325.583V5.3ZM335.709 41.9C336.807 41.9 337.641 41.5747 338.21 40.924C338.82 40.2733 339.125 39.216 339.125 37.752V15.548C339.125 14.084 338.82 13.0267 338.21 12.376C337.641 11.7253 336.807 11.4 335.709 11.4H332.293V41.9H335.709ZM350.364 5.3H368.664V11.4H357.074V22.685H366.285V28.785H357.074V41.9H368.664V48H350.364V5.3ZM391.749 48.61C388.536 48.61 386.076 47.695 384.368 45.865C382.701 44.035 381.867 41.4527 381.867 38.118V15.182C381.867 11.8473 382.701 9.265 384.368 7.435C386.076 5.605 388.536 4.69 391.749 4.69C394.962 4.69 397.402 5.605 399.069 7.435C400.777 9.265 401.631 11.8473 401.631 15.182V19.696H395.287V14.755C395.287 12.1117 394.169 10.79 391.932 10.79C389.695 10.79 388.577 12.1117 388.577 14.755V38.606C388.577 41.2087 389.695 42.51 391.932 42.51C394.169 42.51 395.287 41.2087 395.287 38.606V32.079H401.631V38.118C401.631 41.4527 400.777 44.035 399.069 45.865C397.402 47.695 394.962 48.61 391.749 48.61ZM415.464 48.61C412.17 48.61 409.648 47.6747 407.9 45.804C406.151 43.9333 405.277 41.29 405.277 37.874V15.426C405.277 12.01 406.151 9.36666 407.9 7.496C409.648 5.62533 412.17 4.69 415.464 4.69C418.758 4.69 421.279 5.62533 423.028 7.496C424.776 9.36666 425.651 12.01 425.651 15.426V37.874C425.651 41.29 424.776 43.9333 423.028 45.804C421.279 47.6747 418.758 48.61 415.464 48.61ZM415.464 42.51C417.782 42.51 418.941 41.107 418.941 38.301V14.999C418.941 12.193 417.782 10.79 415.464 10.79C413.146 10.79 411.987 12.193 411.987 14.999V38.301C411.987 41.107 413.146 42.51 415.464 42.51ZM430.189 5.3H439.766L444.036 35.861H444.158L448.428 5.3H458.005V48H451.661V15.67H451.539L446.659 48H441.047L436.167 15.67H436.045V48H430.189V5.3ZM463.012 5.3H472.894C476.228 5.3 478.729 6.19466 480.397 7.984C482.064 9.77333 482.898 12.3963 482.898 15.853V20.062C482.898 23.5187 482.064 26.1417 480.397 27.931C478.729 29.7203 476.228 30.615 472.894 30.615H469.722V48H463.012V5.3ZM472.894 24.515C473.992 24.515 474.805 24.21 475.334 23.6C475.903 22.99 476.188 21.953 476.188 20.489V15.426C476.188 13.962 475.903 12.925 475.334 12.315C474.805 11.705 473.992 11.4 472.894 11.4H469.722V24.515H472.894ZM486.542 5.3H496.485C499.942 5.3 502.463 6.11333 504.049 7.74C505.635 9.326 506.428 11.7863 506.428 15.121V17.744C506.428 22.1767 504.964 24.9827 502.036 26.162V26.284C503.663 26.772 504.801 27.7683 505.452 29.273C506.143 30.7777 506.489 32.7907 506.489 35.312V42.815C506.489 44.035 506.53 45.0313 506.611 45.804C506.692 46.536 506.896 47.268 507.221 48H500.389C500.145 47.3087 499.982 46.658 499.901 46.048C499.82 45.438 499.779 44.34 499.779 42.754V34.946C499.779 32.994 499.454 31.6317 498.803 30.859C498.193 30.0863 497.115 29.7 495.57 29.7H493.252V48H486.542V5.3ZM495.692 23.6C497.034 23.6 498.03 23.2543 498.681 22.563C499.372 21.8717 499.718 20.7127 499.718 19.086V15.792C499.718 14.2467 499.433 13.1283 498.864 12.437C498.335 11.7457 497.481 11.4 496.302 11.4H493.252V23.6H495.692ZM516.33 5.3H525.419L532.373 48H525.663L524.443 39.521V39.643H516.818L515.598 48H509.376L516.33 5.3ZM523.65 33.848L520.661 12.742H520.539L517.611 33.848H523.65ZM544.172 48.61C540.919 48.61 538.459 47.695 536.791 45.865C535.124 43.9943 534.29 41.3307 534.29 37.874V35.434H540.634V38.362C540.634 41.1273 541.793 42.51 544.111 42.51C545.25 42.51 546.104 42.1847 546.673 41.534C547.283 40.8427 547.588 39.7447 547.588 38.24C547.588 36.4507 547.182 34.885 546.368 33.543C545.555 32.1603 544.05 30.5133 541.854 28.602C539.089 26.162 537.157 23.966 536.059 22.014C534.961 20.0213 534.412 17.7847 534.412 15.304C534.412 11.9287 535.266 9.326 536.974 7.496C538.682 5.62533 541.163 4.69 544.416 4.69C547.629 4.69 550.049 5.62533 551.675 7.496C553.343 9.326 554.176 11.9693 554.176 15.426V17.195H547.832V14.999C547.832 13.535 547.548 12.4777 546.978 11.827C546.409 11.1357 545.575 10.79 544.477 10.79C542.241 10.79 541.122 12.1523 541.122 14.877C541.122 16.4223 541.529 17.866 542.342 19.208C543.196 20.55 544.721 22.1767 546.917 24.088C549.723 26.528 551.655 28.7443 552.712 30.737C553.77 32.7297 554.298 35.068 554.298 37.752C554.298 41.2493 553.424 43.9333 551.675 45.804C549.967 47.6747 547.466 48.61 544.172 48.61Z" fill="white"/>
</g>
<defs>
<filter id="filter0_d_21_4045" x="0.856476" y="0.689941" width="557.442" height="51.9202" filterUnits="userSpaceOnUse" color-interpolation-filters="sRGB">
<feFlood flood-opacity="0" result="BackgroundImageFix"/>
<feColorMatrix in="SourceAlpha" type="matrix" values="0 0 0 0 0 0 0 0 0 0 0 0 0 0 0 0 0 0 127 0" result="hardAlpha"/>
<feOffset/>
<feGaussianBlur stdDeviation="2"/>
<feComposite in2="hardAlpha" operator="out"/>
<feColorMatrix type="matrix" values="0 0 0 0 0.701961 0 0 0 0 0.466667 0 0 0 0 1 0 0 0 1 0"/>
<feBlend mode="normal" in2="BackgroundImageFix" result="effect1_dropShadow_21_4045"/>
<feBlend mode="normal" in="SourceGraphic" in2="effect1_dropShadow_21_4045" result="shape"/>
</filter>
</defs>
</svg>
