<svg width="391" height="53" viewBox="0 0 391 53" fill="none" xmlns="http://www.w3.org/2000/svg">
<g filter="url(#filter0_d_21_4046)">
<path d="M4.73782 5.3H14.6198C17.9545 5.3 20.4555 6.19466 22.1228 7.984C23.7902 9.77333 24.6238 12.3963 24.6238 15.853V20.062C24.6238 23.5187 23.7902 26.1417 22.1228 27.931C20.4555 29.7203 17.9545 30.615 14.6198 30.615H11.4478V48H4.73782V5.3ZM14.6198 24.515C15.7178 24.515 16.5312 24.21 17.0598 23.6C17.6292 22.99 17.9138 21.953 17.9138 20.489V15.426C17.9138 13.962 17.6292 12.925 17.0598 12.315C16.5312 11.705 15.7178 11.4 14.6198 11.4H11.4478V24.515H14.6198ZM28.2681 5.3H38.2111C41.6678 5.3 44.1891 6.11333 45.7751 7.74C47.3611 9.326 48.1541 11.7863 48.1541 15.121V17.744C48.1541 22.1767 46.6901 24.9827 43.7621 26.162V26.284C45.3888 26.772 46.5274 27.7683 47.1781 29.273C47.8694 30.7777 48.2151 32.7907 48.2151 35.312V42.815C48.2151 44.035 48.2558 45.0313 48.3371 45.804C48.4184 46.536 48.6218 47.268 48.9471 48H42.1151C41.8711 47.3087 41.7084 46.658 41.6271 46.048C41.5458 45.438 41.5051 44.34 41.5051 42.754V34.946C41.5051 32.994 41.1798 31.6317 40.5291 30.859C39.9191 30.0863 38.8414 29.7 37.2961 29.7H34.9781V48H28.2681V5.3ZM37.4181 23.6C38.7601 23.6 39.7564 23.2543 40.4071 22.563C41.0984 21.8717 41.4441 20.7127 41.4441 19.086V15.792C41.4441 14.2467 41.1594 13.1283 40.5901 12.437C40.0614 11.7457 39.2074 11.4 38.0281 11.4H34.9781V23.6H37.4181ZM62.5696 48.61C59.2756 48.61 56.7543 47.6747 55.0056 45.804C53.257 43.9333 52.3826 41.29 52.3826 37.874V15.426C52.3826 12.01 53.257 9.36666 55.0056 7.496C56.7543 5.62533 59.2756 4.69 62.5696 4.69C65.8636 4.69 68.385 5.62533 70.1336 7.496C71.8823 9.36666 72.7566 12.01 72.7566 15.426V37.874C72.7566 41.29 71.8823 43.9333 70.1336 45.804C68.385 47.6747 65.8636 48.61 62.5696 48.61ZM62.5696 42.51C64.8876 42.51 66.0466 41.107 66.0466 38.301V14.999C66.0466 12.193 64.8876 10.79 62.5696 10.79C60.2516 10.79 59.0926 12.193 59.0926 14.999V38.301C59.0926 41.107 60.2516 42.51 62.5696 42.51ZM78.6422 48.244C77.4222 48.244 76.3852 48.1627 75.5312 48V41.9C76.1818 42.0627 76.9138 42.144 77.7272 42.144C79.0692 42.144 80.0655 41.8187 80.7162 41.168C81.3668 40.4767 81.6922 39.4397 81.6922 38.057V5.3H88.4022V37.874C88.4022 41.3713 87.5888 43.974 85.9622 45.682C84.3762 47.39 81.9362 48.244 78.6422 48.244ZM93.1997 5.3H111.5V11.4H99.9097V22.685H109.121V28.785H99.9097V41.9H111.5V48H93.1997V5.3ZM124.815 48.61C121.602 48.61 119.142 47.695 117.434 45.865C115.767 44.035 114.933 41.4527 114.933 38.118V15.182C114.933 11.8473 115.767 9.265 117.434 7.435C119.142 5.605 121.602 4.69 124.815 4.69C128.028 4.69 130.468 5.605 132.135 7.435C133.843 9.265 134.697 11.8473 134.697 15.182V19.696H128.353V14.755C128.353 12.1117 127.235 10.79 124.998 10.79C122.761 10.79 121.643 12.1117 121.643 14.755V38.606C121.643 41.2087 122.761 42.51 124.998 42.51C127.235 42.51 128.353 41.2087 128.353 38.606V32.079H134.697V38.118C134.697 41.4527 133.843 44.035 132.135 45.865C130.468 47.695 128.028 48.61 124.815 48.61ZM143.957 11.4H136.942V5.3H157.682V11.4H150.667V48H143.957V11.4ZM170.325 15.426H163.31V10.668C165.222 10.668 166.747 10.5053 167.885 10.18C169.065 9.85467 170 9.326 170.691 8.594C171.383 7.82133 171.993 6.72333 172.521 5.3H177.035V48H170.325V15.426ZM195.125 18.293H201.591V24.759H195.125V18.293ZM195.125 41.534H201.591V48H195.125V41.534ZM216.391 5.3H223.101V22.685H230.299V5.3H237.009V48H230.299V28.785H223.101V48H216.391V5.3ZM251.705 48.61C248.411 48.61 245.89 47.6747 244.141 45.804C242.393 43.9333 241.518 41.29 241.518 37.874V15.426C241.518 12.01 242.393 9.36666 244.141 7.496C245.89 5.62533 248.411 4.69 251.705 4.69C254.999 4.69 257.521 5.62533 259.269 7.496C261.018 9.36666 261.892 12.01 261.892 15.426V37.874C261.892 41.29 261.018 43.9333 259.269 45.804C257.521 47.6747 254.999 48.61 251.705 48.61ZM251.705 42.51C254.023 42.51 255.182 41.107 255.182 38.301V14.999C255.182 12.193 254.023 10.79 251.705 10.79C249.387 10.79 248.228 12.193 248.228 14.999V38.301C248.228 41.107 249.387 42.51 251.705 42.51ZM275.153 48.61C271.9 48.61 269.44 47.695 267.772 45.865C266.105 43.9943 265.271 41.3307 265.271 37.874V35.434H271.615V38.362C271.615 41.1273 272.774 42.51 275.092 42.51C276.231 42.51 277.085 42.1847 277.654 41.534C278.264 40.8427 278.569 39.7447 278.569 38.24C278.569 36.4507 278.163 34.885 277.349 33.543C276.536 32.1603 275.031 30.5133 272.835 28.602C270.07 26.162 268.138 23.966 267.04 22.014C265.942 20.0213 265.393 17.7847 265.393 15.304C265.393 11.9287 266.247 9.326 267.955 7.496C269.663 5.62533 272.144 4.69 275.397 4.69C278.61 4.69 281.03 5.62533 282.656 7.496C284.324 9.326 285.157 11.9693 285.157 15.426V17.195H278.813V14.999C278.813 13.535 278.529 12.4777 277.959 11.827C277.39 11.1357 276.556 10.79 275.458 10.79C273.222 10.79 272.103 12.1523 272.103 14.877C272.103 16.4223 272.51 17.866 273.323 19.208C274.177 20.55 275.702 22.1767 277.898 24.088C280.704 26.528 282.636 28.7443 283.693 30.737C284.751 32.7297 285.279 35.068 285.279 37.752C285.279 41.2493 284.405 43.9333 282.656 45.804C280.948 47.6747 278.447 48.61 275.153 48.61ZM289.126 5.3H299.008C302.343 5.3 304.844 6.19466 306.511 7.984C308.179 9.77333 309.012 12.3963 309.012 15.853V20.062C309.012 23.5187 308.179 26.1417 306.511 27.931C304.844 29.7203 302.343 30.615 299.008 30.615H295.836V48H289.126V5.3ZM299.008 24.515C300.106 24.515 300.92 24.21 301.448 23.6C302.018 22.99 302.302 21.953 302.302 20.489V15.426C302.302 13.962 302.018 12.925 301.448 12.315C300.92 11.705 300.106 11.4 299.008 11.4H295.836V24.515H299.008ZM312.657 5.3H319.367V48H312.657V5.3ZM329.638 11.4H322.623V5.3H343.363V11.4H336.348V48H329.638V11.4ZM348.997 5.3H358.086L365.04 48H358.33L357.11 39.521V39.643H349.485L348.265 48H342.043L348.997 5.3ZM356.317 33.848L353.328 12.742H353.206L350.278 33.848H356.317ZM368.295 5.3H375.005V41.9H386.046V48H368.295V5.3Z" fill="white"/>
</g>
<defs>
<filter id="filter0_d_21_4046" x="0.737816" y="0.689941" width="389.309" height="51.9202" filterUnits="userSpaceOnUse" color-interpolation-filters="sRGB">
<feFlood flood-opacity="0" result="BackgroundImageFix"/>
<feColorMatrix in="SourceAlpha" type="matrix" values="0 0 0 0 0 0 0 0 0 0 0 0 0 0 0 0 0 0 127 0" result="hardAlpha"/>
<feOffset/>
<feGaussianBlur stdDeviation="2"/>
<feComposite in2="hardAlpha" operator="out"/>
<feColorMatrix type="matrix" values="0 0 0 0 0.701961 0 0 0 0 0.466667 0 0 0 0 1 0 0 0 1 0"/>
<feBlend mode="normal" in2="BackgroundImageFix" result="effect1_dropShadow_21_4046"/>
<feBlend mode="normal" in="SourceGraphic" in2="effect1_dropShadow_21_4046" result="shape"/>
</filter>
</defs>
</svg>
