<svg width="541" height="53" viewBox="0 0 541 53" fill="none" xmlns="http://www.w3.org/2000/svg">
<g filter="url(#filter0_d_21_4049)">
<path d="M4.56008 5.3H14.4421C17.7767 5.3 20.2777 6.19466 21.9451 7.984C23.6124 9.77333 24.4461 12.3963 24.4461 15.853V20.062C24.4461 23.5187 23.6124 26.1417 21.9451 27.931C20.2777 29.7203 17.7767 30.615 14.4421 30.615H11.2701V48H4.56008V5.3ZM14.4421 24.515C15.5401 24.515 16.3534 24.21 16.8821 23.6C17.4514 22.99 17.7361 21.953 17.7361 20.489V15.426C17.7361 13.962 17.4514 12.925 16.8821 12.315C16.3534 11.705 15.5401 11.4 14.4421 11.4H11.2701V24.515H14.4421ZM28.0904 5.3H38.0334C41.49 5.3 44.0114 6.11333 45.5974 7.74C47.1834 9.326 47.9764 11.7863 47.9764 15.121V17.744C47.9764 22.1767 46.5124 24.9827 43.5844 26.162V26.284C45.211 26.772 46.3497 27.7683 47.0004 29.273C47.6917 30.7777 48.0374 32.7907 48.0374 35.312V42.815C48.0374 44.035 48.078 45.0313 48.1594 45.804C48.2407 46.536 48.444 47.268 48.7694 48H41.9374C41.6934 47.3087 41.5307 46.658 41.4494 46.048C41.368 45.438 41.3274 44.34 41.3274 42.754V34.946C41.3274 32.994 41.002 31.6317 40.3514 30.859C39.7414 30.0863 38.6637 29.7 37.1184 29.7H34.8004V48H28.0904V5.3ZM37.2404 23.6C38.5824 23.6 39.5787 23.2543 40.2294 22.563C40.9207 21.8717 41.2664 20.7127 41.2664 19.086V15.792C41.2664 14.2467 40.9817 13.1283 40.4124 12.437C39.8837 11.7457 39.0297 11.4 37.8504 11.4H34.8004V23.6H37.2404ZM62.3919 48.61C59.0979 48.61 56.5766 47.6747 54.8279 45.804C53.0792 43.9333 52.2049 41.29 52.2049 37.874V15.426C52.2049 12.01 53.0792 9.36666 54.8279 7.496C56.5766 5.62533 59.0979 4.69 62.3919 4.69C65.6859 4.69 68.2072 5.62533 69.9559 7.496C71.7046 9.36666 72.5789 12.01 72.5789 15.426V37.874C72.5789 41.29 71.7046 43.9333 69.9559 45.804C68.2072 47.6747 65.6859 48.61 62.3919 48.61ZM62.3919 42.51C64.7099 42.51 65.8689 41.107 65.8689 38.301V14.999C65.8689 12.193 64.7099 10.79 62.3919 10.79C60.0739 10.79 58.9149 12.193 58.9149 14.999V38.301C58.9149 41.107 60.0739 42.51 62.3919 42.51ZM78.4644 48.244C77.2444 48.244 76.2074 48.1627 75.3534 48V41.9C76.0041 42.0627 76.7361 42.144 77.5494 42.144C78.8914 42.144 79.8878 41.8187 80.5384 41.168C81.1891 40.4767 81.5144 39.4397 81.5144 38.057V5.3H88.2244V37.874C88.2244 41.3713 87.4111 43.974 85.7844 45.682C84.1984 47.39 81.7584 48.244 78.4644 48.244ZM93.022 5.3H111.322V11.4H99.732V22.685H108.943V28.785H99.732V41.9H111.322V48H93.022V5.3ZM124.637 48.61C121.424 48.61 118.964 47.695 117.256 45.865C115.589 44.035 114.755 41.4527 114.755 38.118V15.182C114.755 11.8473 115.589 9.265 117.256 7.435C118.964 5.605 121.424 4.69 124.637 4.69C127.85 4.69 130.29 5.605 131.957 7.435C133.665 9.265 134.519 11.8473 134.519 15.182V19.696H128.175V14.755C128.175 12.1117 127.057 10.79 124.82 10.79C122.583 10.79 121.465 12.1117 121.465 14.755V38.606C121.465 41.2087 122.583 42.51 124.82 42.51C127.057 42.51 128.175 41.2087 128.175 38.606V32.079H134.519V38.118C134.519 41.4527 133.665 44.035 131.957 45.865C130.29 47.695 127.85 48.61 124.637 48.61ZM143.78 11.4H136.765V5.3H157.505V11.4H150.49V48H143.78V11.4ZM171.977 40.253H159.167V34.153L171.367 5.3H178.687V34.153H181.859V40.253H178.687V48H171.977V40.253ZM171.977 34.153V17.5H171.855L165.267 34.153H171.977ZM194.947 18.293H201.413V24.759H194.947V18.293ZM194.947 41.534H201.413V48H194.947V41.534ZM216.213 5.3H226.095C229.43 5.3 231.931 6.19466 233.598 7.984C235.266 9.77333 236.099 12.3963 236.099 15.853V20.062C236.099 23.5187 235.266 26.1417 233.598 27.931C231.931 29.7203 229.43 30.615 226.095 30.615H222.923V48H216.213V5.3ZM226.095 24.515C227.193 24.515 228.007 24.21 228.535 23.6C229.105 22.99 229.389 21.953 229.389 20.489V15.426C229.389 13.962 229.105 12.925 228.535 12.315C228.007 11.705 227.193 11.4 226.095 11.4H222.923V24.515H226.095ZM249.443 48.61C246.149 48.61 243.627 47.6747 241.879 45.804C240.13 43.9333 239.256 41.29 239.256 37.874V15.426C239.256 12.01 240.13 9.36666 241.879 7.496C243.627 5.62533 246.149 4.69 249.443 4.69C252.737 4.69 255.258 5.62533 257.007 7.496C258.755 9.36666 259.63 12.01 259.63 15.426V37.874C259.63 41.29 258.755 43.9333 257.007 45.804C255.258 47.6747 252.737 48.61 249.443 48.61ZM249.443 42.51C251.761 42.51 252.92 41.107 252.92 38.301V14.999C252.92 12.193 251.761 10.79 249.443 10.79C247.125 10.79 245.966 12.193 245.966 14.999V38.301C245.966 41.107 247.125 42.51 249.443 42.51ZM264.168 5.3H274.111C277.567 5.3 280.089 6.11333 281.675 7.74C283.261 9.326 284.054 11.7863 284.054 15.121V17.744C284.054 22.1767 282.59 24.9827 279.662 26.162V26.284C281.288 26.772 282.427 27.7683 283.078 29.273C283.769 30.7777 284.115 32.7907 284.115 35.312V42.815C284.115 44.035 284.155 45.0313 284.237 45.804C284.318 46.536 284.521 47.268 284.847 48H278.015C277.771 47.3087 277.608 46.658 277.527 46.048C277.445 45.438 277.405 44.34 277.405 42.754V34.946C277.405 32.994 277.079 31.6317 276.429 30.859C275.819 30.0863 274.741 29.7 273.196 29.7H270.878V48H264.168V5.3ZM273.318 23.6C274.66 23.6 275.656 23.2543 276.307 22.563C276.998 21.8717 277.344 20.7127 277.344 19.086V15.792C277.344 14.2467 277.059 13.1283 276.49 12.437C275.961 11.7457 275.107 11.4 273.928 11.4H270.878V23.6H273.318ZM293.897 11.4H286.882V5.3H307.622V11.4H300.607V48H293.897V11.4ZM313.256 5.3H322.345L329.299 48H322.589L321.369 39.521V39.643H313.744L312.524 48H306.302L313.256 5.3ZM320.576 33.848L317.587 12.742H317.465L314.537 33.848H320.576ZM332.554 5.3H350.305V11.4H339.264V23.295H347.926V29.395H339.264V48H332.554V5.3ZM363.222 48.61C359.928 48.61 357.407 47.6747 355.658 45.804C353.909 43.9333 353.035 41.29 353.035 37.874V15.426C353.035 12.01 353.909 9.36666 355.658 7.496C357.407 5.62533 359.928 4.69 363.222 4.69C366.516 4.69 369.037 5.62533 370.786 7.496C372.535 9.36666 373.409 12.01 373.409 15.426V37.874C373.409 41.29 372.535 43.9333 370.786 45.804C369.037 47.6747 366.516 48.61 363.222 48.61ZM363.222 42.51C365.54 42.51 366.699 41.107 366.699 38.301V14.999C366.699 12.193 365.54 10.79 363.222 10.79C360.904 10.79 359.745 12.193 359.745 14.999V38.301C359.745 41.107 360.904 42.51 363.222 42.51ZM377.947 5.3H384.657V41.9H395.698V48H377.947V5.3ZM398.916 5.3H405.626V48H398.916V5.3ZM420.35 48.61C417.056 48.61 414.535 47.6747 412.786 45.804C411.037 43.9333 410.163 41.29 410.163 37.874V15.426C410.163 12.01 411.037 9.36666 412.786 7.496C414.535 5.62533 417.056 4.69 420.35 4.69C423.644 4.69 426.165 5.62533 427.914 7.496C429.663 9.36666 430.537 12.01 430.537 15.426V37.874C430.537 41.29 429.663 43.9333 427.914 45.804C426.165 47.6747 423.644 48.61 420.35 48.61ZM420.35 42.51C422.668 42.51 423.827 41.107 423.827 38.301V14.999C423.827 12.193 422.668 10.79 420.35 10.79C418.032 10.79 416.873 12.193 416.873 14.999V38.301C416.873 41.107 418.032 42.51 420.35 42.51ZM456.2 48.244C454.98 48.244 453.943 48.1627 453.089 48V41.9C453.739 42.0627 454.471 42.144 455.285 42.144C456.627 42.144 457.623 41.8187 458.274 41.168C458.924 40.4767 459.25 39.4397 459.25 38.057V5.3H465.96V37.874C465.96 41.3713 465.146 43.974 463.52 45.682C461.934 47.39 459.494 48.244 456.2 48.244ZM475.823 5.3H484.912L491.866 48H485.156L483.936 39.521V39.643H476.311L475.091 48H468.869L475.823 5.3ZM483.143 33.848L480.154 12.742H480.032L477.104 33.848H483.143ZM491.625 5.3H498.396L502.788 38.423H502.91L507.302 5.3H513.463L506.997 48H498.091L491.625 5.3ZM520.144 5.3H529.233L536.187 48H529.477L528.257 39.521V39.643H520.632L519.412 48H513.19L520.144 5.3ZM527.464 33.848L524.475 12.742H524.353L521.425 33.848H527.464Z" fill="white"/>
</g>
<defs>
<filter id="filter0_d_21_4049" x="0.560059" y="0.689941" width="539.626" height="51.9202" filterUnits="userSpaceOnUse" color-interpolation-filters="sRGB">
<feFlood flood-opacity="0" result="BackgroundImageFix"/>
<feColorMatrix in="SourceAlpha" type="matrix" values="0 0 0 0 0 0 0 0 0 0 0 0 0 0 0 0 0 0 127 0" result="hardAlpha"/>
<feOffset/>
<feGaussianBlur stdDeviation="2"/>
<feComposite in2="hardAlpha" operator="out"/>
<feColorMatrix type="matrix" values="0 0 0 0 0.701961 0 0 0 0 0.466667 0 0 0 0 1 0 0 0 1 0"/>
<feBlend mode="normal" in2="BackgroundImageFix" result="effect1_dropShadow_21_4049"/>
<feBlend mode="normal" in="SourceGraphic" in2="effect1_dropShadow_21_4049" result="shape"/>
</filter>
</defs>
</svg>
