<svg width="475" height="53" viewBox="0 0 475 53" fill="none" xmlns="http://www.w3.org/2000/svg">
<g filter="url(#filter0_d_21_4049)">
<path d="M4.97268 5.3H14.8547C18.1893 5.3 20.6903 6.19466 22.3577 7.984C24.025 9.77333 24.8587 12.3963 24.8587 15.853V20.062C24.8587 23.5187 24.025 26.1417 22.3577 27.931C20.6903 29.7203 18.1893 30.615 14.8547 30.615H11.6827V48H4.97268V5.3ZM14.8547 24.515C15.9527 24.515 16.766 24.21 17.2947 23.6C17.864 22.99 18.1487 21.953 18.1487 20.489V15.426C18.1487 13.962 17.864 12.925 17.2947 12.315C16.766 11.705 15.9527 11.4 14.8547 11.4H11.6827V24.515H14.8547ZM28.503 5.3H38.446C41.9026 5.3 44.424 6.11333 46.01 7.74C47.596 9.326 48.389 11.7863 48.389 15.121V17.744C48.389 22.1767 46.925 24.9827 43.997 26.162V26.284C45.6236 26.772 46.7623 27.7683 47.413 29.273C48.1043 30.7777 48.45 32.7907 48.45 35.312V42.815C48.45 44.035 48.4906 45.0313 48.572 45.804C48.6533 46.536 48.8566 47.268 49.182 48H42.35C42.106 47.3087 41.9433 46.658 41.862 46.048C41.7806 45.438 41.74 44.34 41.74 42.754V34.946C41.74 32.994 41.4146 31.6317 40.764 30.859C40.154 30.0863 39.0763 29.7 37.531 29.7H35.213V48H28.503V5.3ZM37.653 23.6C38.995 23.6 39.9913 23.2543 40.642 22.563C41.3333 21.8717 41.679 20.7127 41.679 19.086V15.792C41.679 14.2467 41.3943 13.1283 40.825 12.437C40.2963 11.7457 39.4423 11.4 38.263 11.4H35.213V23.6H37.653ZM62.8045 48.61C59.5105 48.61 56.9892 47.6747 55.2405 45.804C53.4918 43.9333 52.6175 41.29 52.6175 37.874V15.426C52.6175 12.01 53.4918 9.36666 55.2405 7.496C56.9892 5.62533 59.5105 4.69 62.8045 4.69C66.0985 4.69 68.6198 5.62533 70.3685 7.496C72.1172 9.36666 72.9915 12.01 72.9915 15.426V37.874C72.9915 41.29 72.1172 43.9333 70.3685 45.804C68.6198 47.6747 66.0985 48.61 62.8045 48.61ZM62.8045 42.51C65.1225 42.51 66.2815 41.107 66.2815 38.301V14.999C66.2815 12.193 65.1225 10.79 62.8045 10.79C60.4865 10.79 59.3275 12.193 59.3275 14.999V38.301C59.3275 41.107 60.4865 42.51 62.8045 42.51ZM78.877 48.244C77.657 48.244 76.62 48.1627 75.766 48V41.9C76.4167 42.0627 77.1487 42.144 77.962 42.144C79.304 42.144 80.3004 41.8187 80.951 41.168C81.6017 40.4767 81.927 39.4397 81.927 38.057V5.3H88.637V37.874C88.637 41.3713 87.8237 43.974 86.197 45.682C84.611 47.39 82.171 48.244 78.877 48.244ZM93.4346 5.3H111.735V11.4H100.145V22.685H109.356V28.785H100.145V41.9H111.735V48H93.4346V5.3ZM125.05 48.61C121.837 48.61 119.377 47.695 117.669 45.865C116.001 44.035 115.168 41.4527 115.168 38.118V15.182C115.168 11.8473 116.001 9.265 117.669 7.435C119.377 5.605 121.837 4.69 125.05 4.69C128.262 4.69 130.702 5.605 132.37 7.435C134.078 9.265 134.932 11.8473 134.932 15.182V19.696H128.588V14.755C128.588 12.1117 127.469 10.79 125.233 10.79C122.996 10.79 121.878 12.1117 121.878 14.755V38.606C121.878 41.2087 122.996 42.51 125.233 42.51C127.469 42.51 128.588 41.2087 128.588 38.606V32.079H134.932V38.118C134.932 41.4527 134.078 44.035 132.37 45.865C130.702 47.695 128.262 48.61 125.05 48.61ZM144.192 11.4H137.177V5.3H157.917V11.4H150.902V48H144.192V11.4ZM170.682 48.61C167.388 48.61 164.887 47.695 163.179 45.865C161.512 44.035 160.678 41.412 160.678 37.996V34.519H167.022V38.301C167.022 41.107 168.181 42.51 170.499 42.51C171.638 42.51 172.492 42.1643 173.061 41.473C173.671 40.741 173.976 39.4803 173.976 37.691V34.214C173.976 32.262 173.63 30.8793 172.939 30.066C172.248 29.212 171.129 28.785 169.584 28.785H167.327V22.685H169.767C171.109 22.685 172.105 22.3393 172.756 21.648C173.447 20.9567 173.793 19.7977 173.793 18.171V15.06C173.793 13.596 173.488 12.5183 172.878 11.827C172.268 11.1357 171.455 10.79 170.438 10.79C168.283 10.79 167.205 12.1117 167.205 14.755V17.561H160.861V15.304C160.861 11.888 161.695 9.265 163.362 7.435C165.07 5.605 167.51 4.69 170.682 4.69C173.895 4.69 176.335 5.605 178.002 7.435C179.669 9.22433 180.503 11.827 180.503 15.243V16.768C180.503 19.086 180.117 20.9567 179.344 22.38C178.571 23.7627 177.372 24.759 175.745 25.369V25.491C177.494 26.1417 178.754 27.199 179.527 28.663C180.3 30.127 180.686 31.9977 180.686 34.275V38.057C180.686 41.473 179.832 44.096 178.124 45.926C176.457 47.7153 173.976 48.61 170.682 48.61ZM195.359 18.293H201.825V24.759H195.359V18.293ZM195.359 41.534H201.825V48H195.359V41.534ZM216.626 5.3H226.569C230.026 5.3 232.547 6.11333 234.133 7.74C235.719 9.326 236.512 11.7863 236.512 15.121V17.744C236.512 22.1767 235.048 24.9827 232.12 26.162V26.284C233.747 26.772 234.885 27.7683 235.536 29.273C236.227 30.7777 236.573 32.7907 236.573 35.312V42.815C236.573 44.035 236.614 45.0313 236.695 45.804C236.776 46.536 236.98 47.268 237.305 48H230.473C230.229 47.3087 230.066 46.658 229.985 46.048C229.904 45.438 229.863 44.34 229.863 42.754V34.946C229.863 32.994 229.538 31.6317 228.887 30.859C228.277 30.0863 227.199 29.7 225.654 29.7H223.336V48H216.626V5.3ZM225.776 23.6C227.118 23.6 228.114 23.2543 228.765 22.563C229.456 21.8717 229.802 20.7127 229.802 19.086V15.792C229.802 14.2467 229.517 13.1283 228.948 12.437C228.419 11.7457 227.565 11.4 226.386 11.4H223.336V23.6H225.776ZM241.229 5.3H259.529V11.4H247.939V22.685H257.15V28.785H247.939V41.9H259.529V48H241.229V5.3ZM272.231 48.61C268.978 48.61 266.517 47.695 264.85 45.865C263.183 43.9943 262.349 41.3307 262.349 37.874V35.434H268.693V38.362C268.693 41.1273 269.852 42.51 272.17 42.51C273.309 42.51 274.163 42.1847 274.732 41.534C275.342 40.8427 275.647 39.7447 275.647 38.24C275.647 36.4507 275.24 34.885 274.427 33.543C273.614 32.1603 272.109 30.5133 269.913 28.602C267.148 26.162 265.216 23.966 264.118 22.014C263.02 20.0213 262.471 17.7847 262.471 15.304C262.471 11.9287 263.325 9.326 265.033 7.496C266.741 5.62533 269.222 4.69 272.475 4.69C275.688 4.69 278.107 5.62533 279.734 7.496C281.401 9.326 282.235 11.9693 282.235 15.426V17.195H275.891V14.999C275.891 13.535 275.606 12.4777 275.037 11.827C274.468 11.1357 273.634 10.79 272.536 10.79C270.299 10.79 269.181 12.1523 269.181 14.877C269.181 16.4223 269.588 17.866 270.401 19.208C271.255 20.55 272.78 22.1767 274.976 24.088C277.782 26.528 279.714 28.7443 280.771 30.737C281.828 32.7297 282.357 35.068 282.357 37.752C282.357 41.2493 281.483 43.9333 279.734 45.804C278.026 47.6747 275.525 48.61 272.231 48.61ZM291.45 11.4H284.435V5.3H305.175V11.4H298.16V48H291.45V11.4ZM310.809 5.3H319.898L326.852 48H320.142L318.922 39.521V39.643H311.297L310.077 48H303.855L310.809 5.3ZM318.129 33.848L315.14 12.742H315.018L312.09 33.848H318.129ZM339.748 48.61C336.495 48.61 334.014 47.695 332.306 45.865C330.598 43.9943 329.744 41.3307 329.744 37.874V5.3H336.454V38.362C336.454 39.826 336.739 40.8833 337.308 41.534C337.918 42.1847 338.772 42.51 339.87 42.51C340.968 42.51 341.802 42.1847 342.371 41.534C342.981 40.8833 343.286 39.826 343.286 38.362V5.3H349.752V37.874C349.752 41.3307 348.898 43.9943 347.19 45.865C345.482 47.695 343.002 48.61 339.748 48.61ZM354.531 5.3H364.474C367.931 5.3 370.452 6.11333 372.038 7.74C373.624 9.326 374.417 11.7863 374.417 15.121V17.744C374.417 22.1767 372.953 24.9827 370.025 26.162V26.284C371.652 26.772 372.791 27.7683 373.441 29.273C374.133 30.7777 374.478 32.7907 374.478 35.312V42.815C374.478 44.035 374.519 45.0313 374.6 45.804C374.682 46.536 374.885 47.268 375.21 48H368.378C368.134 47.3087 367.972 46.658 367.89 46.048C367.809 45.438 367.768 44.34 367.768 42.754V34.946C367.768 32.994 367.443 31.6317 366.792 30.859C366.182 30.0863 365.105 29.7 363.559 29.7H361.241V48H354.531V5.3ZM363.681 23.6C365.023 23.6 366.02 23.2543 366.67 22.563C367.362 21.8717 367.707 20.7127 367.707 19.086V15.792C367.707 14.2467 367.423 13.1283 366.853 12.437C366.325 11.7457 365.471 11.4 364.291 11.4H361.241V23.6H363.681ZM384.319 5.3H393.408L400.362 48H393.652L392.432 39.521V39.643H384.807L383.587 48H377.365L384.319 5.3ZM391.639 33.848L388.65 12.742H388.528L385.6 33.848H391.639ZM403.617 5.3H412.035L418.562 30.859H418.684V5.3H424.662V48H417.769L409.717 16.829H409.595V48H403.617V5.3ZM434.895 11.4H427.88V5.3H448.62V11.4H441.605V48H434.895V11.4ZM451.869 5.3H470.169V11.4H458.579V22.685H467.79V28.785H458.579V41.9H470.169V48H451.869V5.3Z" fill="white"/>
</g>
<defs>
<filter id="filter0_d_21_4049" x="0.972656" y="0.689941" width="473.197" height="51.9202" filterUnits="userSpaceOnUse" color-interpolation-filters="sRGB">
<feFlood flood-opacity="0" result="BackgroundImageFix"/>
<feColorMatrix in="SourceAlpha" type="matrix" values="0 0 0 0 0 0 0 0 0 0 0 0 0 0 0 0 0 0 127 0" result="hardAlpha"/>
<feOffset/>
<feGaussianBlur stdDeviation="2"/>
<feComposite in2="hardAlpha" operator="out"/>
<feColorMatrix type="matrix" values="0 0 0 0 0.701961 0 0 0 0 0.466667 0 0 0 0 1 0 0 0 1 0"/>
<feBlend mode="normal" in2="BackgroundImageFix" result="effect1_dropShadow_21_4049"/>
<feBlend mode="normal" in="SourceGraphic" in2="effect1_dropShadow_21_4049" result="shape"/>
</filter>
</defs>
</svg>
