<svg width="432" height="53" viewBox="0 0 432 53" fill="none" xmlns="http://www.w3.org/2000/svg">
<g filter="url(#filter0_d_21_4049)">
<path d="M11.7597 11.4H4.7447V5.3H25.4847V11.4H18.4697V48H11.7597V11.4ZM38.1941 48.61C34.9001 48.61 32.3788 47.6747 30.6301 45.804C28.8815 43.9333 28.0071 41.29 28.0071 37.874V15.426C28.0071 12.01 28.8815 9.36666 30.6301 7.496C32.3788 5.62533 34.9001 4.69 38.1941 4.69C41.4881 4.69 44.0095 5.62533 45.7581 7.496C47.5068 9.36666 48.3811 12.01 48.3811 15.426V37.874C48.3811 41.29 47.5068 43.9333 45.7581 45.804C44.0095 47.6747 41.4881 48.61 38.1941 48.61ZM38.1941 42.51C40.5121 42.51 41.6711 41.107 41.6711 38.301V14.999C41.6711 12.193 40.5121 10.79 38.1941 10.79C35.8761 10.79 34.7171 12.193 34.7171 14.999V38.301C34.7171 41.107 35.8761 42.51 38.1941 42.51ZM52.919 5.3H63.167C66.5016 5.3 69.0026 6.19466 70.67 7.984C72.3373 9.77333 73.171 12.3963 73.171 15.853V37.447C73.171 40.9037 72.3373 43.5267 70.67 45.316C69.0026 47.1053 66.5016 48 63.167 48H52.919V5.3ZM63.045 41.9C64.143 41.9 64.9766 41.5747 65.546 40.924C66.156 40.2733 66.461 39.216 66.461 37.752V15.548C66.461 14.084 66.156 13.0267 65.546 12.376C64.9766 11.7253 64.143 11.4 63.045 11.4H59.629V41.9H63.045ZM87.3992 48.61C84.1052 48.61 81.5839 47.6747 79.8352 45.804C78.0866 43.9333 77.2122 41.29 77.2122 37.874V15.426C77.2122 12.01 78.0866 9.36666 79.8352 7.496C81.5839 5.62533 84.1052 4.69 87.3992 4.69C90.6932 4.69 93.2146 5.62533 94.9632 7.496C96.7119 9.36666 97.5862 12.01 97.5862 15.426V37.874C97.5862 41.29 96.7119 43.9333 94.9632 45.804C93.2146 47.6747 90.6932 48.61 87.3992 48.61ZM87.3992 42.51C89.7172 42.51 90.8762 41.107 90.8762 38.301V14.999C90.8762 12.193 89.7172 10.79 87.3992 10.79C85.0812 10.79 83.9222 12.193 83.9222 14.999V38.301C83.9222 41.107 85.0812 42.51 87.3992 42.51ZM110.847 48.61C107.594 48.61 105.133 47.695 103.466 45.865C101.799 43.9943 100.965 41.3307 100.965 37.874V35.434H107.309V38.362C107.309 41.1273 108.468 42.51 110.786 42.51C111.925 42.51 112.779 42.1847 113.348 41.534C113.958 40.8427 114.263 39.7447 114.263 38.24C114.263 36.4507 113.856 34.885 113.043 33.543C112.23 32.1603 110.725 30.5133 108.529 28.602C105.764 26.162 103.832 23.966 102.734 22.014C101.636 20.0213 101.087 17.7847 101.087 15.304C101.087 11.9287 101.941 9.326 103.649 7.496C105.357 5.62533 107.838 4.69 111.091 4.69C114.304 4.69 116.723 5.62533 118.35 7.496C120.017 9.326 120.851 11.9693 120.851 15.426V17.195H114.507V14.999C114.507 13.535 114.222 12.4777 113.653 11.827C113.084 11.1357 112.25 10.79 111.152 10.79C108.915 10.79 107.797 12.1523 107.797 14.877C107.797 16.4223 108.204 17.866 109.017 19.208C109.871 20.55 111.396 22.1767 113.592 24.088C116.398 26.528 118.33 28.7443 119.387 30.737C120.444 32.7297 120.973 35.068 120.973 37.752C120.973 41.2493 120.099 43.9333 118.35 45.804C116.642 47.6747 114.141 48.61 110.847 48.61ZM134.59 5.3H144.167L148.437 35.861H148.559L152.829 5.3H162.406V48H156.062V15.67H155.94L151.06 48H145.448L140.568 15.67H140.446V48H134.59V5.3ZM167.413 5.3H174.123V48H167.413V5.3ZM187.871 48.61C184.618 48.61 182.158 47.695 180.49 45.865C178.823 43.9943 177.989 41.3307 177.989 37.874V35.434H184.333V38.362C184.333 41.1273 185.492 42.51 187.81 42.51C188.949 42.51 189.803 42.1847 190.372 41.534C190.982 40.8427 191.287 39.7447 191.287 38.24C191.287 36.4507 190.881 34.885 190.067 33.543C189.254 32.1603 187.749 30.5133 185.553 28.602C182.788 26.162 180.856 23.966 179.758 22.014C178.66 20.0213 178.111 17.7847 178.111 15.304C178.111 11.9287 178.965 9.326 180.673 7.496C182.381 5.62533 184.862 4.69 188.115 4.69C191.328 4.69 193.748 5.62533 195.374 7.496C197.042 9.326 197.875 11.9693 197.875 15.426V17.195H191.531V14.999C191.531 13.535 191.247 12.4777 190.677 11.827C190.108 11.1357 189.274 10.79 188.176 10.79C185.94 10.79 184.821 12.1523 184.821 14.877C184.821 16.4223 185.228 17.866 186.041 19.208C186.895 20.55 188.42 22.1767 190.616 24.088C193.422 26.528 195.354 28.7443 196.411 30.737C197.469 32.7297 197.997 35.068 197.997 37.752C197.997 41.2493 197.123 43.9333 195.374 45.804C193.666 47.6747 191.165 48.61 187.871 48.61ZM221.384 5.3H231.266C234.6 5.3 237.101 6.19466 238.769 7.984C240.436 9.77333 241.27 12.3963 241.27 15.853V20.062C241.27 23.5187 240.436 26.1417 238.769 27.931C237.101 29.7203 234.6 30.615 231.266 30.615H228.094V48H221.384V5.3ZM231.266 24.515C232.364 24.515 233.177 24.21 233.706 23.6C234.275 22.99 234.56 21.953 234.56 20.489V15.426C234.56 13.962 234.275 12.925 233.706 12.315C233.177 11.705 232.364 11.4 231.266 11.4H228.094V24.515H231.266ZM244.914 5.3H254.857C258.314 5.3 260.835 6.11333 262.421 7.74C264.007 9.326 264.8 11.7863 264.8 15.121V17.744C264.8 22.1767 263.336 24.9827 260.408 26.162V26.284C262.035 26.772 263.173 27.7683 263.824 29.273C264.515 30.7777 264.861 32.7907 264.861 35.312V42.815C264.861 44.035 264.902 45.0313 264.983 45.804C265.064 46.536 265.268 47.268 265.593 48H258.761C258.517 47.3087 258.354 46.658 258.273 46.048C258.192 45.438 258.151 44.34 258.151 42.754V34.946C258.151 32.994 257.826 31.6317 257.175 30.859C256.565 30.0863 255.487 29.7 253.942 29.7H251.624V48H244.914V5.3ZM254.064 23.6C255.406 23.6 256.402 23.2543 257.053 22.563C257.744 21.8717 258.09 20.7127 258.09 19.086V15.792C258.09 14.2467 257.805 13.1283 257.236 12.437C256.707 11.7457 255.853 11.4 254.674 11.4H251.624V23.6H254.064ZM279.216 48.61C275.922 48.61 273.4 47.6747 271.652 45.804C269.903 43.9333 269.029 41.29 269.029 37.874V15.426C269.029 12.01 269.903 9.36666 271.652 7.496C273.4 5.62533 275.922 4.69 279.216 4.69C282.51 4.69 285.031 5.62533 286.78 7.496C288.528 9.36666 289.403 12.01 289.403 15.426V37.874C289.403 41.29 288.528 43.9333 286.78 45.804C285.031 47.6747 282.51 48.61 279.216 48.61ZM279.216 42.51C281.534 42.51 282.693 41.107 282.693 38.301V14.999C282.693 12.193 281.534 10.79 279.216 10.79C276.898 10.79 275.739 12.193 275.739 14.999V38.301C275.739 41.107 276.898 42.51 279.216 42.51ZM299.029 29.822L290.916 5.3H298.053L302.628 20.977H302.75L307.325 5.3H313.852L305.739 29.822V48H299.029V29.822ZM316.875 5.3H335.175V11.4H323.585V22.685H332.796V28.785H323.585V41.9H335.175V48H316.875V5.3ZM348.49 48.61C345.278 48.61 342.817 47.695 341.109 45.865C339.442 44.035 338.608 41.4527 338.608 38.118V15.182C338.608 11.8473 339.442 9.265 341.109 7.435C342.817 5.605 345.278 4.69 348.49 4.69C351.703 4.69 354.143 5.605 355.81 7.435C357.518 9.265 358.372 11.8473 358.372 15.182V19.696H352.028V14.755C352.028 12.1117 350.91 10.79 348.673 10.79C346.437 10.79 345.318 12.1117 345.318 14.755V38.606C345.318 41.2087 346.437 42.51 348.673 42.51C350.91 42.51 352.028 41.2087 352.028 38.606V32.079H358.372V38.118C358.372 41.4527 357.518 44.035 355.81 45.865C354.143 47.695 351.703 48.61 348.49 48.61ZM367.633 11.4H360.618V5.3H381.358V11.4H374.343V48H367.633V11.4ZM394.067 48.61C390.773 48.61 388.252 47.6747 386.503 45.804C384.755 43.9333 383.88 41.29 383.88 37.874V15.426C383.88 12.01 384.755 9.36666 386.503 7.496C388.252 5.62533 390.773 4.69 394.067 4.69C397.361 4.69 399.883 5.62533 401.631 7.496C403.38 9.36666 404.254 12.01 404.254 15.426V37.874C404.254 41.29 403.38 43.9333 401.631 45.804C399.883 47.6747 397.361 48.61 394.067 48.61ZM394.067 42.51C396.385 42.51 397.544 41.107 397.544 38.301V14.999C397.544 12.193 396.385 10.79 394.067 10.79C391.749 10.79 390.59 12.193 390.59 14.999V38.301C390.59 41.107 391.749 42.51 394.067 42.51ZM417.515 48.61C414.262 48.61 411.801 47.695 410.134 45.865C408.467 43.9943 407.633 41.3307 407.633 37.874V35.434H413.977V38.362C413.977 41.1273 415.136 42.51 417.454 42.51C418.593 42.51 419.447 42.1847 420.016 41.534C420.626 40.8427 420.931 39.7447 420.931 38.24C420.931 36.4507 420.524 34.885 419.711 33.543C418.898 32.1603 417.393 30.5133 415.197 28.602C412.432 26.162 410.5 23.966 409.402 22.014C408.304 20.0213 407.755 17.7847 407.755 15.304C407.755 11.9287 408.609 9.326 410.317 7.496C412.025 5.62533 414.506 4.69 417.759 4.69C420.972 4.69 423.391 5.62533 425.018 7.496C426.685 9.326 427.519 11.9693 427.519 15.426V17.195H421.175V14.999C421.175 13.535 420.89 12.4777 420.321 11.827C419.752 11.1357 418.918 10.79 417.82 10.79C415.583 10.79 414.465 12.1523 414.465 14.877C414.465 16.4223 414.872 17.866 415.685 19.208C416.539 20.55 418.064 22.1767 420.26 24.088C423.066 26.528 424.998 28.7443 426.055 30.737C427.112 32.7297 427.641 35.068 427.641 37.752C427.641 41.2493 426.767 43.9333 425.018 45.804C423.31 47.6747 420.809 48.61 417.515 48.61Z" fill="white"/>
</g>
<defs>
<filter id="filter0_d_21_4049" x="0.744751" y="0.689941" width="430.896" height="51.9202" filterUnits="userSpaceOnUse" color-interpolation-filters="sRGB">
<feFlood flood-opacity="0" result="BackgroundImageFix"/>
<feColorMatrix in="SourceAlpha" type="matrix" values="0 0 0 0 0 0 0 0 0 0 0 0 0 0 0 0 0 0 127 0" result="hardAlpha"/>
<feOffset/>
<feGaussianBlur stdDeviation="2"/>
<feComposite in2="hardAlpha" operator="out"/>
<feColorMatrix type="matrix" values="0 0 0 0 0.701961 0 0 0 0 0.466667 0 0 0 0 1 0 0 0 1 0"/>
<feBlend mode="normal" in2="BackgroundImageFix" result="effect1_dropShadow_21_4049"/>
<feBlend mode="normal" in="SourceGraphic" in2="effect1_dropShadow_21_4049" result="shape"/>
</filter>
</defs>
</svg>
