<svg width="215" height="105" viewBox="0 0 215 105" fill="none" xmlns="http://www.w3.org/2000/svg">
<rect x="1" y="1" width="212.339" height="103" fill="black" fill-opacity="0.3" stroke="#CEB7FF" stroke-width="2"/>
<path d="M90.5004 65.2296C88.9204 65.2296 87.4604 64.9696 86.1204 64.4496C84.7804 63.9096 83.6204 63.1596 82.6404 62.1996C81.6604 61.2396 80.8904 60.1096 80.3304 58.8096C79.7904 57.5096 79.5204 56.0896 79.5204 54.5496C79.5204 53.0096 79.7904 51.5896 80.3304 50.2896C80.8904 48.9896 81.6604 47.8596 82.6404 46.8996C83.6404 45.9396 84.8104 45.1996 86.1504 44.6796C87.4904 44.1396 88.9504 43.8696 90.5305 43.8696C92.0505 43.8696 93.4805 44.1296 94.8205 44.6496C96.1604 45.1496 97.2904 45.9096 98.2104 46.9296L96.8004 48.3396C95.9405 47.4596 94.9905 46.8296 93.9505 46.4496C92.9105 46.0496 91.7905 45.8496 90.5905 45.8496C89.3304 45.8496 88.1604 46.0696 87.0804 46.5096C86.0004 46.9296 85.0604 47.5396 84.2604 48.3396C83.4604 49.1196 82.8304 50.0396 82.3704 51.0996C81.9304 52.1396 81.7104 53.2896 81.7104 54.5496C81.7104 55.8096 81.9304 56.9696 82.3704 58.0296C82.8304 59.0696 83.4604 59.9896 84.2604 60.7896C85.0604 61.5696 86.0004 62.1796 87.0804 62.6196C88.1604 63.0396 89.3304 63.2496 90.5905 63.2496C91.7905 63.2496 92.9105 63.0496 93.9505 62.6496C94.9905 62.2496 95.9405 61.6096 96.8004 60.7296L98.2104 62.1396C97.2904 63.1596 96.1604 63.9296 94.8205 64.4496C93.4805 64.9696 92.0405 65.2296 90.5004 65.2296ZM108.674 65.2296C107.114 65.2296 105.614 64.9796 104.174 64.4796C102.754 63.9596 101.654 63.2996 100.874 62.4996L101.744 60.7896C102.484 61.5096 103.474 62.1196 104.714 62.6196C105.974 63.0996 107.294 63.3396 108.674 63.3396C109.994 63.3396 111.064 63.1796 111.884 62.8596C112.724 62.5196 113.334 62.0696 113.714 61.5096C114.114 60.9496 114.314 60.3296 114.314 59.6496C114.314 58.8296 114.074 58.1696 113.594 57.6696C113.134 57.1696 112.524 56.7796 111.764 56.4996C111.004 56.1996 110.164 55.9396 109.244 55.7196C108.324 55.4996 107.404 55.2696 106.484 55.0296C105.564 54.7696 104.714 54.4296 103.934 54.0096C103.174 53.5896 102.554 53.0396 102.074 52.3596C101.614 51.6596 101.384 50.7496 101.384 49.6296C101.384 48.5896 101.654 47.6396 102.194 46.7796C102.754 45.8996 103.604 45.1996 104.744 44.6796C105.884 44.1396 107.344 43.8696 109.124 43.8696C110.304 43.8696 111.474 44.0396 112.634 44.3796C113.794 44.6996 114.794 45.1496 115.634 45.7296L114.884 47.4996C113.984 46.8996 113.024 46.4596 112.004 46.1796C111.004 45.8996 110.034 45.7596 109.094 45.7596C107.834 45.7596 106.794 45.9296 105.974 46.2696C105.154 46.6096 104.544 47.0696 104.144 47.6496C103.764 48.2096 103.574 48.8496 103.574 49.5696C103.574 50.3896 103.804 51.0496 104.264 51.5496C104.744 52.0496 105.364 52.4396 106.124 52.7196C106.904 52.9996 107.754 53.2496 108.674 53.4696C109.594 53.6896 110.504 53.9296 111.404 54.1896C112.324 54.4496 113.164 54.7896 113.924 55.2096C114.704 55.6096 115.324 56.1496 115.784 56.8296C116.264 57.5096 116.504 58.3996 116.504 59.4996C116.504 60.5196 116.224 61.4696 115.664 62.3496C115.104 63.2096 114.244 63.9096 113.084 64.4496C111.944 64.9696 110.474 65.2296 108.674 65.2296ZM127.131 65.2296C125.571 65.2296 124.071 64.9796 122.631 64.4796C121.211 63.9596 120.111 63.2996 119.331 62.4996L120.201 60.7896C120.941 61.5096 121.931 62.1196 123.171 62.6196C124.431 63.0996 125.751 63.3396 127.131 63.3396C128.451 63.3396 129.521 63.1796 130.341 62.8596C131.181 62.5196 131.791 62.0696 132.171 61.5096C132.571 60.9496 132.771 60.3296 132.771 59.6496C132.771 58.8296 132.531 58.1696 132.051 57.6696C131.591 57.1696 130.981 56.7796 130.221 56.4996C129.461 56.1996 128.621 55.9396 127.701 55.7196C126.781 55.4996 125.861 55.2696 124.941 55.0296C124.021 54.7696 123.171 54.4296 122.391 54.0096C121.631 53.5896 121.011 53.0396 120.531 52.3596C120.071 51.6596 119.841 50.7496 119.841 49.6296C119.841 48.5896 120.111 47.6396 120.651 46.7796C121.211 45.8996 122.061 45.1996 123.201 44.6796C124.341 44.1396 125.801 43.8696 127.581 43.8696C128.761 43.8696 129.931 44.0396 131.091 44.3796C132.251 44.6996 133.251 45.1496 134.091 45.7296L133.341 47.4996C132.441 46.8996 131.481 46.4596 130.461 46.1796C129.461 45.8996 128.491 45.7596 127.551 45.7596C126.291 45.7596 125.251 45.9296 124.431 46.2696C123.611 46.6096 123.001 47.0696 122.601 47.6496C122.221 48.2096 122.031 48.8496 122.031 49.5696C122.031 50.3896 122.261 51.0496 122.721 51.5496C123.201 52.0496 123.821 52.4396 124.581 52.7196C125.361 52.9996 126.211 53.2496 127.131 53.4696C128.051 53.6896 128.961 53.9296 129.861 54.1896C130.781 54.4496 131.621 54.7896 132.381 55.2096C133.161 55.6096 133.781 56.1496 134.241 56.8296C134.721 57.5096 134.961 58.3996 134.961 59.4996C134.961 60.5196 134.681 61.4696 134.121 62.3496C133.561 63.2096 132.701 63.9096 131.541 64.4496C130.401 64.9696 128.931 65.2296 127.131 65.2296Z" fill="white"/>
</svg>
