<svg width="930" height="477" viewBox="0 0 930 477" fill="none" xmlns="http://www.w3.org/2000/svg">
<rect x="1" y="1" width="212.339" height="103" fill="black" fill-opacity="0.3" stroke="#CEB7FF" stroke-width="2"/>
<path d="M74.651 65.2296C73.471 65.2296 72.361 64.9696 71.321 64.4496C70.301 63.9296 69.481 63.1896 68.861 62.2296L70.151 60.7296C70.731 61.5696 71.401 62.2096 72.161 62.6496C72.921 63.0896 73.761 63.3096 74.681 63.3096C77.281 63.3096 78.581 61.7696 78.581 58.6896V45.9696H70.901V44.0496H80.771V58.5996C80.771 60.8196 80.251 62.4796 79.211 63.5796C78.191 64.6796 76.671 65.2296 74.651 65.2296ZM83.6308 65.0496L93.2308 44.0496H95.4208L105.021 65.0496H102.681L93.8608 45.3396H94.7608L85.9408 65.0496H83.6308ZM87.4108 59.4396L88.0708 57.6396H100.281L100.941 59.4396H87.4108ZM113.381 65.0496L104.081 44.0496H106.481L115.181 63.8196H113.861L122.621 44.0496H124.871L115.571 65.0496H113.381ZM123.914 65.0496L133.514 44.0496H135.704L145.304 65.0496H142.964L134.144 45.3396H135.044L126.224 65.0496H123.914ZM127.694 59.4396L128.354 57.6396H140.564L141.224 59.4396H127.694Z" fill="white"/>
<rect x="1" y="125" width="212.339" height="103" fill="black" fill-opacity="0.3" stroke="#CEB7FF" stroke-width="2"/>
<path d="M34.4449 189.05V168.05H43.5049C45.8449 168.05 47.6549 168.52 48.9349 169.46C50.2349 170.4 50.8849 171.73 50.8849 173.45C50.8849 174.59 50.6149 175.55 50.0749 176.33C49.5549 177.11 48.8349 177.7 47.9149 178.1C47.0149 178.5 46.0249 178.7 44.9449 178.7L45.4549 177.98C46.7949 177.98 47.9449 178.19 48.9049 178.61C49.8849 179.01 50.6449 179.62 51.1849 180.44C51.7249 181.24 51.9949 182.24 51.9949 183.44C51.9949 185.22 51.3349 186.6 50.0149 187.58C48.7149 188.56 46.7449 189.05 44.1049 189.05H34.4449ZM36.6649 187.22H44.0749C45.9149 187.22 47.3249 186.91 48.3049 186.29C49.2849 185.65 49.7749 184.64 49.7749 183.26C49.7749 181.9 49.2849 180.91 48.3049 180.29C47.3249 179.65 45.9149 179.33 44.0749 179.33H36.4249V177.5H43.3549C45.0349 177.5 46.3349 177.18 47.2549 176.54C48.1949 175.9 48.6649 174.95 48.6649 173.69C48.6649 172.41 48.1949 171.46 47.2549 170.84C46.3349 170.2 45.0349 169.88 43.3549 169.88H36.6649V187.22ZM57.0621 189.05V168.05H59.2821V187.13H71.0421V189.05H57.0621ZM76.7081 177.44H87.8081V179.33H76.7081V177.44ZM76.9481 187.13H89.5781V189.05H74.7281V168.05H89.1281V169.97H76.9481V187.13ZM94.7965 189.05V168.05H96.6265L111.116 186.29H110.156V168.05H112.346V189.05H110.516L96.0565 170.81H97.0165V189.05H94.7965ZM119.201 189.05V168.05H127.751C129.991 168.05 131.951 168.5 133.631 169.4C135.331 170.28 136.651 171.51 137.591 173.09C138.531 174.67 139.001 176.49 139.001 178.55C139.001 180.61 138.531 182.43 137.591 184.01C136.651 185.59 135.331 186.83 133.631 187.73C131.951 188.61 129.991 189.05 127.751 189.05H119.201ZM121.421 187.13H127.631C129.491 187.13 131.101 186.77 132.461 186.05C133.841 185.31 134.911 184.3 135.671 183.02C136.431 181.72 136.811 180.23 136.811 178.55C136.811 176.85 136.431 175.36 135.671 174.08C134.911 172.8 133.841 171.8 132.461 171.08C131.101 170.34 129.491 169.97 127.631 169.97H121.421V187.13ZM145.966 177.44H157.066V179.33H145.966V177.44ZM146.206 187.13H158.836V189.05H143.986V168.05H158.386V169.97H146.206V187.13ZM164.054 189.05V168.05H171.914C173.694 168.05 175.224 168.34 176.504 168.92C177.784 169.48 178.764 170.3 179.444 171.38C180.144 172.44 180.494 173.73 180.494 175.25C180.494 176.73 180.144 178.01 179.444 179.09C178.764 180.15 177.784 180.97 176.504 181.55C175.224 182.11 173.694 182.39 171.914 182.39H165.284L166.274 181.37V189.05H164.054ZM178.394 189.05L172.994 181.43H175.394L180.824 189.05H178.394ZM166.274 181.55L165.284 180.5H171.854C173.954 180.5 175.544 180.04 176.624 179.12C177.724 178.2 178.274 176.91 178.274 175.25C178.274 173.57 177.724 172.27 176.624 171.35C175.544 170.43 173.954 169.97 171.854 169.97H165.284L166.274 168.92V181.55Z" fill="white"/>
<rect x="1" y="249" width="212.339" height="103" fill="black" fill-opacity="0.3" stroke="#CEB7FF" stroke-width="2"/>
<path d="M47.526 313.05V292.05H49.356L63.846 310.29H62.886V292.05H65.076V313.05H63.246L48.786 294.81H49.746V313.05H47.526ZM81.1103 313.23C79.5303 313.23 78.0603 312.97 76.7003 312.45C75.3603 311.91 74.1903 311.16 73.1903 310.2C72.2103 309.22 71.4403 308.09 70.8803 306.81C70.3403 305.51 70.0703 304.09 70.0703 302.55C70.0703 301.01 70.3403 299.6 70.8803 298.32C71.4403 297.02 72.2103 295.89 73.1903 294.93C74.1903 293.95 75.3603 293.2 76.7003 292.68C78.0403 292.14 79.5103 291.87 81.1103 291.87C82.6903 291.87 84.1503 292.14 85.4903 292.68C86.8303 293.2 87.9903 293.94 88.9703 294.9C89.9703 295.86 90.7403 296.99 91.2803 298.29C91.8403 299.59 92.1203 301.01 92.1203 302.55C92.1203 304.09 91.8403 305.51 91.2803 306.81C90.7403 308.11 89.9703 309.24 88.9703 310.2C87.9903 311.16 86.8303 311.91 85.4903 312.45C84.1503 312.97 82.6903 313.23 81.1103 313.23ZM81.1103 311.25C82.3703 311.25 83.5303 311.04 84.5903 310.62C85.6703 310.18 86.6003 309.57 87.3803 308.79C88.1803 307.99 88.8003 307.07 89.2403 306.03C89.6803 304.97 89.9003 303.81 89.9003 302.55C89.9003 301.29 89.6803 300.14 89.2403 299.1C88.8003 298.04 88.1803 297.12 87.3803 296.34C86.6003 295.54 85.6703 294.93 84.5903 294.51C83.5303 294.07 82.3703 293.85 81.1103 293.85C79.8503 293.85 78.6803 294.07 77.6003 294.51C76.5203 294.93 75.5803 295.54 74.7803 296.34C74.0003 297.12 73.3803 298.04 72.9203 299.1C72.4803 300.14 72.2603 301.29 72.2603 302.55C72.2603 303.79 72.4803 304.94 72.9203 306C73.3803 307.06 74.0003 307.99 74.7803 308.79C75.5803 309.57 76.5203 310.18 77.6003 310.62C78.6803 311.04 79.8503 311.25 81.1103 311.25ZM100.883 313.05V293.97H93.5033V292.05H110.483V293.97H103.103V313.05H100.883ZM114.03 313.05V292.05H116.25V313.05H114.03ZM132.263 313.23C130.683 313.23 129.213 312.97 127.853 312.45C126.513 311.91 125.343 311.16 124.343 310.2C123.363 309.22 122.593 308.09 122.033 306.81C121.493 305.51 121.223 304.09 121.223 302.55C121.223 301.01 121.493 299.6 122.033 298.32C122.593 297.02 123.363 295.89 124.343 294.93C125.343 293.95 126.513 293.2 127.853 292.68C129.193 292.14 130.663 291.87 132.263 291.87C133.843 291.87 135.303 292.14 136.643 292.68C137.983 293.2 139.143 293.94 140.123 294.9C141.123 295.86 141.893 296.99 142.433 298.29C142.993 299.59 143.273 301.01 143.273 302.55C143.273 304.09 142.993 305.51 142.433 306.81C141.893 308.11 141.123 309.24 140.123 310.2C139.143 311.16 137.983 311.91 136.643 312.45C135.303 312.97 133.843 313.23 132.263 313.23ZM132.263 311.25C133.523 311.25 134.683 311.04 135.743 310.62C136.823 310.18 137.753 309.57 138.533 308.79C139.333 307.99 139.953 307.07 140.393 306.03C140.833 304.97 141.053 303.81 141.053 302.55C141.053 301.29 140.833 300.14 140.393 299.1C139.953 298.04 139.333 297.12 138.533 296.34C137.753 295.54 136.823 294.93 135.743 294.51C134.683 294.07 133.523 293.85 132.263 293.85C131.003 293.85 129.833 294.07 128.753 294.51C127.673 294.93 126.733 295.54 125.933 296.34C125.153 297.12 124.533 298.04 124.073 299.1C123.633 300.14 123.413 301.29 123.413 302.55C123.413 303.79 123.633 304.94 124.073 306C124.533 307.06 125.153 307.99 125.933 308.79C126.733 309.57 127.673 310.18 128.753 310.62C129.833 311.04 131.003 311.25 132.263 311.25ZM148.249 313.05V292.05H150.079L164.569 310.29H163.609V292.05H165.799V313.05H163.969L149.509 294.81H150.469V313.05H148.249Z" fill="white"/>
<rect x="1" y="373" width="212.339" height="103" fill="black" fill-opacity="0.3" stroke="#CEB7FF" stroke-width="2"/>
<path d="M47.0799 437.05L37.7799 416.05H40.1799L48.8799 435.82H47.5599L56.3199 416.05H58.5699L49.2699 437.05H47.0799ZM67.4078 437.23C65.8478 437.23 64.3478 436.98 62.9078 436.48C61.4878 435.96 60.3878 435.3 59.6078 434.5L60.4778 432.79C61.2178 433.51 62.2078 434.12 63.4478 434.62C64.7078 435.1 66.0278 435.34 67.4078 435.34C68.7278 435.34 69.7978 435.18 70.6178 434.86C71.4578 434.52 72.0678 434.07 72.4478 433.51C72.8478 432.95 73.0478 432.33 73.0478 431.65C73.0478 430.83 72.8078 430.17 72.3278 429.67C71.8678 429.17 71.2578 428.78 70.4978 428.5C69.7378 428.2 68.8978 427.94 67.9778 427.72C67.0578 427.5 66.1378 427.27 65.2178 427.03C64.2978 426.77 63.4478 426.43 62.6678 426.01C61.9078 425.59 61.2878 425.04 60.8078 424.36C60.3478 423.66 60.1178 422.75 60.1178 421.63C60.1178 420.59 60.3878 419.64 60.9278 418.78C61.4878 417.9 62.3378 417.2 63.4778 416.68C64.6178 416.14 66.0778 415.87 67.8578 415.87C69.0378 415.87 70.2078 416.04 71.3678 416.38C72.5278 416.7 73.5278 417.15 74.3678 417.73L73.6178 419.5C72.7178 418.9 71.7578 418.46 70.7378 418.18C69.7378 417.9 68.7678 417.76 67.8278 417.76C66.5678 417.76 65.5278 417.93 64.7078 418.27C63.8878 418.61 63.2778 419.07 62.8778 419.65C62.4978 420.21 62.3078 420.85 62.3078 421.57C62.3078 422.39 62.5378 423.05 62.9978 423.55C63.4778 424.05 64.0978 424.44 64.8578 424.72C65.6378 425 66.4878 425.25 67.4078 425.47C68.3278 425.69 69.2378 425.93 70.1378 426.19C71.0578 426.45 71.8978 426.79 72.6578 427.21C73.4378 427.61 74.0578 428.15 74.5178 428.83C74.9978 429.51 75.2378 430.4 75.2378 431.5C75.2378 432.52 74.9578 433.47 74.3978 434.35C73.8378 435.21 72.9778 435.91 71.8178 436.45C70.6778 436.97 69.2078 437.23 67.4078 437.23ZM97.0463 437.23C95.4663 437.23 94.0063 436.97 92.6663 436.45C91.3263 435.91 90.1663 435.16 89.1863 434.2C88.2063 433.24 87.4363 432.11 86.8763 430.81C86.3363 429.51 86.0663 428.09 86.0663 426.55C86.0663 425.01 86.3363 423.59 86.8763 422.29C87.4363 420.99 88.2063 419.86 89.1863 418.9C90.1863 417.94 91.3563 417.2 92.6963 416.68C94.0363 416.14 95.4963 415.87 97.0763 415.87C98.5963 415.87 100.026 416.13 101.366 416.65C102.706 417.15 103.836 417.91 104.756 418.93L103.346 420.34C102.486 419.46 101.536 418.83 100.496 418.45C99.4563 418.05 98.3363 417.85 97.1363 417.85C95.8763 417.85 94.7063 418.07 93.6263 418.51C92.5463 418.93 91.6063 419.54 90.8063 420.34C90.0063 421.12 89.3763 422.04 88.9163 423.1C88.4763 424.14 88.2563 425.29 88.2563 426.55C88.2563 427.81 88.4763 428.97 88.9163 430.03C89.3763 431.07 90.0063 431.99 90.8063 432.79C91.6063 433.57 92.5463 434.18 93.6263 434.62C94.7063 435.04 95.8763 435.25 97.1363 435.25C98.3363 435.25 99.4563 435.05 100.496 434.65C101.536 434.25 102.486 433.61 103.346 432.73L104.756 434.14C103.836 435.16 102.706 435.93 101.366 436.45C100.026 436.97 98.5863 437.23 97.0463 437.23ZM118.229 437.23C116.649 437.23 115.179 436.97 113.819 436.45C112.479 435.91 111.309 435.16 110.309 434.2C109.329 433.22 108.559 432.09 107.999 430.81C107.459 429.51 107.189 428.09 107.189 426.55C107.189 425.01 107.459 423.6 107.999 422.32C108.559 421.02 109.329 419.89 110.309 418.93C111.309 417.95 112.479 417.2 113.819 416.68C115.159 416.14 116.629 415.87 118.229 415.87C119.809 415.87 121.269 416.14 122.609 416.68C123.949 417.2 125.109 417.94 126.089 418.9C127.089 419.86 127.859 420.99 128.399 422.29C128.959 423.59 129.239 425.01 129.239 426.55C129.239 428.09 128.959 429.51 128.399 430.81C127.859 432.11 127.089 433.24 126.089 434.2C125.109 435.16 123.949 435.91 122.609 436.45C121.269 436.97 119.809 437.23 118.229 437.23ZM118.229 435.25C119.489 435.25 120.649 435.04 121.709 434.62C122.789 434.18 123.719 433.57 124.499 432.79C125.299 431.99 125.919 431.07 126.359 430.03C126.799 428.97 127.019 427.81 127.019 426.55C127.019 425.29 126.799 424.14 126.359 423.1C125.919 422.04 125.299 421.12 124.499 420.34C123.719 419.54 122.789 418.93 121.709 418.51C120.649 418.07 119.489 417.85 118.229 417.85C116.969 417.85 115.799 418.07 114.719 418.51C113.639 418.93 112.699 419.54 111.899 420.34C111.119 421.12 110.499 422.04 110.039 423.1C109.599 424.14 109.379 425.29 109.379 426.55C109.379 427.79 109.599 428.94 110.039 430C110.499 431.06 111.119 431.99 111.899 432.79C112.699 433.57 113.639 434.18 114.719 434.62C115.799 435.04 116.969 435.25 118.229 435.25ZM134.215 437.05V416.05H142.765C145.005 416.05 146.965 416.5 148.645 417.4C150.345 418.28 151.665 419.51 152.605 421.09C153.545 422.67 154.015 424.49 154.015 426.55C154.015 428.61 153.545 430.43 152.605 432.01C151.665 433.59 150.345 434.83 148.645 435.73C146.965 436.61 145.005 437.05 142.765 437.05H134.215ZM136.435 435.13H142.645C144.505 435.13 146.115 434.77 147.475 434.05C148.855 433.31 149.925 432.3 150.685 431.02C151.445 429.72 151.825 428.23 151.825 426.55C151.825 424.85 151.445 423.36 150.685 422.08C149.925 420.8 148.855 419.8 147.475 419.08C146.115 418.34 144.505 417.97 142.645 417.97H136.435V435.13ZM160.981 425.44H172.081V427.33H160.981V425.44ZM161.221 435.13H173.851V437.05H159.001V416.05H173.401V417.97H161.221V435.13Z" fill="white"/>
<rect x="239.339" y="1" width="212.339" height="103" fill="black" fill-opacity="0.3" stroke="#CEB7FF" stroke-width="2"/>
<path d="M319.814 44.0496H322.004V65.0496H319.814V44.0496ZM306.674 65.0496H304.454V44.0496H306.674V65.0496ZM320.024 55.3596H306.434V53.4096H320.024V55.3596ZM332.938 65.0496V45.9696H325.558V44.0496H342.538V45.9696H335.158V65.0496H332.938ZM346.085 65.0496V44.0496H347.915L357.515 60.4296H356.555L366.065 44.0496H367.895V65.0496H365.765V47.3796H366.275L357.515 62.3796H356.465L347.645 47.3796H348.215V65.0496H346.085ZM374.737 65.0496V44.0496H376.957V63.1296H388.717V65.0496H374.737Z" fill="white"/>
<rect x="239.339" y="125" width="212.339" height="103" fill="black" fill-opacity="0.3" stroke="#CEB7FF" stroke-width="2"/>
<path d="M284.854 189.05V168.05H292.714C294.494 168.05 296.024 168.34 297.304 168.92C298.584 169.48 299.564 170.3 300.244 171.38C300.944 172.44 301.294 173.73 301.294 175.25C301.294 176.73 300.944 178.01 300.244 179.09C299.564 180.15 298.584 180.97 297.304 181.55C296.024 182.13 294.494 182.42 292.714 182.42H286.084L287.074 181.37V189.05H284.854ZM287.074 181.55L286.084 180.47H292.654C294.754 180.47 296.344 180.02 297.424 179.12C298.524 178.2 299.074 176.91 299.074 175.25C299.074 173.57 298.524 172.27 297.424 171.35C296.344 170.43 294.754 169.97 292.654 169.97H286.084L287.074 168.92V181.55ZM301.68 189.05L311.28 168.05H313.47L323.07 189.05H320.73L311.91 169.34H312.81L303.99 189.05H301.68ZM305.46 183.44L306.12 181.64H318.33L318.99 183.44H305.46ZM326.544 189.05V168.05H334.404C336.184 168.05 337.714 168.34 338.994 168.92C340.274 169.48 341.254 170.3 341.934 171.38C342.634 172.44 342.984 173.73 342.984 175.25C342.984 176.73 342.634 178.01 341.934 179.09C341.254 180.15 340.274 180.97 338.994 181.55C337.714 182.11 336.184 182.39 334.404 182.39H327.774L328.764 181.37V189.05H326.544ZM340.884 189.05L335.484 181.43H337.884L343.314 189.05H340.884ZM328.764 181.55L327.774 180.5H334.344C336.444 180.5 338.034 180.04 339.114 179.12C340.214 178.2 340.764 176.91 340.764 175.25C340.764 173.57 340.214 172.27 339.114 171.35C338.034 170.43 336.444 169.97 334.344 169.97H327.774L328.764 168.92V181.55ZM348.223 189.05V168.05H356.083C357.863 168.05 359.393 168.34 360.673 168.92C361.953 169.48 362.933 170.3 363.613 171.38C364.313 172.44 364.663 173.73 364.663 175.25C364.663 176.73 364.313 178.01 363.613 179.09C362.933 180.15 361.953 180.97 360.673 181.55C359.393 182.11 357.863 182.39 356.083 182.39H349.453L350.443 181.37V189.05H348.223ZM362.563 189.05L357.163 181.43H359.563L364.993 189.05H362.563ZM350.443 181.55L349.453 180.5H356.023C358.123 180.5 359.713 180.04 360.793 179.12C361.893 178.2 362.443 176.91 362.443 175.25C362.443 173.57 361.893 172.27 360.793 171.35C359.713 170.43 358.123 169.97 356.023 169.97H349.453L350.443 168.92V181.55ZM379.083 189.23C377.503 189.23 376.033 188.97 374.673 188.45C373.333 187.91 372.163 187.16 371.163 186.2C370.183 185.22 369.413 184.09 368.853 182.81C368.313 181.51 368.043 180.09 368.043 178.55C368.043 177.01 368.313 175.6 368.853 174.32C369.413 173.02 370.183 171.89 371.163 170.93C372.163 169.95 373.333 169.2 374.673 168.68C376.013 168.14 377.483 167.87 379.083 167.87C380.663 167.87 382.123 168.14 383.463 168.68C384.803 169.2 385.963 169.94 386.943 170.9C387.943 171.86 388.713 172.99 389.253 174.29C389.813 175.59 390.093 177.01 390.093 178.55C390.093 180.09 389.813 181.51 389.253 182.81C388.713 184.11 387.943 185.24 386.943 186.2C385.963 187.16 384.803 187.91 383.463 188.45C382.123 188.97 380.663 189.23 379.083 189.23ZM379.083 187.25C380.343 187.25 381.503 187.04 382.563 186.62C383.643 186.18 384.573 185.57 385.353 184.79C386.153 183.99 386.773 183.07 387.213 182.03C387.653 180.97 387.873 179.81 387.873 178.55C387.873 177.29 387.653 176.14 387.213 175.1C386.773 174.04 386.153 173.12 385.353 172.34C384.573 171.54 383.643 170.93 382.563 170.51C381.503 170.07 380.343 169.85 379.083 169.85C377.823 169.85 376.653 170.07 375.573 170.51C374.493 170.93 373.553 171.54 372.753 172.34C371.973 173.12 371.353 174.04 370.893 175.1C370.453 176.14 370.233 177.29 370.233 178.55C370.233 179.79 370.453 180.94 370.893 182C371.353 183.06 371.973 183.99 372.753 184.79C373.553 185.57 374.493 186.18 375.573 186.62C376.653 187.04 377.823 187.25 379.083 187.25ZM398.856 189.05V169.97H391.476V168.05H408.456V169.97H401.076V189.05H398.856Z" fill="white"/>
<rect x="239.339" y="249" width="212.339" height="103" fill="black" fill-opacity="0.3" stroke="#CEB7FF" stroke-width="2"/>
<path d="M305.437 313.05V292.05H314.497C316.837 292.05 318.647 292.52 319.927 293.46C321.227 294.4 321.877 295.73 321.877 297.45C321.877 298.59 321.607 299.55 321.067 300.33C320.547 301.11 319.827 301.7 318.907 302.1C318.007 302.5 317.017 302.7 315.937 302.7L316.447 301.98C317.787 301.98 318.937 302.19 319.897 302.61C320.877 303.01 321.637 303.62 322.177 304.44C322.717 305.24 322.987 306.24 322.987 307.44C322.987 309.22 322.327 310.6 321.007 311.58C319.707 312.56 317.737 313.05 315.097 313.05H305.437ZM307.657 311.22H315.067C316.907 311.22 318.317 310.91 319.297 310.29C320.277 309.65 320.767 308.64 320.767 307.26C320.767 305.9 320.277 304.91 319.297 304.29C318.317 303.65 316.907 303.33 315.067 303.33H307.417V301.5H314.347C316.027 301.5 317.327 301.18 318.247 300.54C319.187 299.9 319.657 298.95 319.657 297.69C319.657 296.41 319.187 295.46 318.247 294.84C317.327 294.2 316.027 293.88 314.347 293.88H307.657V311.22ZM324.694 313.05L334.294 292.05H336.484L346.084 313.05H343.744L334.924 293.34H335.824L327.004 313.05H324.694ZM328.474 307.44L329.134 305.64H341.344L342.004 307.44H328.474ZM355.348 313.23C353.788 313.23 352.288 312.98 350.848 312.48C349.428 311.96 348.328 311.3 347.548 310.5L348.418 308.79C349.158 309.51 350.148 310.12 351.388 310.62C352.648 311.1 353.968 311.34 355.348 311.34C356.668 311.34 357.738 311.18 358.558 310.86C359.398 310.52 360.008 310.07 360.388 309.51C360.788 308.95 360.988 308.33 360.988 307.65C360.988 306.83 360.748 306.17 360.268 305.67C359.808 305.17 359.198 304.78 358.438 304.5C357.678 304.2 356.838 303.94 355.918 303.72C354.998 303.5 354.078 303.27 353.158 303.03C352.238 302.77 351.388 302.43 350.608 302.01C349.848 301.59 349.228 301.04 348.748 300.36C348.288 299.66 348.058 298.75 348.058 297.63C348.058 296.59 348.328 295.64 348.868 294.78C349.428 293.9 350.278 293.2 351.418 292.68C352.558 292.14 354.018 291.87 355.798 291.87C356.978 291.87 358.148 292.04 359.308 292.38C360.468 292.7 361.468 293.15 362.308 293.73L361.558 295.5C360.658 294.9 359.698 294.46 358.678 294.18C357.678 293.9 356.708 293.76 355.768 293.76C354.508 293.76 353.468 293.93 352.648 294.27C351.828 294.61 351.218 295.07 350.818 295.65C350.438 296.21 350.248 296.85 350.248 297.57C350.248 298.39 350.478 299.05 350.938 299.55C351.418 300.05 352.038 300.44 352.798 300.72C353.578 301 354.428 301.25 355.348 301.47C356.268 301.69 357.178 301.93 358.078 302.19C358.998 302.45 359.838 302.79 360.598 303.21C361.378 303.61 361.998 304.15 362.458 304.83C362.938 305.51 363.178 306.4 363.178 307.5C363.178 308.52 362.898 309.47 362.338 310.35C361.778 311.21 360.918 311.91 359.758 312.45C358.618 312.97 357.148 313.23 355.348 313.23ZM383.375 292.05H385.565V313.05H383.375V292.05ZM370.235 313.05H368.015V292.05H370.235V313.05ZM383.585 303.36H369.995V301.41H383.585V303.36Z" fill="white"/>
<rect x="239.339" y="373" width="212.339" height="103" fill="black" fill-opacity="0.3" stroke="#CEB7FF" stroke-width="2"/>
<path d="M287.629 420V399H295.489C297.269 399 298.799 399.29 300.079 399.87C301.359 400.43 302.339 401.25 303.019 402.33C303.719 403.39 304.069 404.68 304.069 406.2C304.069 407.68 303.719 408.96 303.019 410.04C302.339 411.1 301.359 411.92 300.079 412.5C298.799 413.08 297.269 413.37 295.489 413.37H288.859L289.849 412.32V420H287.629ZM289.849 412.5L288.859 411.42H295.429C297.529 411.42 299.119 410.97 300.199 410.07C301.299 409.15 301.849 407.86 301.849 406.2C301.849 404.52 301.299 403.22 300.199 402.3C299.119 401.38 297.529 400.92 295.429 400.92H288.859L289.849 399.87V412.5ZM304.455 420L314.055 399H316.245L325.845 420H323.505L314.685 400.29H315.585L306.765 420H304.455ZM308.235 414.39L308.895 412.59H321.105L321.765 414.39H308.235ZM338.145 420.18C336.565 420.18 335.105 419.92 333.765 419.4C332.425 418.86 331.265 418.11 330.285 417.15C329.305 416.19 328.535 415.06 327.975 413.76C327.435 412.46 327.165 411.04 327.165 409.5C327.165 407.96 327.435 406.54 327.975 405.24C328.535 403.94 329.305 402.81 330.285 401.85C331.285 400.89 332.455 400.15 333.795 399.63C335.135 399.09 336.595 398.82 338.175 398.82C339.695 398.82 341.125 399.08 342.465 399.6C343.805 400.1 344.935 400.86 345.855 401.88L344.445 403.29C343.585 402.41 342.635 401.78 341.595 401.4C340.555 401 339.435 400.8 338.235 400.8C336.975 400.8 335.805 401.02 334.725 401.46C333.645 401.88 332.705 402.49 331.905 403.29C331.105 404.07 330.475 404.99 330.015 406.05C329.575 407.09 329.355 408.24 329.355 409.5C329.355 410.76 329.575 411.92 330.015 412.98C330.475 414.02 331.105 414.94 331.905 415.74C332.705 416.52 333.645 417.13 334.725 417.57C335.805 417.99 336.975 418.2 338.235 418.2C339.435 418.2 340.555 418 341.595 417.6C342.635 417.2 343.585 416.56 344.445 415.68L345.855 417.09C344.935 418.11 343.805 418.88 342.465 419.4C341.125 419.92 339.685 420.18 338.145 420.18ZM352.508 414.78L352.418 412.08L365.138 399H367.688L358.418 408.72L357.158 410.07L352.508 414.78ZM350.588 420V399H352.808V420H350.588ZM365.678 420L356.618 409.56L358.118 407.94L368.318 420H365.678ZM373.896 408.39H384.996V410.28H373.896V408.39ZM374.136 418.08H386.766V420H371.916V399H386.316V400.92H374.136V418.08ZM396.064 420V400.92H388.684V399H405.664V400.92H398.284V420H396.064ZM290.786 451V431.92H283.406V430H300.386V431.92H293.006V451H290.786ZM303.933 451V430H311.793C313.573 430 315.103 430.29 316.383 430.87C317.663 431.43 318.643 432.25 319.323 433.33C320.023 434.39 320.373 435.68 320.373 437.2C320.373 438.68 320.023 439.96 319.323 441.04C318.643 442.1 317.663 442.92 316.383 443.5C315.103 444.06 313.573 444.34 311.793 444.34H305.163L306.153 443.32V451H303.933ZM318.273 451L312.873 443.38H315.273L320.703 451H318.273ZM306.153 443.5L305.163 442.45H311.733C313.833 442.45 315.423 441.99 316.503 441.07C317.603 440.15 318.153 438.86 318.153 437.2C318.153 435.52 317.603 434.22 316.503 433.3C315.423 432.38 313.833 431.92 311.733 431.92H305.163L306.153 430.87V443.5ZM322.252 451L331.852 430H334.042L343.642 451H341.302L332.482 431.29H333.382L324.562 451H322.252ZM326.032 445.39L326.692 443.59H338.902L339.562 445.39H326.032ZM355.943 451.18C354.363 451.18 352.903 450.92 351.563 450.4C350.223 449.86 349.063 449.11 348.083 448.15C347.103 447.19 346.333 446.06 345.773 444.76C345.233 443.46 344.963 442.04 344.963 440.5C344.963 438.96 345.233 437.54 345.773 436.24C346.333 434.94 347.103 433.81 348.083 432.85C349.083 431.89 350.253 431.15 351.593 430.63C352.933 430.09 354.393 429.82 355.973 429.82C357.493 429.82 358.923 430.08 360.263 430.6C361.603 431.1 362.733 431.86 363.653 432.88L362.243 434.29C361.383 433.41 360.433 432.78 359.393 432.4C358.353 432 357.233 431.8 356.033 431.8C354.773 431.8 353.603 432.02 352.523 432.46C351.443 432.88 350.503 433.49 349.703 434.29C348.903 435.07 348.273 435.99 347.813 437.05C347.373 438.09 347.153 439.24 347.153 440.5C347.153 441.76 347.373 442.92 347.813 443.98C348.273 445.02 348.903 445.94 349.703 446.74C350.503 447.52 351.443 448.13 352.523 448.57C353.603 448.99 354.773 449.2 356.033 449.2C357.233 449.2 358.353 449 359.393 448.6C360.433 448.2 361.383 447.56 362.243 446.68L363.653 448.09C362.733 449.11 361.603 449.88 360.263 450.4C358.923 450.92 357.483 451.18 355.943 451.18ZM370.366 439.39H381.466V441.28H370.366V439.39ZM370.606 449.08H383.236V451H368.386V430H382.786V431.92H370.606V449.08ZM388.454 451V430H396.314C398.094 430 399.624 430.29 400.904 430.87C402.184 431.43 403.164 432.25 403.844 433.33C404.544 434.39 404.894 435.68 404.894 437.2C404.894 438.68 404.544 439.96 403.844 441.04C403.164 442.1 402.184 442.92 400.904 443.5C399.624 444.06 398.094 444.34 396.314 444.34H389.684L390.674 443.32V451H388.454ZM402.794 451L397.394 443.38H399.794L405.224 451H402.794ZM390.674 443.5L389.684 442.45H396.254C398.354 442.45 399.944 441.99 401.024 441.07C402.124 440.15 402.674 438.86 402.674 437.2C402.674 435.52 402.124 434.22 401.024 433.3C399.944 432.38 398.354 431.92 396.254 431.92H389.684L390.674 430.87V443.5Z" fill="white"/>
<rect x="477.678" y="1" width="212.339" height="103" fill="black" fill-opacity="0.3" stroke="#CEB7FF" stroke-width="2"/>
<path d="M567.178 65.2296C565.598 65.2296 564.138 64.9696 562.798 64.4496C561.458 63.9096 560.298 63.1596 559.318 62.1996C558.338 61.2396 557.568 60.1096 557.008 58.8096C556.468 57.5096 556.198 56.0896 556.198 54.5496C556.198 53.0096 556.468 51.5896 557.008 50.2896C557.568 48.9896 558.338 47.8596 559.318 46.8996C560.318 45.9396 561.488 45.1996 562.828 44.6796C564.168 44.1396 565.628 43.8696 567.208 43.8696C568.728 43.8696 570.158 44.1296 571.498 44.6496C572.838 45.1496 573.968 45.9096 574.888 46.9296L573.478 48.3396C572.618 47.4596 571.668 46.8296 570.628 46.4496C569.588 46.0496 568.468 45.8496 567.268 45.8496C566.008 45.8496 564.838 46.0696 563.758 46.5096C562.678 46.9296 561.738 47.5396 560.938 48.3396C560.138 49.1196 559.508 50.0396 559.048 51.0996C558.608 52.1396 558.388 53.2896 558.388 54.5496C558.388 55.8096 558.608 56.9696 559.048 58.0296C559.508 59.0696 560.138 59.9896 560.938 60.7896C561.738 61.5696 562.678 62.1796 563.758 62.6196C564.838 63.0396 566.008 63.2496 567.268 63.2496C568.468 63.2496 569.588 63.0496 570.628 62.6496C571.668 62.2496 572.618 61.6096 573.478 60.7296L574.888 62.1396C573.968 63.1596 572.838 63.9296 571.498 64.4496C570.158 64.9696 568.718 65.2296 567.178 65.2296ZM585.352 65.2296C583.792 65.2296 582.292 64.9796 580.852 64.4796C579.432 63.9596 578.332 63.2996 577.552 62.4996L578.422 60.7896C579.162 61.5096 580.152 62.1196 581.392 62.6196C582.652 63.0996 583.972 63.3396 585.352 63.3396C586.672 63.3396 587.742 63.1796 588.562 62.8596C589.402 62.5196 590.012 62.0696 590.392 61.5096C590.792 60.9496 590.992 60.3296 590.992 59.6496C590.992 58.8296 590.752 58.1696 590.272 57.6696C589.812 57.1696 589.202 56.7796 588.442 56.4996C587.682 56.1996 586.842 55.9396 585.922 55.7196C585.002 55.4996 584.082 55.2696 583.162 55.0296C582.242 54.7696 581.392 54.4296 580.612 54.0096C579.852 53.5896 579.232 53.0396 578.752 52.3596C578.292 51.6596 578.062 50.7496 578.062 49.6296C578.062 48.5896 578.332 47.6396 578.872 46.7796C579.432 45.8996 580.282 45.1996 581.422 44.6796C582.562 44.1396 584.022 43.8696 585.802 43.8696C586.982 43.8696 588.152 44.0396 589.312 44.3796C590.472 44.6996 591.472 45.1496 592.312 45.7296L591.562 47.4996C590.662 46.8996 589.702 46.4596 588.682 46.1796C587.682 45.8996 586.712 45.7596 585.772 45.7596C584.512 45.7596 583.472 45.9296 582.652 46.2696C581.832 46.6096 581.222 47.0696 580.822 47.6496C580.442 48.2096 580.252 48.8496 580.252 49.5696C580.252 50.3896 580.482 51.0496 580.942 51.5496C581.422 52.0496 582.042 52.4396 582.802 52.7196C583.582 52.9996 584.432 53.2496 585.352 53.4696C586.272 53.6896 587.182 53.9296 588.082 54.1896C589.002 54.4496 589.842 54.7896 590.602 55.2096C591.382 55.6096 592.002 56.1496 592.462 56.8296C592.942 57.5096 593.182 58.3996 593.182 59.4996C593.182 60.5196 592.902 61.4696 592.342 62.3496C591.782 63.2096 590.922 63.9096 589.762 64.4496C588.622 64.9696 587.152 65.2296 585.352 65.2296ZM603.809 65.2296C602.249 65.2296 600.749 64.9796 599.309 64.4796C597.889 63.9596 596.789 63.2996 596.009 62.4996L596.879 60.7896C597.619 61.5096 598.609 62.1196 599.849 62.6196C601.109 63.0996 602.429 63.3396 603.809 63.3396C605.129 63.3396 606.199 63.1796 607.019 62.8596C607.859 62.5196 608.469 62.0696 608.849 61.5096C609.249 60.9496 609.449 60.3296 609.449 59.6496C609.449 58.8296 609.209 58.1696 608.729 57.6696C608.269 57.1696 607.659 56.7796 606.899 56.4996C606.139 56.1996 605.299 55.9396 604.379 55.7196C603.459 55.4996 602.539 55.2696 601.619 55.0296C600.699 54.7696 599.849 54.4296 599.069 54.0096C598.309 53.5896 597.689 53.0396 597.209 52.3596C596.749 51.6596 596.519 50.7496 596.519 49.6296C596.519 48.5896 596.789 47.6396 597.329 46.7796C597.889 45.8996 598.739 45.1996 599.879 44.6796C601.019 44.1396 602.479 43.8696 604.259 43.8696C605.439 43.8696 606.609 44.0396 607.769 44.3796C608.929 44.6996 609.929 45.1496 610.769 45.7296L610.019 47.4996C609.119 46.8996 608.159 46.4596 607.139 46.1796C606.139 45.8996 605.169 45.7596 604.229 45.7596C602.969 45.7596 601.929 45.9296 601.109 46.2696C600.289 46.6096 599.679 47.0696 599.279 47.6496C598.899 48.2096 598.709 48.8496 598.709 49.5696C598.709 50.3896 598.939 51.0496 599.399 51.5496C599.879 52.0496 600.499 52.4396 601.259 52.7196C602.039 52.9996 602.889 53.2496 603.809 53.4696C604.729 53.6896 605.639 53.9296 606.539 54.1896C607.459 54.4496 608.299 54.7896 609.059 55.2096C609.839 55.6096 610.459 56.1496 610.919 56.8296C611.399 57.5096 611.639 58.3996 611.639 59.4996C611.639 60.5196 611.359 61.4696 610.799 62.3496C610.239 63.2096 609.379 63.9096 608.219 64.4496C607.079 64.9696 605.609 65.2296 603.809 65.2296Z" fill="white"/>
<rect x="477.678" y="125" width="212.339" height="103" fill="black" fill-opacity="0.3" stroke="#CEB7FF" stroke-width="2"/>
<path d="M508.012 189.05L500.932 168.05H503.212L509.842 187.82H508.702L515.542 168.05H517.582L524.332 187.82H523.252L529.942 168.05H532.072L524.992 189.05H522.652L516.202 170.3H516.802L510.322 189.05H508.012ZM536.142 189.05V168.05H538.362V189.05H536.142ZM545.195 189.05V168.05H547.025L561.515 186.29H560.555V168.05H562.745V189.05H560.915L546.455 170.81H547.415V189.05H545.195ZM569.599 189.05V168.05H578.149C580.389 168.05 582.349 168.5 584.029 169.4C585.729 170.28 587.049 171.51 587.989 173.09C588.929 174.67 589.399 176.49 589.399 178.55C589.399 180.61 588.929 182.43 587.989 184.01C587.049 185.59 585.729 186.83 584.029 187.73C582.349 188.61 580.389 189.05 578.149 189.05H569.599ZM571.819 187.13H578.029C579.889 187.13 581.499 186.77 582.859 186.05C584.239 185.31 585.309 184.3 586.069 183.02C586.829 181.72 587.209 180.23 587.209 178.55C587.209 176.85 586.829 175.36 586.069 174.08C585.309 172.8 584.239 171.8 582.859 171.08C581.499 170.34 579.889 169.97 578.029 169.97H571.819V187.13ZM603.564 189.23C601.984 189.23 600.514 188.97 599.154 188.45C597.814 187.91 596.644 187.16 595.644 186.2C594.664 185.22 593.894 184.09 593.334 182.81C592.794 181.51 592.524 180.09 592.524 178.55C592.524 177.01 592.794 175.6 593.334 174.32C593.894 173.02 594.664 171.89 595.644 170.93C596.644 169.95 597.814 169.2 599.154 168.68C600.494 168.14 601.964 167.87 603.564 167.87C605.144 167.87 606.604 168.14 607.944 168.68C609.284 169.2 610.444 169.94 611.424 170.9C612.424 171.86 613.194 172.99 613.734 174.29C614.294 175.59 614.574 177.01 614.574 178.55C614.574 180.09 614.294 181.51 613.734 182.81C613.194 184.11 612.424 185.24 611.424 186.2C610.444 187.16 609.284 187.91 607.944 188.45C606.604 188.97 605.144 189.23 603.564 189.23ZM603.564 187.25C604.824 187.25 605.984 187.04 607.044 186.62C608.124 186.18 609.054 185.57 609.834 184.79C610.634 183.99 611.254 183.07 611.694 182.03C612.134 180.97 612.354 179.81 612.354 178.55C612.354 177.29 612.134 176.14 611.694 175.1C611.254 174.04 610.634 173.12 609.834 172.34C609.054 171.54 608.124 170.93 607.044 170.51C605.984 170.07 604.824 169.85 603.564 169.85C602.304 169.85 601.134 170.07 600.054 170.51C598.974 170.93 598.034 171.54 597.234 172.34C596.454 173.12 595.834 174.04 595.374 175.1C594.934 176.14 594.714 177.29 594.714 178.55C594.714 179.79 594.934 180.94 595.374 182C595.834 183.06 596.454 183.99 597.234 184.79C598.034 185.57 598.974 186.18 600.054 186.62C601.134 187.04 602.304 187.25 603.564 187.25ZM623.705 189.05L616.625 168.05H618.905L625.535 187.82H624.395L631.235 168.05H633.275L640.025 187.82H638.945L645.635 168.05H647.765L640.685 189.05H638.345L631.895 170.3H632.495L626.015 189.05H623.705ZM657.625 189.23C656.065 189.23 654.565 188.98 653.125 188.48C651.705 187.96 650.605 187.3 649.825 186.5L650.695 184.79C651.435 185.51 652.425 186.12 653.665 186.62C654.925 187.1 656.245 187.34 657.625 187.34C658.945 187.34 660.015 187.18 660.835 186.86C661.675 186.52 662.285 186.07 662.665 185.51C663.065 184.95 663.265 184.33 663.265 183.65C663.265 182.83 663.025 182.17 662.545 181.67C662.085 181.17 661.475 180.78 660.715 180.5C659.955 180.2 659.115 179.94 658.195 179.72C657.275 179.5 656.355 179.27 655.435 179.03C654.515 178.77 653.665 178.43 652.885 178.01C652.125 177.59 651.505 177.04 651.025 176.36C650.565 175.66 650.335 174.75 650.335 173.63C650.335 172.59 650.605 171.64 651.145 170.78C651.705 169.9 652.555 169.2 653.695 168.68C654.835 168.14 656.295 167.87 658.075 167.87C659.255 167.87 660.425 168.04 661.585 168.38C662.745 168.7 663.745 169.15 664.585 169.73L663.835 171.5C662.935 170.9 661.975 170.46 660.955 170.18C659.955 169.9 658.985 169.76 658.045 169.76C656.785 169.76 655.745 169.93 654.925 170.27C654.105 170.61 653.495 171.07 653.095 171.65C652.715 172.21 652.525 172.85 652.525 173.57C652.525 174.39 652.755 175.05 653.215 175.55C653.695 176.05 654.315 176.44 655.075 176.72C655.855 177 656.705 177.25 657.625 177.47C658.545 177.69 659.455 177.93 660.355 178.19C661.275 178.45 662.115 178.79 662.875 179.21C663.655 179.61 664.275 180.15 664.735 180.83C665.215 181.51 665.455 182.4 665.455 183.5C665.455 184.52 665.175 185.47 664.615 186.35C664.055 187.21 663.195 187.91 662.035 188.45C660.895 188.97 659.425 189.23 657.625 189.23Z" fill="white"/>
<rect x="477.678" y="249" width="212.339" height="103" fill="black" fill-opacity="0.3" stroke="#CEB7FF" stroke-width="2"/>
<path d="M514.034 313.23C512.454 313.23 510.994 312.97 509.654 312.45C508.314 311.91 507.154 311.16 506.174 310.2C505.194 309.24 504.424 308.11 503.864 306.81C503.324 305.51 503.054 304.09 503.054 302.55C503.054 301.01 503.324 299.59 503.864 298.29C504.424 296.99 505.194 295.86 506.174 294.9C507.174 293.94 508.344 293.2 509.684 292.68C511.024 292.14 512.484 291.87 514.064 291.87C515.584 291.87 517.014 292.13 518.354 292.65C519.694 293.15 520.824 293.91 521.744 294.93L520.334 296.34C519.474 295.46 518.524 294.83 517.484 294.45C516.444 294.05 515.324 293.85 514.124 293.85C512.864 293.85 511.694 294.07 510.614 294.51C509.534 294.93 508.594 295.54 507.794 296.34C506.994 297.12 506.364 298.04 505.904 299.1C505.464 300.14 505.244 301.29 505.244 302.55C505.244 303.81 505.464 304.97 505.904 306.03C506.364 307.07 506.994 307.99 507.794 308.79C508.594 309.57 509.534 310.18 510.614 310.62C511.694 311.04 512.864 311.25 514.124 311.25C515.324 311.25 516.444 311.05 517.484 310.65C518.524 310.25 519.474 309.61 520.334 308.73L521.744 310.14C520.824 311.16 519.694 311.93 518.354 312.45C517.014 312.97 515.574 313.23 514.034 313.23ZM535.217 313.23C533.637 313.23 532.167 312.97 530.807 312.45C529.467 311.91 528.297 311.16 527.297 310.2C526.317 309.22 525.547 308.09 524.987 306.81C524.447 305.51 524.177 304.09 524.177 302.55C524.177 301.01 524.447 299.6 524.987 298.32C525.547 297.02 526.317 295.89 527.297 294.93C528.297 293.95 529.467 293.2 530.807 292.68C532.147 292.14 533.617 291.87 535.217 291.87C536.797 291.87 538.257 292.14 539.597 292.68C540.937 293.2 542.097 293.94 543.077 294.9C544.077 295.86 544.847 296.99 545.387 298.29C545.947 299.59 546.227 301.01 546.227 302.55C546.227 304.09 545.947 305.51 545.387 306.81C544.847 308.11 544.077 309.24 543.077 310.2C542.097 311.16 540.937 311.91 539.597 312.45C538.257 312.97 536.797 313.23 535.217 313.23ZM535.217 311.25C536.477 311.25 537.637 311.04 538.697 310.62C539.777 310.18 540.707 309.57 541.487 308.79C542.287 307.99 542.907 307.07 543.347 306.03C543.787 304.97 544.007 303.81 544.007 302.55C544.007 301.29 543.787 300.14 543.347 299.1C542.907 298.04 542.287 297.12 541.487 296.34C540.707 295.54 539.777 294.93 538.697 294.51C537.637 294.07 536.477 293.85 535.217 293.85C533.957 293.85 532.787 294.07 531.707 294.51C530.627 294.93 529.687 295.54 528.887 296.34C528.107 297.12 527.487 298.04 527.027 299.1C526.587 300.14 526.367 301.29 526.367 302.55C526.367 303.79 526.587 304.94 527.027 306C527.487 307.06 528.107 307.99 528.887 308.79C529.687 309.57 530.627 310.18 531.707 310.62C532.787 311.04 533.957 311.25 535.217 311.25ZM551.203 313.05V292.05H559.753C561.993 292.05 563.953 292.5 565.633 293.4C567.333 294.28 568.653 295.51 569.593 297.09C570.533 298.67 571.003 300.49 571.003 302.55C571.003 304.61 570.533 306.43 569.593 308.01C568.653 309.59 567.333 310.83 565.633 311.73C563.953 312.61 561.993 313.05 559.753 313.05H551.203ZM553.423 311.13H559.633C561.493 311.13 563.103 310.77 564.463 310.05C565.843 309.31 566.913 308.3 567.673 307.02C568.433 305.72 568.813 304.23 568.813 302.55C568.813 300.85 568.433 299.36 567.673 298.08C566.913 296.8 565.843 295.8 564.463 295.08C563.103 294.34 561.493 293.97 559.633 293.97H553.423V311.13ZM577.968 301.44H589.068V303.33H577.968V301.44ZM578.208 311.13H590.838V313.05H575.988V292.05H590.388V293.97H578.208V311.13ZM603.908 313.05V292.05H611.768C613.548 292.05 615.078 292.34 616.358 292.92C617.638 293.48 618.618 294.3 619.298 295.38C619.998 296.44 620.348 297.73 620.348 299.25C620.348 300.73 619.998 302.01 619.298 303.09C618.618 304.15 617.638 304.97 616.358 305.55C615.078 306.13 613.548 306.42 611.768 306.42H605.138L606.128 305.37V313.05H603.908ZM606.128 305.55L605.138 304.47H611.708C613.808 304.47 615.398 304.02 616.478 303.12C617.578 302.2 618.128 300.91 618.128 299.25C618.128 297.57 617.578 296.27 616.478 295.35C615.398 294.43 613.808 293.97 611.708 293.97H605.138L606.128 292.92V305.55ZM627.128 301.44H638.228V303.33H627.128V301.44ZM627.368 311.13H639.998V313.05H625.148V292.05H639.548V293.97H627.368V311.13ZM645.216 313.05V292.05H647.046L661.536 310.29H660.576V292.05H662.766V313.05H660.936L646.476 294.81H647.436V313.05H645.216Z" fill="white"/>
<rect x="477.678" y="373" width="212.339" height="103" fill="black" fill-opacity="0.3" stroke="#CEB7FF" stroke-width="2"/>
<path d="M538.049 426.22H549.149V428.14H538.049V426.22ZM538.289 437.05H536.069V416.05H550.469V417.97H538.289V437.05ZM555.053 437.05V416.05H557.273V437.05H555.053ZM573.316 437.23C571.716 437.23 570.236 436.97 568.876 436.45C567.536 435.91 566.366 435.16 565.366 434.2C564.386 433.24 563.616 432.11 563.056 430.81C562.516 429.51 562.246 428.09 562.246 426.55C562.246 425.01 562.516 423.59 563.056 422.29C563.616 420.99 564.396 419.86 565.396 418.9C566.396 417.94 567.566 417.2 568.906 416.68C570.266 416.14 571.746 415.87 573.346 415.87C574.946 415.87 576.406 416.12 577.726 416.62C579.066 417.12 580.206 417.88 581.146 418.9L579.766 420.31C578.886 419.43 577.916 418.8 576.856 418.42C575.796 418.04 574.656 417.85 573.436 417.85C572.136 417.85 570.936 418.07 569.836 418.51C568.756 418.93 567.806 419.54 566.986 420.34C566.186 421.12 565.556 422.04 565.096 423.1C564.656 424.14 564.436 425.29 564.436 426.55C564.436 427.79 564.656 428.94 565.096 430C565.556 431.06 566.186 431.99 566.986 432.79C567.806 433.57 568.756 434.18 569.836 434.62C570.936 435.04 572.126 435.25 573.406 435.25C574.606 435.25 575.736 435.07 576.796 434.71C577.876 434.35 578.866 433.74 579.766 432.88L581.026 434.56C580.026 435.44 578.856 436.11 577.516 436.57C576.176 437.01 574.776 437.23 573.316 437.23ZM578.896 434.29V426.55H581.026V434.56L578.896 434.29ZM587.309 437.05V416.05H589.139L598.739 432.43H597.779L607.289 416.05H609.119V437.05H606.989V419.38H607.499L598.739 434.38H597.689L588.869 419.38H589.439V437.05H587.309ZM612.601 437.05L622.201 416.05H624.391L633.991 437.05H631.651L622.831 417.34H623.731L614.911 437.05H612.601ZM616.381 431.44L617.041 429.64H629.251L629.911 431.44H616.381Z" fill="white"/>
<rect x="716.016" y="1" width="212.339" height="103" fill="black" fill-opacity="0.3" stroke="#CEB7FF" stroke-width="2"/>
<path d="M800.251 65.2296C798.691 65.2296 797.191 64.9796 795.751 64.4796C794.331 63.9596 793.231 63.2996 792.451 62.4996L793.321 60.7896C794.061 61.5096 795.051 62.1196 796.291 62.6196C797.551 63.0996 798.871 63.3396 800.251 63.3396C801.571 63.3396 802.641 63.1796 803.461 62.8596C804.301 62.5196 804.911 62.0696 805.291 61.5096C805.691 60.9496 805.891 60.3296 805.891 59.6496C805.891 58.8296 805.651 58.1696 805.171 57.6696C804.711 57.1696 804.101 56.7796 803.341 56.4996C802.581 56.1996 801.741 55.9396 800.821 55.7196C799.901 55.4996 798.981 55.2696 798.061 55.0296C797.141 54.7696 796.291 54.4296 795.511 54.0096C794.751 53.5896 794.131 53.0396 793.651 52.3596C793.191 51.6596 792.961 50.7496 792.961 49.6296C792.961 48.5896 793.231 47.6396 793.771 46.7796C794.331 45.8996 795.181 45.1996 796.321 44.6796C797.461 44.1396 798.921 43.8696 800.701 43.8696C801.881 43.8696 803.051 44.0396 804.211 44.3796C805.371 44.6996 806.371 45.1496 807.211 45.7296L806.461 47.4996C805.561 46.8996 804.601 46.4596 803.581 46.1796C802.581 45.8996 801.611 45.7596 800.671 45.7596C799.411 45.7596 798.371 45.9296 797.551 46.2696C796.731 46.6096 796.121 47.0696 795.721 47.6496C795.341 48.2096 795.151 48.8496 795.151 49.5696C795.151 50.3896 795.381 51.0496 795.841 51.5496C796.321 52.0496 796.941 52.4396 797.701 52.7196C798.481 52.9996 799.331 53.2496 800.251 53.4696C801.171 53.6896 802.081 53.9296 802.981 54.1896C803.901 54.4496 804.741 54.7896 805.501 55.2096C806.281 55.6096 806.901 56.1496 807.361 56.8296C807.841 57.5096 808.081 58.3996 808.081 59.4996C808.081 60.5196 807.801 61.4696 807.241 62.3496C806.681 63.2096 805.821 63.9096 804.661 64.4496C803.521 64.9696 802.051 65.2296 800.251 65.2296ZM822.098 65.2296C820.518 65.2296 819.048 64.9696 817.688 64.4496C816.348 63.9096 815.178 63.1596 814.178 62.1996C813.198 61.2196 812.428 60.0896 811.868 58.8096C811.328 57.5096 811.058 56.0896 811.058 54.5496C811.058 53.0096 811.328 51.5996 811.868 50.3196C812.428 49.0196 813.198 47.8896 814.178 46.9296C815.178 45.9496 816.348 45.1996 817.688 44.6796C819.028 44.1396 820.498 43.8696 822.098 43.8696C823.678 43.8696 825.138 44.1396 826.478 44.6796C827.818 45.1996 828.978 45.9396 829.958 46.8996C830.958 47.8596 831.728 48.9896 832.268 50.2896C832.828 51.5896 833.108 53.0096 833.108 54.5496C833.108 56.0896 832.828 57.5096 832.268 58.8096C831.728 60.1096 830.958 61.2396 829.958 62.1996C828.978 63.1596 827.818 63.9096 826.478 64.4496C825.138 64.9696 823.678 65.2296 822.098 65.2296ZM828.968 69.2196C828.328 69.2196 827.708 69.1396 827.108 68.9796C826.508 68.8196 825.898 68.5596 825.278 68.1996C824.678 67.8596 824.058 67.4096 823.418 66.8496C822.778 66.2896 822.078 65.6096 821.318 64.8096L823.748 64.2096C824.368 64.9496 824.968 65.5596 825.548 66.0396C826.148 66.5196 826.728 66.8696 827.288 67.0896C827.868 67.3296 828.438 67.4496 828.998 67.4496C830.558 67.4496 831.888 66.8096 832.988 65.5296L834.068 66.8196C832.748 68.4196 831.048 69.2196 828.968 69.2196ZM822.098 63.2496C823.358 63.2496 824.518 63.0396 825.578 62.6196C826.658 62.1796 827.588 61.5596 828.368 60.7596C829.168 59.9596 829.788 59.0396 830.228 57.9996C830.668 56.9396 830.888 55.7896 830.888 54.5496C830.888 53.2896 830.668 52.1396 830.228 51.0996C829.788 50.0396 829.168 49.1196 828.368 48.3396C827.588 47.5396 826.658 46.9296 825.578 46.5096C824.518 46.0696 823.358 45.8496 822.098 45.8496C820.838 45.8496 819.668 46.0696 818.588 46.5096C817.508 46.9296 816.568 47.5396 815.768 48.3396C814.988 49.1196 814.368 50.0396 813.908 51.0996C813.468 52.1396 813.248 53.2896 813.248 54.5496C813.248 55.7896 813.468 56.9396 813.908 57.9996C814.368 59.0396 814.988 59.9596 815.768 60.7596C816.568 61.5596 817.508 62.1796 818.588 62.6196C819.668 63.0396 820.838 63.2496 822.098 63.2496ZM838.084 65.0496V44.0496H840.304V63.1296H852.064V65.0496H838.084Z" fill="white"/>
<rect x="716.016" y="125" width="212.339" height="103" fill="black" fill-opacity="0.3" stroke="#CEB7FF" stroke-width="2"/>
<path d="M771.333 189.05V168.05H773.163L782.763 184.43H781.803L791.313 168.05H793.143V189.05H791.013V171.38H791.523L782.763 186.38H781.713L772.893 171.38H773.463V189.05H771.333ZM804.996 189.05V181.25L805.506 182.63L796.596 168.05H798.966L806.796 180.86H805.536L813.366 168.05H815.586L806.676 182.63L807.186 181.25V189.05H804.996ZM824.379 189.23C822.819 189.23 821.319 188.98 819.879 188.48C818.459 187.96 817.359 187.3 816.579 186.5L817.449 184.79C818.189 185.51 819.179 186.12 820.419 186.62C821.679 187.1 822.999 187.34 824.379 187.34C825.699 187.34 826.769 187.18 827.589 186.86C828.429 186.52 829.039 186.07 829.419 185.51C829.819 184.95 830.019 184.33 830.019 183.65C830.019 182.83 829.779 182.17 829.299 181.67C828.839 181.17 828.229 180.78 827.469 180.5C826.709 180.2 825.869 179.94 824.949 179.72C824.029 179.5 823.109 179.27 822.189 179.03C821.269 178.77 820.419 178.43 819.639 178.01C818.879 177.59 818.259 177.04 817.779 176.36C817.319 175.66 817.089 174.75 817.089 173.63C817.089 172.59 817.359 171.64 817.899 170.78C818.459 169.9 819.309 169.2 820.449 168.68C821.589 168.14 823.049 167.87 824.829 167.87C826.009 167.87 827.179 168.04 828.339 168.38C829.499 168.7 830.499 169.15 831.339 169.73L830.589 171.5C829.689 170.9 828.729 170.46 827.709 170.18C826.709 169.9 825.739 169.76 824.799 169.76C823.539 169.76 822.499 169.93 821.679 170.27C820.859 170.61 820.249 171.07 819.849 171.65C819.469 172.21 819.279 172.85 819.279 173.57C819.279 174.39 819.509 175.05 819.969 175.55C820.449 176.05 821.069 176.44 821.829 176.72C822.609 177 823.459 177.25 824.379 177.47C825.299 177.69 826.209 177.93 827.109 178.19C828.029 178.45 828.869 178.79 829.629 179.21C830.409 179.61 831.029 180.15 831.489 180.83C831.969 181.51 832.209 182.4 832.209 183.5C832.209 184.52 831.929 185.47 831.369 186.35C830.809 187.21 829.949 187.91 828.789 188.45C827.649 188.97 826.179 189.23 824.379 189.23ZM846.226 189.23C844.646 189.23 843.176 188.97 841.816 188.45C840.476 187.91 839.306 187.16 838.306 186.2C837.326 185.22 836.556 184.09 835.996 182.81C835.456 181.51 835.186 180.09 835.186 178.55C835.186 177.01 835.456 175.6 835.996 174.32C836.556 173.02 837.326 171.89 838.306 170.93C839.306 169.95 840.476 169.2 841.816 168.68C843.156 168.14 844.626 167.87 846.226 167.87C847.806 167.87 849.266 168.14 850.606 168.68C851.946 169.2 853.106 169.94 854.086 170.9C855.086 171.86 855.856 172.99 856.396 174.29C856.956 175.59 857.236 177.01 857.236 178.55C857.236 180.09 856.956 181.51 856.396 182.81C855.856 184.11 855.086 185.24 854.086 186.2C853.106 187.16 851.946 187.91 850.606 188.45C849.266 188.97 847.806 189.23 846.226 189.23ZM853.096 193.22C852.456 193.22 851.836 193.14 851.236 192.98C850.636 192.82 850.026 192.56 849.406 192.2C848.806 191.86 848.186 191.41 847.546 190.85C846.906 190.29 846.206 189.61 845.446 188.81L847.876 188.21C848.496 188.95 849.096 189.56 849.676 190.04C850.276 190.52 850.856 190.87 851.416 191.09C851.996 191.33 852.566 191.45 853.126 191.45C854.686 191.45 856.016 190.81 857.116 189.53L858.196 190.82C856.876 192.42 855.176 193.22 853.096 193.22ZM846.226 187.25C847.486 187.25 848.646 187.04 849.706 186.62C850.786 186.18 851.716 185.56 852.496 184.76C853.296 183.96 853.916 183.04 854.356 182C854.796 180.94 855.016 179.79 855.016 178.55C855.016 177.29 854.796 176.14 854.356 175.1C853.916 174.04 853.296 173.12 852.496 172.34C851.716 171.54 850.786 170.93 849.706 170.51C848.646 170.07 847.486 169.85 846.226 169.85C844.966 169.85 843.796 170.07 842.716 170.51C841.636 170.93 840.696 171.54 839.896 172.34C839.116 173.12 838.496 174.04 838.036 175.1C837.596 176.14 837.376 177.29 837.376 178.55C837.376 179.79 837.596 180.94 838.036 182C838.496 183.04 839.116 183.96 839.896 184.76C840.696 185.56 841.636 186.18 842.716 186.62C843.796 187.04 844.966 187.25 846.226 187.25ZM862.212 189.05V168.05H864.432V187.13H876.192V189.05H862.212Z" fill="white"/>
<rect x="716.016" y="249" width="212.339" height="103" fill="black" fill-opacity="0.3" stroke="#CEB7FF" stroke-width="2"/>
<path d="M772.91 296.18C771.33 296.18 769.87 295.92 768.53 295.4C767.19 294.86 766.03 294.11 765.05 293.15C764.07 292.19 763.3 291.06 762.74 289.76C762.2 288.46 761.93 287.04 761.93 285.5C761.93 283.96 762.2 282.54 762.74 281.24C763.3 279.94 764.07 278.81 765.05 277.85C766.05 276.89 767.22 276.15 768.56 275.63C769.9 275.09 771.36 274.82 772.94 274.82C774.46 274.82 775.89 275.08 777.23 275.6C778.57 276.1 779.7 276.86 780.62 277.88L779.21 279.29C778.35 278.41 777.4 277.78 776.36 277.4C775.32 277 774.2 276.8 773 276.8C771.74 276.8 770.57 277.02 769.49 277.46C768.41 277.88 767.47 278.49 766.67 279.29C765.87 280.07 765.24 280.99 764.78 282.05C764.34 283.09 764.12 284.24 764.12 285.5C764.12 286.76 764.34 287.92 764.78 288.98C765.24 290.02 765.87 290.94 766.67 291.74C767.47 292.52 768.41 293.13 769.49 293.57C770.57 293.99 771.74 294.2 773 294.2C774.2 294.2 775.32 294 776.36 293.6C777.4 293.2 778.35 292.56 779.21 291.68L780.62 293.09C779.7 294.11 778.57 294.88 777.23 295.4C775.89 295.92 774.45 296.18 772.91 296.18ZM785.353 296V275H787.573V294.08H799.333V296H785.353ZM804.999 284.39H816.099V286.28H804.999V284.39ZM805.239 294.08H817.869V296H803.019V275H817.419V276.92H805.239V294.08ZM828.764 296L819.464 275H821.864L830.564 294.77H829.244L838.004 275H840.254L830.954 296H828.764ZM845.282 284.39H856.382V286.28H845.282V284.39ZM845.522 294.08H858.152V296H843.302V275H857.702V276.92H845.522V294.08ZM863.37 296V275H871.23C873.01 275 874.54 275.29 875.82 275.87C877.1 276.43 878.08 277.25 878.76 278.33C879.46 279.39 879.81 280.68 879.81 282.2C879.81 283.68 879.46 284.96 878.76 286.04C878.08 287.1 877.1 287.92 875.82 288.5C874.54 289.06 873.01 289.34 871.23 289.34H864.6L865.59 288.32V296H863.37ZM877.71 296L872.31 288.38H874.71L880.14 296H877.71ZM865.59 288.5L864.6 287.45H871.17C873.27 287.45 874.86 286.99 875.94 286.07C877.04 285.15 877.59 283.86 877.59 282.2C877.59 280.52 877.04 279.22 875.94 278.3C874.86 277.38 873.27 276.92 871.17 276.92H864.6L865.59 275.87V288.5ZM777.275 327.18C775.695 327.18 774.235 326.92 772.895 326.4C771.555 325.86 770.395 325.11 769.415 324.15C768.435 323.19 767.665 322.06 767.105 320.76C766.565 319.46 766.295 318.04 766.295 316.5C766.295 314.96 766.565 313.54 767.105 312.24C767.665 310.94 768.435 309.81 769.415 308.85C770.415 307.89 771.585 307.15 772.925 306.63C774.265 306.09 775.725 305.82 777.305 305.82C778.825 305.82 780.255 306.08 781.595 306.6C782.935 307.1 784.065 307.86 784.985 308.88L783.575 310.29C782.715 309.41 781.765 308.78 780.725 308.4C779.685 308 778.565 307.8 777.365 307.8C776.105 307.8 774.935 308.02 773.855 308.46C772.775 308.88 771.835 309.49 771.035 310.29C770.235 311.07 769.605 311.99 769.145 313.05C768.705 314.09 768.485 315.24 768.485 316.5C768.485 317.76 768.705 318.92 769.145 319.98C769.605 321.02 770.235 321.94 771.035 322.74C771.835 323.52 772.775 324.13 773.855 324.57C774.935 324.99 776.105 325.2 777.365 325.2C778.565 325.2 779.685 325 780.725 324.6C781.765 324.2 782.715 323.56 783.575 322.68L784.985 324.09C784.065 325.11 782.935 325.88 781.595 326.4C780.255 326.92 778.815 327.18 777.275 327.18ZM789.718 327V306H791.938V325.08H803.698V327H789.718ZM816.154 327.18C814.574 327.18 813.104 326.92 811.744 326.4C810.404 325.86 809.234 325.11 808.234 324.15C807.254 323.17 806.484 322.04 805.924 320.76C805.384 319.46 805.114 318.04 805.114 316.5C805.114 314.96 805.384 313.55 805.924 312.27C806.484 310.97 807.254 309.84 808.234 308.88C809.234 307.9 810.404 307.15 811.744 306.63C813.084 306.09 814.554 305.82 816.154 305.82C817.734 305.82 819.194 306.09 820.534 306.63C821.874 307.15 823.034 307.89 824.014 308.85C825.014 309.81 825.784 310.94 826.324 312.24C826.884 313.54 827.164 314.96 827.164 316.5C827.164 318.04 826.884 319.46 826.324 320.76C825.784 322.06 825.014 323.19 824.014 324.15C823.034 325.11 821.874 325.86 820.534 326.4C819.194 326.92 817.734 327.18 816.154 327.18ZM816.154 325.2C817.414 325.2 818.574 324.99 819.634 324.57C820.714 324.13 821.644 323.52 822.424 322.74C823.224 321.94 823.844 321.02 824.284 319.98C824.724 318.92 824.944 317.76 824.944 316.5C824.944 315.24 824.724 314.09 824.284 313.05C823.844 311.99 823.224 311.07 822.424 310.29C821.644 309.49 820.714 308.88 819.634 308.46C818.574 308.02 817.414 307.8 816.154 307.8C814.894 307.8 813.724 308.02 812.644 308.46C811.564 308.88 810.624 309.49 809.824 310.29C809.044 311.07 808.424 311.99 807.964 313.05C807.524 314.09 807.304 315.24 807.304 316.5C807.304 317.74 807.524 318.89 807.964 319.95C808.424 321.01 809.044 321.94 809.824 322.74C810.624 323.52 811.564 324.13 812.644 324.57C813.724 324.99 814.894 325.2 816.154 325.2ZM840.6 327.18C837.92 327.18 835.81 326.41 834.27 324.87C832.73 323.33 831.96 321.05 831.96 318.03V306H834.18V317.94C834.18 320.42 834.74 322.25 835.86 323.43C836.98 324.61 838.56 325.2 840.6 325.2C842.66 325.2 844.25 324.61 845.37 323.43C846.49 322.25 847.05 320.42 847.05 317.94V306H849.21V318.03C849.21 321.05 848.44 323.33 846.9 324.87C845.38 326.41 843.28 327.18 840.6 327.18ZM855.899 327V306H864.449C866.689 306 868.649 306.45 870.329 307.35C872.029 308.23 873.349 309.46 874.289 311.04C875.229 312.62 875.699 314.44 875.699 316.5C875.699 318.56 875.229 320.38 874.289 321.96C873.349 323.54 872.029 324.78 870.329 325.68C868.649 326.56 866.689 327 864.449 327H855.899ZM858.119 325.08H864.329C866.189 325.08 867.799 324.72 869.159 324C870.539 323.26 871.609 322.25 872.369 320.97C873.129 319.67 873.509 318.18 873.509 316.5C873.509 314.8 873.129 313.31 872.369 312.03C871.609 310.75 870.539 309.75 869.159 309.03C867.799 308.29 866.189 307.92 864.329 307.92H858.119V325.08Z" fill="white"/>
<rect x="716.016" y="373" width="212.339" height="103" fill="black" fill-opacity="0.3" stroke="#CEB7FF" stroke-width="2"/>
<path d="M777.367 437.05V416.05H779.197L793.687 434.29H792.727V416.05H794.917V437.05H793.087L778.627 418.81H779.587V437.05H777.367ZM798.411 437.05L808.011 416.05H810.201L819.801 437.05H817.461L808.641 417.34H809.541L800.721 437.05H798.411ZM802.191 431.44L802.851 429.64H815.061L815.721 431.44H802.191ZM823.275 437.05V416.05H825.105L839.595 434.29H838.635V416.05H840.825V437.05H838.995L824.535 418.81H825.495V437.05H823.275ZM856.859 437.23C855.279 437.23 853.809 436.97 852.449 436.45C851.109 435.91 849.939 435.16 848.939 434.2C847.959 433.22 847.189 432.09 846.629 430.81C846.089 429.51 845.819 428.09 845.819 426.55C845.819 425.01 846.089 423.6 846.629 422.32C847.189 421.02 847.959 419.89 848.939 418.93C849.939 417.95 851.109 417.2 852.449 416.68C853.789 416.14 855.259 415.87 856.859 415.87C858.439 415.87 859.899 416.14 861.239 416.68C862.579 417.2 863.739 417.94 864.719 418.9C865.719 419.86 866.489 420.99 867.029 422.29C867.589 423.59 867.869 425.01 867.869 426.55C867.869 428.09 867.589 429.51 867.029 430.81C866.489 432.11 865.719 433.24 864.719 434.2C863.739 435.16 862.579 435.91 861.239 436.45C859.899 436.97 858.439 437.23 856.859 437.23ZM856.859 435.25C858.119 435.25 859.279 435.04 860.339 434.62C861.419 434.18 862.349 433.57 863.129 432.79C863.929 431.99 864.549 431.07 864.989 430.03C865.429 428.97 865.649 427.81 865.649 426.55C865.649 425.29 865.429 424.14 864.989 423.1C864.549 422.04 863.929 421.12 863.129 420.34C862.349 419.54 861.419 418.93 860.339 418.51C859.279 418.07 858.119 417.85 856.859 417.85C855.599 417.85 854.429 418.07 853.349 418.51C852.269 418.93 851.329 419.54 850.529 420.34C849.749 421.12 849.129 422.04 848.669 423.1C848.229 424.14 848.009 425.29 848.009 426.55C848.009 427.79 848.229 428.94 848.669 430C849.129 431.06 849.749 431.99 850.529 432.79C851.329 433.57 852.269 434.18 853.349 434.62C854.429 435.04 855.599 435.25 856.859 435.25Z" fill="white"/>
</svg>
