<svg width="215" height="105" viewBox="0 0 215 105" fill="none" xmlns="http://www.w3.org/2000/svg">
<rect x="1" y="1" width="212.339" height="103" fill="black" fill-opacity="0.3" stroke="#CEB7FF" stroke-width="2"/>
<path d="M81.4748 44.0496H83.6648V65.0496H81.4748V44.0496ZM68.3348 65.0496H66.1148V44.0496H68.3348V65.0496ZM81.6848 55.3596H68.0948V53.4096H81.6848V55.3596ZM94.5991 65.0496V45.9696H87.2191V44.0496H104.199V45.9696H96.8191V65.0496H94.5991ZM107.746 65.0496V44.0496H109.576L119.176 60.4296H118.216L127.726 44.0496H129.556V65.0496H127.426V47.3796H127.936L119.176 62.3796H118.126L109.306 47.3796H109.876V65.0496H107.746ZM136.398 65.0496V44.0496H138.618V63.1296H150.378V65.0496H136.398Z" fill="white"/>
</svg>
