<svg width="215" height="105" viewBox="0 0 215 105" fill="none" xmlns="http://www.w3.org/2000/svg">
<rect x="1" y="1" width="212.339" height="103" fill="black" fill-opacity="0.3" stroke="#CEB7FF" stroke-width="2"/>
<path d="M74.651 65.2296C73.471 65.2296 72.361 64.9696 71.321 64.4496C70.301 63.9296 69.481 63.1896 68.861 62.2296L70.151 60.7296C70.731 61.5696 71.401 62.2096 72.161 62.6496C72.921 63.0896 73.761 63.3096 74.681 63.3096C77.281 63.3096 78.581 61.7696 78.581 58.6896V45.9696H70.901V44.0496H80.771V58.5996C80.771 60.8196 80.251 62.4796 79.211 63.5796C78.191 64.6796 76.671 65.2296 74.651 65.2296ZM83.6308 65.0496L93.2308 44.0496H95.4208L105.021 65.0496H102.681L93.8608 45.3396H94.7608L85.9408 65.0496H83.6308ZM87.4108 59.4396L88.0708 57.6396H100.281L100.941 59.4396H87.4108ZM113.381 65.0496L104.081 44.0496H106.481L115.181 63.8196H113.861L122.621 44.0496H124.871L115.571 65.0496H113.381ZM123.914 65.0496L133.514 44.0496H135.704L145.304 65.0496H142.964L134.144 45.3396H135.044L126.224 65.0496H123.914ZM127.694 59.4396L128.354 57.6396H140.564L141.224 59.4396H127.694Z" fill="white"/>
</svg>
