<svg width="448" height="105" viewBox="0 0 448 105" fill="none" xmlns="http://www.w3.org/2000/svg">
<rect x="1" y="1" width="445.563" height="103" fill="black" fill-opacity="0.3" stroke="#CEB7FF" stroke-width="2"/>
<path d="M109.251 65V44H111.081L120.681 60.38H119.721L129.231 44H131.061V65H128.931V47.33H129.441L120.681 62.33H119.631L110.811 47.33H111.381V65H109.251ZM137.903 65V44H140.123V65H137.903ZM152.746 65.18C151.186 65.18 149.686 64.93 148.246 64.43C146.826 63.91 145.726 63.25 144.946 62.45L145.816 60.74C146.556 61.46 147.546 62.07 148.786 62.57C150.046 63.05 151.366 63.29 152.746 63.29C154.066 63.29 155.136 63.13 155.956 62.81C156.796 62.47 157.406 62.02 157.786 61.46C158.186 60.9 158.386 60.28 158.386 59.6C158.386 58.78 158.146 58.12 157.666 57.62C157.206 57.12 156.596 56.73 155.836 56.45C155.076 56.15 154.236 55.89 153.316 55.67C152.396 55.45 151.476 55.22 150.556 54.98C149.636 54.72 148.786 54.38 148.006 53.96C147.246 53.54 146.626 52.99 146.146 52.31C145.686 51.61 145.456 50.7 145.456 49.58C145.456 48.54 145.726 47.59 146.266 46.73C146.826 45.85 147.676 45.15 148.816 44.63C149.956 44.09 151.416 43.82 153.196 43.82C154.376 43.82 155.546 43.99 156.706 44.33C157.866 44.65 158.866 45.1 159.706 45.68L158.956 47.45C158.056 46.85 157.096 46.41 156.076 46.13C155.076 45.85 154.106 45.71 153.166 45.71C151.906 45.71 150.866 45.88 150.046 46.22C149.226 46.56 148.616 47.02 148.216 47.6C147.836 48.16 147.646 48.8 147.646 49.52C147.646 50.34 147.876 51 148.336 51.5C148.816 52 149.436 52.39 150.196 52.67C150.976 52.95 151.826 53.2 152.746 53.42C153.666 53.64 154.576 53.88 155.476 54.14C156.396 54.4 157.236 54.74 157.996 55.16C158.776 55.56 159.396 56.1 159.856 56.78C160.336 57.46 160.576 58.35 160.576 59.45C160.576 60.47 160.296 61.42 159.736 62.3C159.176 63.16 158.316 63.86 157.156 64.4C156.016 64.92 154.546 65.18 152.746 65.18ZM173.265 65V44H181.125C182.905 44 184.435 44.29 185.715 44.87C186.995 45.43 187.975 46.25 188.655 47.33C189.355 48.39 189.705 49.68 189.705 51.2C189.705 52.68 189.355 53.96 188.655 55.04C187.975 56.1 186.995 56.92 185.715 57.5C184.435 58.08 182.905 58.37 181.125 58.37H174.495L175.485 57.32V65H173.265ZM175.485 57.5L174.495 56.42H181.065C183.165 56.42 184.755 55.97 185.835 55.07C186.935 54.15 187.485 52.86 187.485 51.2C187.485 49.52 186.935 48.22 185.835 47.3C184.755 46.38 183.165 45.92 181.065 45.92H174.495L175.485 44.87V57.5ZM194.505 65V44H202.365C204.145 44 205.675 44.29 206.955 44.87C208.235 45.43 209.215 46.25 209.895 47.33C210.595 48.39 210.945 49.68 210.945 51.2C210.945 52.68 210.595 53.96 209.895 55.04C209.215 56.1 208.235 56.92 206.955 57.5C205.675 58.06 204.145 58.34 202.365 58.34H195.735L196.725 57.32V65H194.505ZM208.845 65L203.445 57.38H205.845L211.275 65H208.845ZM196.725 57.5L195.735 56.45H202.305C204.405 56.45 205.995 55.99 207.075 55.07C208.175 54.15 208.725 52.86 208.725 51.2C208.725 49.52 208.175 48.22 207.075 47.3C205.995 46.38 204.405 45.92 202.305 45.92H195.735L196.725 44.87V57.5ZM225.365 65.18C223.785 65.18 222.315 64.92 220.955 64.4C219.615 63.86 218.445 63.11 217.445 62.15C216.465 61.17 215.695 60.04 215.135 58.76C214.595 57.46 214.325 56.04 214.325 54.5C214.325 52.96 214.595 51.55 215.135 50.27C215.695 48.97 216.465 47.84 217.445 46.88C218.445 45.9 219.615 45.15 220.955 44.63C222.295 44.09 223.765 43.82 225.365 43.82C226.945 43.82 228.405 44.09 229.745 44.63C231.085 45.15 232.245 45.89 233.225 46.85C234.225 47.81 234.995 48.94 235.535 50.24C236.095 51.54 236.375 52.96 236.375 54.5C236.375 56.04 236.095 57.46 235.535 58.76C234.995 60.06 234.225 61.19 233.225 62.15C232.245 63.11 231.085 63.86 229.745 64.4C228.405 64.92 226.945 65.18 225.365 65.18ZM225.365 63.2C226.625 63.2 227.785 62.99 228.845 62.57C229.925 62.13 230.855 61.52 231.635 60.74C232.435 59.94 233.055 59.02 233.495 57.98C233.935 56.92 234.155 55.76 234.155 54.5C234.155 53.24 233.935 52.09 233.495 51.05C233.055 49.99 232.435 49.07 231.635 48.29C230.855 47.49 229.925 46.88 228.845 46.46C227.785 46.02 226.625 45.8 225.365 45.8C224.105 45.8 222.935 46.02 221.855 46.46C220.775 46.88 219.835 47.49 219.035 48.29C218.255 49.07 217.635 49.99 217.175 51.05C216.735 52.09 216.515 53.24 216.515 54.5C216.515 55.74 216.735 56.89 217.175 57.95C217.635 59.01 218.255 59.94 219.035 60.74C219.835 61.52 220.775 62.13 221.855 62.57C222.935 62.99 224.105 63.2 225.365 63.2ZM245.452 65V57.2L245.962 58.58L237.052 44H239.422L247.252 56.81H245.992L253.822 44H256.042L247.132 58.58L247.642 57.2V65H245.452ZM261.026 53.39H272.126V55.28H261.026V53.39ZM261.266 63.08H273.896V65H259.046V44H273.446V45.92H261.266V63.08ZM288.176 65.18C286.596 65.18 285.136 64.92 283.796 64.4C282.456 63.86 281.296 63.11 280.316 62.15C279.336 61.19 278.566 60.06 278.006 58.76C277.466 57.46 277.196 56.04 277.196 54.5C277.196 52.96 277.466 51.54 278.006 50.24C278.566 48.94 279.336 47.81 280.316 46.85C281.316 45.89 282.486 45.15 283.826 44.63C285.166 44.09 286.626 43.82 288.206 43.82C289.726 43.82 291.156 44.08 292.496 44.6C293.836 45.1 294.966 45.86 295.886 46.88L294.476 48.29C293.616 47.41 292.666 46.78 291.626 46.4C290.586 46 289.466 45.8 288.266 45.8C287.006 45.8 285.836 46.02 284.756 46.46C283.676 46.88 282.736 47.49 281.936 48.29C281.136 49.07 280.506 49.99 280.046 51.05C279.606 52.09 279.386 53.24 279.386 54.5C279.386 55.76 279.606 56.92 280.046 57.98C280.506 59.02 281.136 59.94 281.936 60.74C282.736 61.52 283.676 62.13 284.756 62.57C285.836 62.99 287.006 63.2 288.266 63.2C289.466 63.2 290.586 63 291.626 62.6C292.666 62.2 293.616 61.56 294.476 60.68L295.886 62.09C294.966 63.11 293.836 63.88 292.496 64.4C291.156 64.92 289.716 65.18 288.176 65.18ZM304.435 65V45.92H297.055V44H314.035V45.92H306.655V65H304.435ZM326.468 65.18C324.888 65.18 323.418 64.92 322.058 64.4C320.718 63.86 319.548 63.11 318.548 62.15C317.568 61.17 316.798 60.04 316.238 58.76C315.698 57.46 315.428 56.04 315.428 54.5C315.428 52.96 315.698 51.55 316.238 50.27C316.798 48.97 317.568 47.84 318.548 46.88C319.548 45.9 320.718 45.15 322.058 44.63C323.398 44.09 324.868 43.82 326.468 43.82C328.048 43.82 329.508 44.09 330.848 44.63C332.188 45.15 333.348 45.89 334.328 46.85C335.328 47.81 336.098 48.94 336.638 50.24C337.198 51.54 337.478 52.96 337.478 54.5C337.478 56.04 337.198 57.46 336.638 58.76C336.098 60.06 335.328 61.19 334.328 62.15C333.348 63.11 332.188 63.86 330.848 64.4C329.508 64.92 328.048 65.18 326.468 65.18ZM326.468 63.2C327.728 63.2 328.888 62.99 329.948 62.57C331.028 62.13 331.958 61.52 332.738 60.74C333.538 59.94 334.158 59.02 334.598 57.98C335.038 56.92 335.258 55.76 335.258 54.5C335.258 53.24 335.038 52.09 334.598 51.05C334.158 49.99 333.538 49.07 332.738 48.29C331.958 47.49 331.028 46.88 329.948 46.46C328.888 46.02 327.728 45.8 326.468 45.8C325.208 45.8 324.038 46.02 322.958 46.46C321.878 46.88 320.938 47.49 320.138 48.29C319.358 49.07 318.738 49.99 318.278 51.05C317.838 52.09 317.618 53.24 317.618 54.5C317.618 55.74 317.838 56.89 318.278 57.95C318.738 59.01 319.358 59.94 320.138 60.74C320.938 61.52 321.878 62.13 322.958 62.57C324.038 62.99 325.208 63.2 326.468 63.2ZM348.244 65.18C346.684 65.18 345.184 64.93 343.744 64.43C342.324 63.91 341.224 63.25 340.444 62.45L341.314 60.74C342.054 61.46 343.044 62.07 344.284 62.57C345.544 63.05 346.864 63.29 348.244 63.29C349.564 63.29 350.634 63.13 351.454 62.81C352.294 62.47 352.904 62.02 353.284 61.46C353.684 60.9 353.884 60.28 353.884 59.6C353.884 58.78 353.644 58.12 353.164 57.62C352.704 57.12 352.094 56.73 351.334 56.45C350.574 56.15 349.734 55.89 348.814 55.67C347.894 55.45 346.974 55.22 346.054 54.98C345.134 54.72 344.284 54.38 343.504 53.96C342.744 53.54 342.124 52.99 341.644 52.31C341.184 51.61 340.954 50.7 340.954 49.58C340.954 48.54 341.224 47.59 341.764 46.73C342.324 45.85 343.174 45.15 344.314 44.63C345.454 44.09 346.914 43.82 348.694 43.82C349.874 43.82 351.044 43.99 352.204 44.33C353.364 44.65 354.364 45.1 355.204 45.68L354.454 47.45C353.554 46.85 352.594 46.41 351.574 46.13C350.574 45.85 349.604 45.71 348.664 45.71C347.404 45.71 346.364 45.88 345.544 46.22C344.724 46.56 344.114 47.02 343.714 47.6C343.334 48.16 343.144 48.8 343.144 49.52C343.144 50.34 343.374 51 343.834 51.5C344.314 52 344.934 52.39 345.694 52.67C346.474 52.95 347.324 53.2 348.244 53.42C349.164 53.64 350.074 53.88 350.974 54.14C351.894 54.4 352.734 54.74 353.494 55.16C354.274 55.56 354.894 56.1 355.354 56.78C355.834 57.46 356.074 58.35 356.074 59.45C356.074 60.47 355.794 61.42 355.234 62.3C354.674 63.16 353.814 63.86 352.654 64.4C351.514 64.92 350.044 65.18 348.244 65.18Z" fill="white"/>
</svg>
