<svg width="215" height="105" viewBox="0 0 215 105" fill="none" xmlns="http://www.w3.org/2000/svg">
<rect x="1" y="1" width="212.339" height="103" fill="black" fill-opacity="0.3" stroke="#CEB7FF" stroke-width="2"/>
<path d="M85.2349 65.2296C83.6749 65.2296 82.1749 64.9796 80.7349 64.4796C79.3149 63.9596 78.2149 63.2996 77.4349 62.4996L78.3049 60.7896C79.0449 61.5096 80.0349 62.1196 81.2749 62.6196C82.5349 63.0996 83.8549 63.3396 85.2349 63.3396C86.5549 63.3396 87.6249 63.1796 88.4449 62.8596C89.2849 62.5196 89.8949 62.0696 90.2749 61.5096C90.6749 60.9496 90.8749 60.3296 90.8749 59.6496C90.8749 58.8296 90.6349 58.1696 90.1549 57.6696C89.6949 57.1696 89.0849 56.7796 88.3249 56.4996C87.5649 56.1996 86.7249 55.9396 85.8049 55.7196C84.8849 55.4996 83.9649 55.2696 83.0449 55.0296C82.1249 54.7696 81.2749 54.4296 80.4949 54.0096C79.7349 53.5896 79.1149 53.0396 78.6349 52.3596C78.1749 51.6596 77.9449 50.7496 77.9449 49.6296C77.9449 48.5896 78.2149 47.6396 78.7549 46.7796C79.3149 45.8996 80.1649 45.1996 81.3049 44.6796C82.4449 44.1396 83.9049 43.8696 85.6849 43.8696C86.8649 43.8696 88.0349 44.0396 89.1949 44.3796C90.3549 44.6996 91.3549 45.1496 92.1949 45.7296L91.4449 47.4996C90.5449 46.8996 89.5849 46.4596 88.5649 46.1796C87.5649 45.8996 86.5949 45.7596 85.6549 45.7596C84.3949 45.7596 83.3549 45.9296 82.5349 46.2696C81.7149 46.6096 81.1049 47.0696 80.7049 47.6496C80.3249 48.2096 80.1349 48.8496 80.1349 49.5696C80.1349 50.3896 80.3649 51.0496 80.8249 51.5496C81.3049 52.0496 81.9249 52.4396 82.6849 52.7196C83.4649 52.9996 84.3149 53.2496 85.2349 53.4696C86.1549 53.6896 87.0649 53.9296 87.9649 54.1896C88.8849 54.4496 89.7249 54.7896 90.4849 55.2096C91.2649 55.6096 91.8849 56.1496 92.3449 56.8296C92.8249 57.5096 93.0649 58.3996 93.0649 59.4996C93.0649 60.5196 92.7849 61.4696 92.2249 62.3496C91.6649 63.2096 90.8049 63.9096 89.6449 64.4496C88.5049 64.9696 87.0349 65.2296 85.2349 65.2296ZM107.082 65.2296C105.502 65.2296 104.032 64.9696 102.672 64.4496C101.332 63.9096 100.162 63.1596 99.1619 62.1996C98.1819 61.2196 97.4119 60.0896 96.8519 58.8096C96.3119 57.5096 96.0419 56.0896 96.0419 54.5496C96.0419 53.0096 96.3119 51.5996 96.8519 50.3196C97.4119 49.0196 98.1819 47.8896 99.1619 46.9296C100.162 45.9496 101.332 45.1996 102.672 44.6796C104.012 44.1396 105.482 43.8696 107.082 43.8696C108.662 43.8696 110.122 44.1396 111.462 44.6796C112.802 45.1996 113.962 45.9396 114.942 46.8996C115.942 47.8596 116.712 48.9896 117.252 50.2896C117.812 51.5896 118.092 53.0096 118.092 54.5496C118.092 56.0896 117.812 57.5096 117.252 58.8096C116.712 60.1096 115.942 61.2396 114.942 62.1996C113.962 63.1596 112.802 63.9096 111.462 64.4496C110.122 64.9696 108.662 65.2296 107.082 65.2296ZM113.952 69.2196C113.312 69.2196 112.692 69.1396 112.092 68.9796C111.492 68.8196 110.882 68.5596 110.262 68.1996C109.662 67.8596 109.042 67.4096 108.402 66.8496C107.762 66.2896 107.062 65.6096 106.302 64.8096L108.732 64.2096C109.352 64.9496 109.952 65.5596 110.532 66.0396C111.132 66.5196 111.712 66.8696 112.272 67.0896C112.852 67.3296 113.422 67.4496 113.982 67.4496C115.542 67.4496 116.872 66.8096 117.972 65.5296L119.052 66.8196C117.732 68.4196 116.032 69.2196 113.952 69.2196ZM107.082 63.2496C108.342 63.2496 109.502 63.0396 110.562 62.6196C111.642 62.1796 112.572 61.5596 113.352 60.7596C114.152 59.9596 114.772 59.0396 115.212 57.9996C115.652 56.9396 115.872 55.7896 115.872 54.5496C115.872 53.2896 115.652 52.1396 115.212 51.0996C114.772 50.0396 114.152 49.1196 113.352 48.3396C112.572 47.5396 111.642 46.9296 110.562 46.5096C109.502 46.0696 108.342 45.8496 107.082 45.8496C105.822 45.8496 104.652 46.0696 103.572 46.5096C102.492 46.9296 101.552 47.5396 100.752 48.3396C99.9719 49.1196 99.3519 50.0396 98.8919 51.0996C98.4519 52.1396 98.2319 53.2896 98.2319 54.5496C98.2319 55.7896 98.4519 56.9396 98.8919 57.9996C99.3519 59.0396 99.9719 59.9596 100.752 60.7596C101.552 61.5596 102.492 62.1796 103.572 62.6196C104.652 63.0396 105.822 63.2496 107.082 63.2496ZM123.068 65.0496V44.0496H125.288V63.1296H137.048V65.0496H123.068Z" fill="white"/>
</svg>
